<svg width="939" height="209" viewBox="0 0 939 209" fill="none" xmlns="http://www.w3.org/2000/svg">
<path d="M92.1617 170.544C85.4417 170.544 80.0657 173.848 79.5057 178.72L84.9937 181.184C85.1617 176.928 88.0177 174.912 91.7697 174.912C95.1297 174.912 97.3137 176.368 97.3137 180.4V181.464L90.0897 182.808C83.3137 184.096 79.5057 186.952 79.5057 191.992C79.5057 197.088 83.5937 200.392 89.5857 200.392C93.6177 200.392 96.3057 197.984 97.3697 194.96V200H104.034V180.176C104.034 173.96 99.6097 170.544 92.1617 170.544ZM91.3217 196.136C88.2417 196.136 86.6177 194.736 86.6177 191.6C86.6177 188.688 88.3537 186.84 91.4897 186L97.4257 184.432V189.08C97.4257 193.168 94.8497 196.136 91.3217 196.136ZM125.765 166.456C128.453 166.456 130.413 168.024 131.533 169.48V163.768C130.637 163.152 128.341 161.64 124.477 161.64C117.925 161.64 114.621 166.288 114.621 172.504V174.8H109.301L108.013 178.72H114.621V200H121.285V178.72H130.189L131.477 174.8H121.285V171.608C121.285 168.192 122.573 166.456 125.765 166.456ZM150.648 166.456C153.336 166.456 155.296 168.024 156.416 169.48V163.768C155.52 163.152 153.224 161.64 149.36 161.64C142.808 161.64 139.504 166.288 139.504 172.504V174.8H134.184L132.896 178.72H139.504V200H146.168V178.72H155.072L156.36 174.8H146.168V171.608C146.168 168.192 147.456 166.456 150.648 166.456ZM173.411 200.392C182.147 200.392 187.691 194.568 187.691 185.496C187.691 176.368 182.147 170.544 173.411 170.544C164.675 170.544 159.131 176.368 159.131 185.496C159.131 194.568 164.675 200.392 173.411 200.392ZM173.411 196.136C168.763 196.136 166.187 192.272 166.187 185.496C166.187 178.664 168.763 174.856 173.411 174.856C178.059 174.856 180.635 178.664 180.635 185.496C180.635 192.272 178.059 196.136 173.411 196.136ZM207.722 170.544C204.138 170.544 201.45 173.176 200.666 180.064L200.834 171.384H194.17V200H200.834V187.288C200.834 178.44 203.466 175.08 205.986 175.08C208.114 175.08 209.57 176.088 209.234 183.928L215.058 180.4C215.618 173.736 212.37 170.544 207.722 170.544ZM239.859 161.976V176.816C238.515 172.728 235.883 170.544 231.235 170.544C223.955 170.544 218.747 176.48 218.747 185.496C218.747 194.456 223.955 200.392 231.235 200.392C235.883 200.392 238.515 198.208 239.859 194.12V200H246.523V161.976H239.859ZM232.859 196.136C228.603 196.136 225.859 191.992 225.859 185.496C225.859 178.944 228.603 174.856 232.859 174.856C237.115 174.856 240.027 178.944 240.027 185.496C240.027 191.992 237.115 196.136 232.859 196.136ZM265.685 170.544C258.965 170.544 253.589 173.848 253.029 178.72L258.517 181.184C258.685 176.928 261.541 174.912 265.293 174.912C268.653 174.912 270.837 176.368 270.837 180.4V181.464L263.613 182.808C256.837 184.096 253.029 186.952 253.029 191.992C253.029 197.088 257.117 200.392 263.109 200.392C267.141 200.392 269.829 197.984 270.893 194.96V200H277.557V180.176C277.557 173.96 273.133 170.544 265.685 170.544ZM264.845 196.136C261.765 196.136 260.141 194.736 260.141 191.6C260.141 188.688 261.877 186.84 265.013 186L270.949 184.432V189.08C270.949 193.168 268.373 196.136 264.845 196.136ZM300.731 170.544C296.083 170.544 293.451 172.728 292.107 176.816V161.976H285.443V200H292.107V194.12C293.451 198.208 296.083 200.392 300.731 200.392C308.011 200.392 313.219 194.456 313.219 185.496C313.219 176.48 308.011 170.544 300.731 170.544ZM299.107 196.136C294.851 196.136 291.939 191.992 291.939 185.496C291.939 178.944 294.851 174.856 299.107 174.856C303.363 174.856 306.107 178.944 306.107 185.496C306.107 191.992 303.363 196.136 299.107 196.136ZM319.954 167.856H327.402V161.976H319.954V167.856ZM320.346 200H326.954V171.384H320.346V200ZM335.757 200H342.365V161.976H335.757V200ZM350.688 167.856H358.136V161.976H350.688V167.856ZM351.08 200H357.688V171.384H351.08V200ZM379.932 195.184C376.74 195.184 376.068 193.56 376.068 190.76V175.304H384.356L385.588 171.384H376.068V164.44H369.404V171.384H364.364L363.076 175.304H369.404V192.104C369.404 196.584 371.756 200.28 378.308 200.28C381.5 200.28 384.188 199.384 385.588 198.32V192.608C384.356 194.008 382.396 195.184 379.932 195.184ZM409.68 171.44L403.128 190.928C402.68 189.584 402.176 188.184 401.616 186.784L395.568 171.384H388.792L400.216 198.376L395.736 208.4H402.12L416.288 171.44H409.68ZM446.646 170.544C439.926 170.544 434.55 173.848 433.99 178.72L439.478 181.184C439.646 176.928 442.502 174.912 446.254 174.912C449.614 174.912 451.798 176.368 451.798 180.4V181.464L444.574 182.808C437.798 184.096 433.99 186.952 433.99 191.992C433.99 197.088 438.078 200.392 444.07 200.392C448.102 200.392 450.79 197.984 451.854 194.96V200H458.518V180.176C458.518 173.96 454.094 170.544 446.646 170.544ZM445.806 196.136C442.726 196.136 441.102 194.736 441.102 191.6C441.102 188.688 442.838 186.84 445.974 186L451.91 184.432V189.08C451.91 193.168 449.334 196.136 445.806 196.136ZM481.524 170.544C476.764 170.544 474.244 172.672 473.012 176.872V171.384H466.404V200H473.012V182.92C473.068 178.16 475.084 175.136 479.396 175.136C483.092 175.136 484.996 177.04 484.996 181.184V200H491.604V180.736C491.604 174.016 487.684 170.544 481.524 170.544ZM519.202 161.976V176.816C517.858 172.728 515.226 170.544 510.578 170.544C503.298 170.544 498.09 176.48 498.09 185.496C498.09 194.456 503.298 200.392 510.578 200.392C515.226 200.392 517.858 198.208 519.202 194.12V200H525.866V161.976H519.202ZM512.202 196.136C507.946 196.136 505.202 191.992 505.202 185.496C505.202 178.944 507.946 174.856 512.202 174.856C516.458 174.856 519.37 178.944 519.37 185.496C519.37 191.992 516.458 196.136 512.202 196.136ZM563.397 170.544C558.749 170.544 556.117 172.728 554.773 176.816V171.384H548.109V208.4H554.773V194.12C556.117 198.208 558.749 200.392 563.397 200.392C570.677 200.392 575.885 194.456 575.885 185.496C575.885 176.48 570.677 170.544 563.397 170.544ZM561.773 196.136C557.517 196.136 554.605 191.992 554.605 185.496C554.605 178.944 557.517 174.856 561.773 174.856C566.029 174.856 568.773 178.944 568.773 185.496C568.773 191.992 566.029 196.136 561.773 196.136ZM595.949 170.544C592.365 170.544 589.677 173.176 588.893 180.064L589.061 171.384H582.397V200H589.061V187.288C589.061 178.44 591.693 175.08 594.213 175.08C596.341 175.08 597.797 176.088 597.461 183.928L603.285 180.4C603.845 173.736 600.597 170.544 595.949 170.544ZM620.973 200.392C629.709 200.392 635.253 194.568 635.253 185.496C635.253 176.368 629.709 170.544 620.973 170.544C612.237 170.544 606.693 176.368 606.693 185.496C606.693 194.568 612.237 200.392 620.973 200.392ZM620.973 196.136C616.325 196.136 613.749 192.272 613.749 185.496C613.749 178.664 616.325 174.856 620.973 174.856C625.621 174.856 628.197 178.664 628.197 185.496C628.197 192.272 625.621 196.136 620.973 196.136ZM644.981 172.504V174.8H639.661L638.373 178.72H644.981V200H651.645V178.72H660.549L661.837 174.8H651.645V171.608C651.645 168.192 652.933 166.456 656.125 166.456C658.813 166.456 660.773 168.024 661.893 169.48V163.768C660.997 163.152 658.701 161.64 654.837 161.64C648.285 161.64 644.981 166.288 644.981 172.504ZM666.149 161.976V167.856H673.597V161.976H666.149ZM666.541 200H673.149V171.384H666.541V200ZM695.369 195.184C692.177 195.184 691.505 193.56 691.505 190.76V175.304H699.793L701.025 171.384H691.505V164.44H684.841V171.384H679.801L678.513 175.304H684.841V192.104C684.841 196.584 687.193 200.28 693.745 200.28C696.937 200.28 699.625 199.384 701.025 198.32V192.608C699.793 194.008 697.833 195.184 695.369 195.184ZM718.005 170.544C711.285 170.544 705.909 173.848 705.349 178.72L710.837 181.184C711.005 176.928 713.861 174.912 717.613 174.912C720.973 174.912 723.157 176.368 723.157 180.4V181.464L715.933 182.808C709.157 184.096 705.349 186.952 705.349 191.992C705.349 197.088 709.437 200.392 715.429 200.392C719.461 200.392 722.149 197.984 723.213 194.96V200H729.877V180.176C729.877 173.96 725.453 170.544 718.005 170.544ZM717.165 196.136C714.085 196.136 712.461 194.736 712.461 191.6C712.461 188.688 714.197 186.84 717.333 186L723.269 184.432V189.08C723.269 193.168 720.693 196.136 717.165 196.136ZM753.052 170.544C748.404 170.544 745.772 172.728 744.428 176.816V161.976H737.764V200H744.428V194.12C745.772 198.208 748.404 200.392 753.052 200.392C760.332 200.392 765.54 194.456 765.54 185.496C765.54 176.48 760.332 170.544 753.052 170.544ZM751.428 196.136C747.172 196.136 744.26 191.992 744.26 185.496C744.26 178.944 747.172 174.856 751.428 174.856C755.684 174.856 758.428 178.944 758.428 185.496C758.428 191.992 755.684 196.136 751.428 196.136ZM772.274 167.856H779.722V161.976H772.274V167.856ZM772.666 200H779.274V171.384H772.666V200ZM788.078 200H794.686V161.976H788.078V200ZM803.009 167.856H810.457V161.976H803.009V167.856ZM803.401 200H810.009V171.384H803.401V200ZM832.252 195.184C829.06 195.184 828.388 193.56 828.388 190.76V175.304H836.676L837.908 171.384H828.388V164.44H821.724V171.384H816.684L815.396 175.304H821.724V192.104C821.724 196.584 824.076 200.28 830.628 200.28C833.82 200.28 836.508 199.384 837.908 198.32V192.608C836.676 194.008 834.716 195.184 832.252 195.184ZM862 171.44L855.448 190.928C855 189.584 854.496 188.184 853.936 186.784L847.888 171.384H841.112L852.536 198.376L848.056 208.4H854.44L868.608 171.44H862Z" fill="#035946"/>
<path d="M794.493 106.856H801.941V100.976H794.493V106.856ZM794.885 139H801.493V110.384H794.885V139ZM823.736 134.184C820.544 134.184 819.872 132.56 819.872 129.76V114.304H828.16L829.392 110.384H819.872V103.44H813.208V110.384H808.168L806.88 114.304H813.208V131.104C813.208 135.584 815.56 139.28 822.112 139.28C825.304 139.28 827.992 138.384 829.392 137.32V131.608C828.16 133.008 826.2 134.184 823.736 134.184ZM845.61 121.416C840.458 120.296 839.45 119.568 839.45 117.16C839.45 114.92 841.298 113.632 844.546 113.632C848.13 113.632 850.706 115.312 851.266 118.784L856.306 116.88C855.578 112.456 851.266 109.376 845.33 109.432C837.042 109.488 833.682 113.352 833.682 118.168C833.682 123.096 836.762 125.728 844.042 127.184C848.802 128.136 849.978 129.2 849.978 131.664C849.978 133.68 848.746 135.136 844.994 135.136C841.074 135.136 838.05 133.008 837.49 129.032L832.842 131.888C833.682 136.256 838.89 139.392 844.602 139.392C852.106 139.392 855.97 135.696 855.97 130.096C855.97 125.672 853.282 123.096 845.61 121.416Z" fill="#035946"/>
<path d="M518.312 74.936C518.312 73.8533 518.685 72.9387 519.432 72.192C520.216 71.408 521.149 71.016 522.232 71.016C523.314 71.016 524.229 71.408 524.976 72.192C525.76 72.9387 526.152 73.8533 526.152 74.936C526.152 76.0187 525.76 76.952 524.976 77.736C524.229 78.4827 523.314 78.856 522.232 78.856C521.149 78.856 520.216 78.4827 519.432 77.736C518.685 76.952 518.312 76.0187 518.312 74.936ZM517.416 88.096C517.49 87.7227 517.434 87.4053 517.248 87.144C517.098 86.8453 516.818 86.696 516.408 86.696C516.109 86.696 515.829 86.7707 515.568 86.92L509.016 91.4L506.776 88.096L513.384 83.616C514.541 82.832 515.792 82.44 517.136 82.44C518.405 82.44 519.506 82.8133 520.44 83.56C521.373 84.3067 521.84 85.464 521.84 87.032C521.84 87.6293 521.765 88.2267 521.616 88.824L517.472 106.128C517.36 106.576 517.397 106.931 517.584 107.192C517.808 107.453 518.088 107.584 518.424 107.584C518.685 107.584 518.965 107.491 519.264 107.304L525.704 102.936L527.944 106.24L521.504 110.608C520.309 111.392 519.058 111.784 517.752 111.784C516.482 111.784 515.381 111.411 514.448 110.664C513.514 109.917 513.048 108.76 513.048 107.192C513.048 106.595 513.122 105.997 513.272 105.4L517.416 88.096ZM558.761 94.312C558.873 93.7893 558.947 93.36 558.985 93.024C559.022 92.6507 559.041 92.2773 559.041 91.904C559.041 90.112 558.499 88.7867 557.417 87.928C556.371 87.032 554.897 86.584 552.993 86.584C550.454 86.584 548.382 87.4987 546.777 89.328C545.171 91.12 544.07 93.416 543.473 96.216L540.337 111H535.969L541.905 83.224H546.273L545.433 87.256H546.105C547.038 85.576 548.251 84.3627 549.745 83.616C551.275 82.832 552.881 82.44 554.561 82.44C555.755 82.44 556.894 82.6453 557.977 83.056C559.059 83.4293 559.993 83.9893 560.777 84.736C561.598 85.4827 562.233 86.3973 562.681 87.48C563.166 88.5627 563.409 89.8133 563.409 91.232C563.409 92.1653 563.297 93.1547 563.073 94.2L560.385 106.632C560.31 106.931 560.347 107.155 560.497 107.304C560.646 107.453 560.833 107.528 561.057 107.528C561.281 107.528 561.486 107.453 561.673 107.304L564.025 105.568L566.377 108.872L564.193 110.496C563.073 111.355 561.822 111.784 560.441 111.784C559.881 111.784 559.339 111.709 558.817 111.56C558.294 111.448 557.827 111.243 557.417 110.944C557.006 110.608 556.67 110.179 556.409 109.656C556.147 109.133 556.017 108.48 556.017 107.696C556.017 107.211 556.091 106.613 556.241 105.904L558.761 94.312ZM598.482 101.48C597.997 102.899 597.325 104.243 596.466 105.512C595.607 106.744 594.525 107.827 593.218 108.76C591.949 109.693 590.455 110.44 588.738 111C587.058 111.523 585.154 111.784 583.026 111.784C581.271 111.784 579.666 111.523 578.21 111C576.791 110.44 575.578 109.656 574.57 108.648C573.562 107.64 572.778 106.427 572.218 105.008C571.658 103.589 571.378 102.003 571.378 100.248C571.378 97.8213 571.789 95.5253 572.61 93.36C573.469 91.1947 574.663 89.3093 576.194 87.704C577.725 86.0613 579.573 84.7733 581.738 83.84C583.903 82.9067 586.311 82.44 588.962 82.44C590.679 82.44 592.229 82.6827 593.61 83.168C594.991 83.6533 596.167 84.344 597.138 85.24C598.109 86.0987 598.855 87.144 599.378 88.376C599.901 89.5707 600.162 90.896 600.162 92.352C600.162 92.4267 600.162 92.52 600.162 92.632C600.162 92.7067 600.143 92.8933 600.106 93.192L595.626 93.864C595.663 93.64 595.682 93.472 595.682 93.36C595.682 93.248 595.682 93.1173 595.682 92.968C595.682 92.072 595.533 91.2507 595.234 90.504C594.973 89.72 594.525 89.048 593.89 88.488C593.293 87.8907 592.509 87.424 591.538 87.088C590.605 86.752 589.485 86.584 588.178 86.584C586.423 86.584 584.799 86.9387 583.306 87.648C581.85 88.3573 580.562 89.328 579.442 90.56C578.359 91.7547 577.501 93.1547 576.866 94.76C576.269 96.3653 575.97 98.0453 575.97 99.8C575.97 102.451 576.679 104.429 578.098 105.736C579.517 107.005 581.458 107.64 583.922 107.64C585.415 107.64 586.741 107.435 587.898 107.024C589.055 106.576 590.063 106.016 590.922 105.344C591.781 104.635 592.49 103.832 593.05 102.936C593.61 102.04 594.039 101.107 594.338 100.136L598.482 101.48ZM615.075 88.04C615.187 87.592 615.131 87.256 614.907 87.032C614.683 86.7707 614.403 86.64 614.067 86.64C613.768 86.64 613.488 86.7333 613.227 86.92L608.131 90.392L605.891 87.088L610.875 83.728C612.144 82.8693 613.432 82.44 614.739 82.44C615.896 82.44 616.904 82.776 617.763 83.448C618.622 84.0827 619.107 85.128 619.219 86.584H619.891C620.974 85.0533 622.187 83.9893 623.531 83.392C624.875 82.7573 626.275 82.44 627.731 82.44C630.419 82.44 632.528 83.224 634.059 84.792C635.59 86.3227 636.355 88.3573 636.355 90.896C636.355 91.8667 636.243 92.856 636.019 93.864L631.259 94.2C631.446 93.2667 631.539 92.4827 631.539 91.848C631.539 90.056 631.035 88.7307 630.027 87.872C629.056 87.0133 627.787 86.584 626.219 86.584C625.099 86.584 624.072 86.808 623.139 87.256C622.243 87.6667 621.459 88.2453 620.787 88.992C620.115 89.7013 619.536 90.5413 619.051 91.512C618.603 92.4827 618.267 93.4907 618.043 94.536L615.411 106.968H622.019V111H604.211V106.968H611.043L615.075 88.04ZM644.772 98.456C644.697 98.7547 644.641 99.0907 644.604 99.464C644.567 99.8373 644.548 100.229 644.548 100.64C644.548 102.693 645.145 104.392 646.34 105.736C647.535 107.043 649.439 107.696 652.052 107.696C653.359 107.696 654.516 107.547 655.524 107.248C656.569 106.949 657.465 106.539 658.212 106.016C658.959 105.456 659.593 104.84 660.116 104.168C660.676 103.459 661.143 102.712 661.516 101.928L665.1 103.944C664.577 105.027 663.924 106.053 663.14 107.024C662.356 107.957 661.423 108.779 660.34 109.488C659.257 110.197 658.007 110.757 656.588 111.168C655.169 111.579 653.545 111.784 651.716 111.784C650.036 111.784 648.487 111.523 647.068 111C645.687 110.515 644.492 109.805 643.484 108.872C642.476 107.901 641.692 106.725 641.132 105.344C640.572 103.963 640.292 102.395 640.292 100.64C640.292 98.288 640.665 96.0293 641.412 93.864C642.159 91.6613 643.241 89.72 644.66 88.04C646.079 86.36 647.833 85.016 649.924 84.008C652.015 82.9627 654.385 82.44 657.036 82.44C658.903 82.44 660.527 82.7387 661.908 83.336C663.289 83.896 664.428 84.68 665.324 85.688C666.22 86.6587 666.892 87.7787 667.34 89.048C667.788 90.28 668.012 91.568 668.012 92.912C668.012 93.92 667.9 94.8907 667.676 95.824L667.06 98.456H644.772ZM656.476 86.584C655.169 86.584 653.937 86.7893 652.78 87.2C651.66 87.5733 650.633 88.1147 649.7 88.824C648.767 89.5333 647.964 90.3733 647.292 91.344C646.62 92.2773 646.097 93.304 645.724 94.424H663.532C663.644 93.8267 663.7 93.2667 663.7 92.744C663.7 90.728 663.009 89.1973 661.628 88.152C660.247 87.1067 658.529 86.584 656.476 86.584ZM692.221 106.632C691.064 108.611 689.682 109.973 688.077 110.72C686.509 111.429 684.848 111.784 683.093 111.784C681.6 111.784 680.256 111.523 679.061 111C677.866 110.44 676.858 109.675 676.037 108.704C675.216 107.733 674.581 106.576 674.133 105.232C673.685 103.851 673.461 102.339 673.461 100.696C673.461 98.344 673.797 96.0667 674.469 93.864C675.141 91.6613 676.112 89.72 677.381 88.04C678.688 86.36 680.293 85.016 682.197 84.008C684.101 82.9627 686.304 82.44 688.805 82.44C690.709 82.44 692.333 82.888 693.677 83.784C695.021 84.6427 695.898 85.912 696.309 87.592H696.981L697.877 83.224H702.245L697.317 106.296C697.242 106.632 697.28 106.893 697.429 107.08C697.578 107.229 697.784 107.304 698.045 107.304C698.306 107.304 698.568 107.211 698.829 107.024L700.845 105.568L703.197 108.872L700.677 110.776C700.266 111.075 699.744 111.317 699.109 111.504C698.512 111.691 697.896 111.784 697.261 111.784C696.701 111.784 696.16 111.709 695.637 111.56C695.114 111.411 694.629 111.187 694.181 110.888C693.77 110.552 693.434 110.141 693.173 109.656C692.912 109.133 692.781 108.499 692.781 107.752C692.781 107.565 692.781 107.379 692.781 107.192C692.818 107.005 692.856 106.819 692.893 106.632H692.221ZM684.437 107.64C685.93 107.64 687.33 107.304 688.637 106.632C689.981 105.923 691.138 104.971 692.109 103.776C693.117 102.581 693.901 101.181 694.461 99.576C695.021 97.9333 695.301 96.16 695.301 94.256C695.301 91.9413 694.778 90.0933 693.733 88.712C692.688 87.2933 691.064 86.584 688.861 86.584C687.106 86.584 685.557 86.9573 684.213 87.704C682.906 88.4507 681.786 89.4587 680.853 90.728C679.92 91.96 679.21 93.3973 678.725 95.04C678.277 96.6827 678.053 98.3813 678.053 100.136C678.053 102.6 678.594 104.467 679.677 105.736C680.76 107.005 682.346 107.64 684.437 107.64ZM725.894 86.36C725.147 86.36 724.363 86.4533 723.542 86.64C722.758 86.8267 722.03 87.1067 721.358 87.48C720.723 87.8533 720.201 88.3387 719.79 88.936C719.379 89.496 719.174 90.168 719.174 90.952C719.174 92.1467 719.697 93.0427 720.742 93.64C721.825 94.2373 723.673 94.6293 726.286 94.816C728.974 95.0027 731.046 95.6747 732.502 96.832C733.995 97.9893 734.742 99.688 734.742 101.928C734.742 103.496 734.406 104.896 733.734 106.128C733.099 107.36 732.203 108.405 731.046 109.264C729.889 110.085 728.507 110.701 726.902 111.112C725.334 111.56 723.598 111.784 721.694 111.784C719.79 111.784 718.166 111.523 716.822 111C715.515 110.515 714.433 109.861 713.574 109.04C712.715 108.181 712.081 107.229 711.67 106.184C711.297 105.101 711.11 104 711.11 102.88C711.11 102.693 711.11 102.507 711.11 102.32C711.11 102.096 711.129 101.891 711.166 101.704L715.534 101.144C715.497 101.443 715.478 101.629 715.478 101.704C715.478 101.779 715.478 101.891 715.478 102.04C715.478 102.861 715.59 103.627 715.814 104.336C716.075 105.008 716.486 105.605 717.046 106.128C717.606 106.613 718.334 107.005 719.23 107.304C720.126 107.603 721.227 107.752 722.534 107.752C723.393 107.752 724.27 107.659 725.166 107.472C726.099 107.248 726.939 106.931 727.686 106.52C728.433 106.072 729.049 105.531 729.534 104.896C730.019 104.224 730.262 103.421 730.262 102.488C730.262 101.032 729.665 100.061 728.47 99.576C727.313 99.0533 725.577 98.6987 723.262 98.512C720.611 98.3253 718.521 97.6907 716.99 96.608C715.497 95.5253 714.75 93.8267 714.75 91.512C714.75 90.2053 715.03 88.992 715.59 87.872C716.15 86.752 716.934 85.8 717.942 85.016C718.987 84.1947 720.219 83.56 721.638 83.112C723.094 82.664 724.699 82.44 726.454 82.44C728.171 82.44 729.646 82.6827 730.878 83.168C732.147 83.616 733.174 84.2133 733.958 84.96C734.779 85.7067 735.377 86.5653 735.75 87.536C736.161 88.4693 736.366 89.44 736.366 90.448V91.064L732.054 91.68V91.456C732.054 91.3813 732.054 91.3253 732.054 91.288C732.091 91.2133 732.11 91.1387 732.11 91.064C732.11 89.6453 731.569 88.5067 730.486 87.648C729.441 86.7893 727.91 86.36 725.894 86.36ZM747.639 98.456C747.565 98.7547 747.509 99.0907 747.471 99.464C747.434 99.8373 747.415 100.229 747.415 100.64C747.415 102.693 748.013 104.392 749.207 105.736C750.402 107.043 752.306 107.696 754.919 107.696C756.226 107.696 757.383 107.547 758.391 107.248C759.437 106.949 760.333 106.539 761.079 106.016C761.826 105.456 762.461 104.84 762.983 104.168C763.543 103.459 764.01 102.712 764.383 101.928L767.967 103.944C767.445 105.027 766.791 106.053 766.007 107.024C765.223 107.957 764.29 108.779 763.207 109.488C762.125 110.197 760.874 110.757 759.455 111.168C758.037 111.579 756.413 111.784 754.583 111.784C752.903 111.784 751.354 111.523 749.935 111C748.554 110.515 747.359 109.805 746.351 108.872C745.343 107.901 744.559 106.725 743.999 105.344C743.439 103.963 743.159 102.395 743.159 100.64C743.159 98.288 743.533 96.0293 744.279 93.864C745.026 91.6613 746.109 89.72 747.527 88.04C748.946 86.36 750.701 85.016 752.791 84.008C754.882 82.9627 757.253 82.44 759.903 82.44C761.77 82.44 763.394 82.7387 764.775 83.336C766.157 83.896 767.295 84.68 768.191 85.688C769.087 86.6587 769.759 87.7787 770.207 89.048C770.655 90.28 770.879 91.568 770.879 92.912C770.879 93.92 770.767 94.8907 770.543 95.824L769.927 98.456H747.639ZM759.343 86.584C758.037 86.584 756.805 86.7893 755.647 87.2C754.527 87.5733 753.501 88.1147 752.567 88.824C751.634 89.5333 750.831 90.3733 750.159 91.344C749.487 92.2773 748.965 93.304 748.591 94.424H766.399C766.511 93.8267 766.567 93.2667 766.567 92.744C766.567 90.728 765.877 89.1973 764.495 88.152C763.114 87.1067 761.397 86.584 759.343 86.584Z" fill="#035946"/>
<path d="M93.3289 106.856H100.777V100.976H93.3289V106.856ZM93.7209 139H100.329V110.384H93.7209V139ZM124.196 109.544C119.436 109.544 116.916 111.672 115.684 115.872V110.384H109.076V139H115.684V121.92C115.74 117.16 117.756 114.136 122.068 114.136C125.764 114.136 127.668 116.04 127.668 120.184V139H134.276V119.736C134.276 113.016 130.356 109.544 124.196 109.544ZM159.262 110.384L153.494 128.08C152.822 130.152 152.318 132.168 151.982 134.24C151.59 132.168 151.03 130.152 150.358 128.08L144.534 110.384H137.982L148.118 139H155.678L165.814 110.384H159.262ZM190.214 128.976C189.374 133.848 186.182 135.136 183.214 135.136C178.454 135.136 175.486 131.496 175.206 125.336H195.03V125C195.198 115.76 190.438 109.544 182.094 109.544C173.806 109.544 168.318 115.48 168.318 124.496C168.318 133.288 174.198 139.392 182.654 139.392C189.094 139.392 193.126 137.096 195.422 132.224L190.214 128.976ZM182.094 113.856C186.07 113.856 187.582 116.32 187.862 121.976H175.318C175.822 116.88 177.95 113.856 182.094 113.856ZM212.696 121.416C207.544 120.296 206.536 119.568 206.536 117.16C206.536 114.92 208.384 113.632 211.632 113.632C215.216 113.632 217.792 115.312 218.352 118.784L223.392 116.88C222.664 112.456 218.352 109.376 212.416 109.432C204.128 109.488 200.768 113.352 200.768 118.168C200.768 123.096 203.848 125.728 211.128 127.184C215.888 128.136 217.064 129.2 217.064 131.664C217.064 133.68 215.832 135.136 212.08 135.136C208.16 135.136 205.136 133.008 204.576 129.032L199.928 131.888C200.768 136.256 205.976 139.392 211.688 139.392C219.192 139.392 223.056 135.696 223.056 130.096C223.056 125.672 220.368 123.096 212.696 121.416ZM243.213 134.184C240.021 134.184 239.349 132.56 239.349 129.76V114.304H247.637L248.869 110.384H239.349V103.44H232.685V110.384H227.645L226.357 114.304H232.685V131.104C232.685 135.584 235.037 139.28 241.589 139.28C244.781 139.28 247.469 138.384 248.869 137.32V131.608C247.637 133.008 245.677 134.184 243.213 134.184ZM286.009 109.544C281.809 109.544 279.233 111.616 277.833 115.816C276.601 111.672 273.297 109.544 269.153 109.544C265.065 109.544 262.713 111.504 261.537 115.48V110.384H254.873V139H261.537V121.92C261.593 117.16 263.553 114.136 267.025 114.136C269.825 114.136 271.729 116.04 271.729 120.184V139H278.393V121.92C278.449 117.16 280.409 114.136 283.881 114.136C286.681 114.136 288.585 116.04 288.585 120.184V139H295.249V119.736C295.249 113.016 291.329 109.544 286.009 109.544ZM323.378 128.976C322.538 133.848 319.346 135.136 316.378 135.136C311.618 135.136 308.65 131.496 308.37 125.336H328.194V125C328.362 115.76 323.602 109.544 315.258 109.544C306.97 109.544 301.482 115.48 301.482 124.496C301.482 133.288 307.362 139.392 315.818 139.392C322.258 139.392 326.29 137.096 328.586 132.224L323.378 128.976ZM315.258 113.856C319.234 113.856 320.746 116.32 321.026 121.976H308.482C308.986 116.88 311.114 113.856 315.258 113.856ZM350.11 109.544C345.35 109.544 342.83 111.672 341.598 115.872V110.384H334.99V139H341.598V121.92C341.654 117.16 343.67 114.136 347.982 114.136C351.678 114.136 353.582 116.04 353.582 120.184V139H360.19V119.736C360.19 113.016 356.27 109.544 350.11 109.544ZM380.916 134.184C377.724 134.184 377.052 132.56 377.052 129.76V114.304H385.34L386.572 110.384H377.052V103.44H370.388V110.384H365.348L364.06 114.304H370.388V131.104C370.388 135.584 372.74 139.28 379.292 139.28C382.484 139.28 385.172 138.384 386.572 137.32V131.608C385.34 133.008 383.38 134.184 380.916 134.184ZM417.552 109.544C410.832 109.544 405.456 112.848 404.896 117.72L410.384 120.184C410.552 115.928 413.408 113.912 417.16 113.912C420.52 113.912 422.704 115.368 422.704 119.4V120.464L415.48 121.808C408.704 123.096 404.896 125.952 404.896 130.992C404.896 136.088 408.984 139.392 414.976 139.392C419.008 139.392 421.696 136.984 422.76 133.96V139H429.424V119.176C429.424 112.96 425 109.544 417.552 109.544ZM416.712 135.136C413.632 135.136 412.008 133.736 412.008 130.6C412.008 127.688 413.744 125.84 416.88 125L422.816 123.432V128.08C422.816 132.168 420.24 135.136 416.712 135.136ZM452.431 109.544C447.671 109.544 445.151 111.672 443.919 115.872V110.384H437.311V139H443.919V121.92C443.975 117.16 445.991 114.136 450.303 114.136C453.999 114.136 455.903 116.04 455.903 120.184V139H462.511V119.736C462.511 113.016 458.591 109.544 452.431 109.544ZM490.109 100.976V115.816C488.765 111.728 486.133 109.544 481.485 109.544C474.205 109.544 468.997 115.48 468.997 124.496C468.997 133.456 474.205 139.392 481.485 139.392C486.133 139.392 488.765 137.208 490.109 133.12V139H496.773V100.976H490.109ZM483.109 135.136C478.853 135.136 476.109 130.992 476.109 124.496C476.109 117.944 478.853 113.856 483.109 113.856C487.365 113.856 490.277 117.944 490.277 124.496C490.277 130.992 487.365 135.136 483.109 135.136Z" fill="#035946"/>
<path d="M344.881 48.184C341.689 48.184 341.017 46.56 341.017 43.76V28.304H349.305L350.537 24.384H341.017V17.44H334.353V24.384H329.313L328.025 28.304H334.353V45.104C334.353 49.584 336.705 53.28 343.257 53.28C346.449 53.28 349.137 52.384 350.537 51.32V45.608C349.305 47.008 347.345 48.184 344.881 48.184ZM371.661 23.488C367.013 23.488 364.493 25.56 363.205 29.648V14.976H356.541V53H363.205V35.92C363.261 31.16 365.221 28.136 369.533 28.136C373.173 28.136 375.077 30.04 375.077 34.184V53H381.741V33.736C381.741 27.016 377.821 23.488 371.661 23.488ZM410.335 42.976C409.495 47.848 406.303 49.136 403.335 49.136C398.575 49.136 395.607 45.496 395.327 39.336H415.151V39C415.319 29.76 410.559 23.544 402.215 23.544C393.927 23.544 388.439 29.48 388.439 38.496C388.439 47.288 394.319 53.392 402.775 53.392C409.215 53.392 413.247 51.096 415.543 46.224L410.335 42.976ZM402.215 27.856C406.191 27.856 407.703 30.32 407.983 35.976H395.439C395.943 30.88 398.071 27.856 402.215 27.856ZM449.499 23.544C445.915 23.544 443.227 26.176 442.443 33.064L442.611 24.384H435.947V53H442.611V40.288C442.611 31.44 445.243 28.08 447.763 28.08C449.891 28.08 451.347 29.088 451.011 36.928L456.835 33.4C457.395 26.736 454.147 23.544 449.499 23.544ZM462.583 20.856H470.031V14.976H462.583V20.856ZM462.975 53H469.583V24.384H462.975V53ZM489.418 35.416C484.266 34.296 483.258 33.568 483.258 31.16C483.258 28.92 485.106 27.632 488.354 27.632C491.938 27.632 494.514 29.312 495.074 32.784L500.114 30.88C499.386 26.456 495.074 23.376 489.138 23.432C480.85 23.488 477.49 27.352 477.49 32.168C477.49 37.096 480.57 39.728 487.85 41.184C492.61 42.136 493.786 43.2 493.786 45.664C493.786 47.68 492.554 49.136 488.802 49.136C484.882 49.136 481.858 47.008 481.298 43.032L476.65 45.888C477.49 50.256 482.698 53.392 488.41 53.392C495.914 53.392 499.778 49.696 499.778 44.096C499.778 39.672 497.09 37.096 489.418 35.416ZM532.028 53L519.764 36.312L531.3 24.384H525.308L513.268 37.096V14.976H506.604V53H513.268V37.488L523.964 53H532.028ZM545.91 35.416C540.758 34.296 539.75 33.568 539.75 31.16C539.75 28.92 541.598 27.632 544.846 27.632C548.43 27.632 551.006 29.312 551.566 32.784L556.606 30.88C555.878 26.456 551.566 23.376 545.63 23.432C537.342 23.488 533.982 27.352 533.982 32.168C533.982 37.096 537.062 39.728 544.342 41.184C549.102 42.136 550.278 43.2 550.278 45.664C550.278 47.68 549.046 49.136 545.294 49.136C541.374 49.136 538.35 47.008 537.79 43.032L533.142 45.888C533.982 50.256 539.19 53.392 544.902 53.392C552.406 53.392 556.27 49.696 556.27 44.096C556.27 39.672 553.582 37.096 545.91 35.416ZM591.208 20.856H598.656V14.976H591.208V20.856ZM591.6 53H598.208V24.384H591.6V53ZM622.075 23.544C617.315 23.544 614.795 25.672 613.563 29.872V24.384H606.955V53H613.563V35.92C613.619 31.16 615.635 28.136 619.947 28.136C623.643 28.136 625.547 30.04 625.547 34.184V53H632.155V33.736C632.155 27.016 628.235 23.544 622.075 23.544ZM667.593 23.544C664.009 23.544 661.321 26.176 660.537 33.064L660.705 24.384H654.041V53H660.705V40.288C660.705 31.44 663.337 28.08 665.857 28.08C667.985 28.08 669.441 29.088 669.105 36.928L674.929 33.4C675.489 26.736 672.241 23.544 667.593 23.544ZM700.234 42.976C699.394 47.848 696.202 49.136 693.234 49.136C688.474 49.136 685.506 45.496 685.226 39.336H705.05V39C705.218 29.76 700.458 23.544 692.114 23.544C683.826 23.544 678.338 29.48 678.338 38.496C678.338 47.288 684.218 53.392 692.674 53.392C699.114 53.392 703.146 51.096 705.442 46.224L700.234 42.976ZM692.114 27.856C696.09 27.856 697.602 30.32 697.882 35.976H685.338C685.842 30.88 687.97 27.856 692.114 27.856ZM722.822 23.544C716.102 23.544 710.726 26.848 710.166 31.72L715.654 34.184C715.822 29.928 718.678 27.912 722.43 27.912C725.79 27.912 727.974 29.368 727.974 33.4V34.464L720.75 35.808C713.974 37.096 710.166 39.952 710.166 44.992C710.166 50.088 714.254 53.392 720.246 53.392C724.278 53.392 726.966 50.984 728.03 47.96V53H734.694V33.176C734.694 26.96 730.27 23.544 722.822 23.544ZM721.982 49.136C718.902 49.136 717.278 47.736 717.278 44.6C717.278 41.688 719.014 39.84 722.15 39L728.086 37.432V42.08C728.086 46.168 725.51 49.136 721.982 49.136ZM742.636 53H749.244V14.976H742.636V53ZM791.671 42.976C790.831 47.848 787.639 49.136 784.671 49.136C779.911 49.136 776.943 45.496 776.663 39.336H796.487V39C796.655 29.76 791.895 23.544 783.551 23.544C775.263 23.544 769.775 29.48 769.775 38.496C769.775 47.288 775.655 53.392 784.111 53.392C790.551 53.392 794.583 51.096 796.879 46.224L791.671 42.976ZM783.551 27.856C787.527 27.856 789.039 30.32 789.319 35.976H776.775C777.279 30.88 779.407 27.856 783.551 27.856ZM814.153 35.416C809.001 34.296 807.993 33.568 807.993 31.16C807.993 28.92 809.841 27.632 813.089 27.632C816.673 27.632 819.249 29.312 819.809 32.784L824.849 30.88C824.121 26.456 819.809 23.376 813.873 23.432C805.585 23.488 802.225 27.352 802.225 32.168C802.225 37.096 805.305 39.728 812.585 41.184C817.345 42.136 818.521 43.2 818.521 45.664C818.521 47.68 817.289 49.136 813.537 49.136C809.617 49.136 806.593 47.008 806.033 43.032L801.385 45.888C802.225 50.256 807.433 53.392 813.145 53.392C820.649 53.392 824.513 49.696 824.513 44.096C824.513 39.672 821.825 37.096 814.153 35.416ZM844.67 48.184C841.478 48.184 840.806 46.56 840.806 43.76V28.304H849.094L850.326 24.384H840.806V17.44H834.142V24.384H829.102L827.814 28.304H834.142V45.104C834.142 49.584 836.494 53.28 843.046 53.28C846.238 53.28 848.926 52.384 850.326 51.32V45.608C849.094 47.008 847.134 48.184 844.67 48.184ZM867.306 23.544C860.586 23.544 855.21 26.848 854.65 31.72L860.138 34.184C860.306 29.928 863.162 27.912 866.914 27.912C870.274 27.912 872.458 29.368 872.458 33.4V34.464L865.234 35.808C858.458 37.096 854.65 39.952 854.65 44.992C854.65 50.088 858.738 53.392 864.73 53.392C868.762 53.392 871.45 50.984 872.514 47.96V53H879.178V33.176C879.178 26.96 874.754 23.544 867.306 23.544ZM866.466 49.136C863.386 49.136 861.762 47.736 861.762 44.6C861.762 41.688 863.498 39.84 866.634 39L872.57 37.432V42.08C872.57 46.168 869.994 49.136 866.466 49.136ZM899.74 48.184C896.548 48.184 895.876 46.56 895.876 43.76V28.304H904.164L905.396 24.384H895.876V17.44H889.212V24.384H884.172L882.884 28.304H889.212V45.104C889.212 49.584 891.564 53.28 898.116 53.28C901.308 53.28 903.996 52.384 905.396 51.32V45.608C904.164 47.008 902.204 48.184 899.74 48.184ZM931.179 42.976C930.339 47.848 927.147 49.136 924.179 49.136C919.419 49.136 916.451 45.496 916.171 39.336H935.995V39C936.163 29.76 931.403 23.544 923.059 23.544C914.771 23.544 909.283 29.48 909.283 38.496C909.283 47.288 915.163 53.392 923.619 53.392C930.059 53.392 934.091 51.096 936.387 46.224L931.179 42.976ZM923.059 27.856C927.035 27.856 928.547 30.32 928.827 35.976H916.283C916.787 30.88 918.915 27.856 923.059 27.856Z" fill="#035946"/>
<path d="M55.3367 14.976L48.8407 40.568C48.1687 43.256 47.6087 46 47.2167 48.688C46.9367 46 46.5447 43.312 45.9847 40.624L40.3847 14.976H32.0407L26.3847 40.792C25.8247 43.424 25.4887 46.056 25.2087 48.632C24.8167 46 24.3127 43.368 23.6407 40.736L17.0887 14.976H9.69672L20.2807 53H29.8567L34.7847 31.16C35.5127 27.408 35.8487 23.6 36.2407 19.792C36.6327 23.544 36.9687 27.296 37.6407 31.048L42.5687 53H52.1447L62.7287 14.976H55.3367ZM85.3392 42.976C84.4992 47.848 81.3072 49.136 78.3392 49.136C73.5792 49.136 70.6112 45.496 70.3312 39.336H90.1552V39C90.3232 29.76 85.5632 23.544 77.2192 23.544C68.9312 23.544 63.4432 29.48 63.4432 38.496C63.4432 47.288 69.3232 53.392 77.7792 53.392C84.2192 53.392 88.2512 51.096 90.5472 46.224L85.3392 42.976ZM77.2192 27.856C81.1952 27.856 82.7072 30.32 82.9872 35.976H70.4432C70.9472 30.88 73.0752 27.856 77.2192 27.856Z" fill="#035946"/>
<path d="M112.997 63.04C113.109 62.592 113.053 62.256 112.829 62.032C112.605 61.7707 112.325 61.64 111.989 61.64C111.69 61.64 111.41 61.7333 111.149 61.92L106.053 65.392L103.813 62.088L108.797 58.728C110.066 57.8693 111.354 57.44 112.661 57.44C113.818 57.44 114.826 57.776 115.685 58.448C116.543 59.0827 117.029 60.128 117.141 61.584H117.813C118.895 60.0533 120.109 58.9893 121.453 58.392C122.797 57.7573 124.197 57.44 125.653 57.44C128.341 57.44 130.45 58.224 131.981 59.792C133.511 61.3227 134.277 63.3573 134.277 65.896C134.277 66.8667 134.165 67.856 133.941 68.864L129.181 69.2C129.367 68.2667 129.461 67.4827 129.461 66.848C129.461 65.056 128.957 63.7307 127.949 62.872C126.978 62.0133 125.709 61.584 124.141 61.584C123.021 61.584 121.994 61.808 121.061 62.256C120.165 62.6667 119.381 63.2453 118.709 63.992C118.037 64.7013 117.458 65.5413 116.973 66.512C116.525 67.4827 116.189 68.4907 115.965 69.536L113.333 81.968H119.941V86H102.133V81.968H108.965L112.997 63.04ZM142.694 73.456C142.619 73.7547 142.563 74.0907 142.526 74.464C142.489 74.8373 142.47 75.2293 142.47 75.64C142.47 77.6933 143.067 79.392 144.262 80.736C145.457 82.0427 147.361 82.696 149.974 82.696C151.281 82.696 152.438 82.5467 153.446 82.248C154.491 81.9493 155.387 81.5387 156.134 81.016C156.881 80.456 157.515 79.84 158.038 79.168C158.598 78.4587 159.065 77.712 159.438 76.928L163.022 78.944C162.499 80.0267 161.846 81.0533 161.062 82.024C160.278 82.9573 159.345 83.7787 158.262 84.488C157.179 85.1973 155.929 85.7573 154.51 86.168C153.091 86.5787 151.467 86.784 149.638 86.784C147.958 86.784 146.409 86.5227 144.99 86C143.609 85.5147 142.414 84.8053 141.406 83.872C140.398 82.9013 139.614 81.7253 139.054 80.344C138.494 78.9627 138.214 77.3947 138.214 75.64C138.214 73.288 138.587 71.0293 139.334 68.864C140.081 66.6613 141.163 64.72 142.582 63.04C144.001 61.36 145.755 60.016 147.846 59.008C149.937 57.9627 152.307 57.44 154.958 57.44C156.825 57.44 158.449 57.7387 159.83 58.336C161.211 58.896 162.35 59.68 163.246 60.688C164.142 61.6587 164.814 62.7787 165.262 64.048C165.71 65.28 165.934 66.568 165.934 67.912C165.934 68.92 165.822 69.8907 165.598 70.824L164.982 73.456H142.694ZM154.398 61.584C153.091 61.584 151.859 61.7893 150.702 62.2C149.582 62.5733 148.555 63.1147 147.622 63.824C146.689 64.5333 145.886 65.3733 145.214 66.344C144.542 67.2773 144.019 68.304 143.646 69.424H161.454C161.566 68.8267 161.622 68.2667 161.622 67.744C161.622 65.728 160.931 64.1973 159.55 63.152C158.169 62.1067 156.451 61.584 154.398 61.584ZM190.367 81.632C189.172 83.6107 187.754 84.9733 186.111 85.72C184.468 86.4293 182.732 86.784 180.903 86.784C179.41 86.784 178.047 86.5227 176.815 86C175.583 85.4773 174.538 84.7493 173.679 83.816C172.82 82.8453 172.148 81.688 171.663 80.344C171.178 78.9627 170.935 77.4507 170.935 75.808C170.935 73.4933 171.29 71.2347 171.999 69.032C172.708 66.8293 173.735 64.8693 175.079 63.152C176.423 61.4347 178.066 60.0533 180.007 59.008C181.986 57.9627 184.244 57.44 186.783 57.44C188.762 57.44 190.404 57.8507 191.711 58.672C193.055 59.4933 193.97 60.8 194.455 62.592H195.127L198.599 46.016H202.967L195.463 81.296C195.351 81.968 195.594 82.304 196.191 82.304C196.415 82.304 196.658 82.2107 196.919 82.024L198.935 80.568L201.343 83.872L198.823 85.776C198.412 86.0747 197.908 86.3173 197.311 86.504C196.751 86.6907 196.116 86.784 195.407 86.784C194.847 86.784 194.306 86.7093 193.783 86.56C193.26 86.4107 192.775 86.1867 192.327 85.888C191.916 85.552 191.58 85.1413 191.319 84.656C191.058 84.1333 190.927 83.4987 190.927 82.752C190.927 82.5653 190.927 82.3787 190.927 82.192C190.964 82.0053 191.002 81.8187 191.039 81.632H190.367ZM182.247 82.64C183.74 82.64 185.159 82.304 186.503 81.632C187.884 80.9227 189.079 79.9707 190.087 78.776C191.132 77.5813 191.954 76.1813 192.551 74.576C193.148 72.9333 193.447 71.16 193.447 69.256C193.447 66.9413 192.868 65.0933 191.711 63.712C190.554 62.2933 188.874 61.584 186.671 61.584C184.916 61.584 183.348 61.976 181.967 62.76C180.623 63.5067 179.466 64.5147 178.495 65.784C177.524 67.016 176.778 68.4533 176.255 70.096C175.77 71.7387 175.527 73.4373 175.527 75.192C175.527 80.1573 177.767 82.64 182.247 82.64ZM225.44 81.296H224.768C223.76 83.088 222.472 84.4507 220.904 85.384C219.336 86.3173 217.432 86.784 215.192 86.784C212.728 86.784 210.731 86.0933 209.2 84.712C207.669 83.2933 206.904 81.2027 206.904 78.44C206.904 77.88 206.923 77.32 206.96 76.76C207.035 76.1627 207.165 75.5093 207.352 74.8L211.048 58.224H215.416L211.832 74.24C211.571 75.3973 211.44 76.48 211.44 77.488C211.44 80.9227 213.288 82.64 216.984 82.64C219.56 82.64 221.744 81.744 223.536 79.952C225.365 78.1227 226.616 75.696 227.288 72.672L230.536 58.224H234.904L229.808 81.296C229.733 81.5947 229.771 81.8373 229.92 82.024C230.069 82.2107 230.275 82.304 230.536 82.304C230.797 82.304 231.059 82.2107 231.32 82.024L233.728 80.288L236.08 83.536L233.28 85.664C232.832 86.0373 232.272 86.3173 231.6 86.504C230.965 86.6907 230.312 86.784 229.64 86.784C229.08 86.784 228.539 86.7093 228.016 86.56C227.493 86.4107 227.027 86.168 226.616 85.832C226.205 85.496 225.869 85.0853 225.608 84.6C225.384 84.0773 225.272 83.4613 225.272 82.752C225.272 82.5653 225.272 82.3787 225.272 82.192C225.309 82.0053 225.347 81.8187 225.384 81.632L225.44 81.296ZM267.849 76.48C267.364 77.8987 266.692 79.2427 265.833 80.512C264.974 81.744 263.892 82.8267 262.585 83.76C261.316 84.6933 259.822 85.44 258.105 86C256.425 86.5227 254.521 86.784 252.393 86.784C250.638 86.784 249.033 86.5227 247.577 86C246.158 85.44 244.945 84.656 243.937 83.648C242.929 82.64 242.145 81.4267 241.585 80.008C241.025 78.5893 240.745 77.0027 240.745 75.248C240.745 72.8213 241.156 70.5253 241.977 68.36C242.836 66.1947 244.03 64.3093 245.561 62.704C247.092 61.0613 248.94 59.7733 251.105 58.84C253.27 57.9067 255.678 57.44 258.329 57.44C260.046 57.44 261.596 57.6827 262.977 58.168C264.358 58.6533 265.534 59.344 266.505 60.24C267.476 61.0987 268.222 62.144 268.745 63.376C269.268 64.5707 269.529 65.896 269.529 67.352C269.529 67.4267 269.529 67.52 269.529 67.632C269.529 67.7067 269.51 67.8933 269.473 68.192L264.993 68.864C265.03 68.64 265.049 68.472 265.049 68.36C265.049 68.248 265.049 68.1173 265.049 67.968C265.049 67.072 264.9 66.2507 264.601 65.504C264.34 64.72 263.892 64.048 263.257 63.488C262.66 62.8907 261.876 62.424 260.905 62.088C259.972 61.752 258.852 61.584 257.545 61.584C255.79 61.584 254.166 61.9387 252.673 62.648C251.217 63.3573 249.929 64.328 248.809 65.56C247.726 66.7547 246.868 68.1547 246.233 69.76C245.636 71.3653 245.337 73.0453 245.337 74.8C245.337 77.4507 246.046 79.4293 247.465 80.736C248.884 82.0053 250.825 82.64 253.289 82.64C254.782 82.64 256.108 82.4347 257.265 82.024C258.422 81.576 259.43 81.016 260.289 80.344C261.148 79.6347 261.857 78.832 262.417 77.936C262.977 77.04 263.406 76.1067 263.705 75.136L267.849 76.48ZM279.85 73.456C279.775 73.7547 279.719 74.0907 279.682 74.464C279.645 74.8373 279.626 75.2293 279.626 75.64C279.626 77.6933 280.223 79.392 281.418 80.736C282.613 82.0427 284.517 82.696 287.13 82.696C288.437 82.696 289.594 82.5467 290.602 82.248C291.647 81.9493 292.543 81.5387 293.29 81.016C294.037 80.456 294.671 79.84 295.194 79.168C295.754 78.4587 296.221 77.712 296.594 76.928L300.178 78.944C299.655 80.0267 299.002 81.0533 298.218 82.024C297.434 82.9573 296.501 83.7787 295.418 84.488C294.335 85.1973 293.085 85.7573 291.666 86.168C290.247 86.5787 288.623 86.784 286.794 86.784C285.114 86.784 283.565 86.5227 282.146 86C280.765 85.5147 279.57 84.8053 278.562 83.872C277.554 82.9013 276.77 81.7253 276.21 80.344C275.65 78.9627 275.37 77.3947 275.37 75.64C275.37 73.288 275.743 71.0293 276.49 68.864C277.237 66.6613 278.319 64.72 279.738 63.04C281.157 61.36 282.911 60.016 285.002 59.008C287.093 57.9627 289.463 57.44 292.114 57.44C293.981 57.44 295.605 57.7387 296.986 58.336C298.367 58.896 299.506 59.68 300.402 60.688C301.298 61.6587 301.97 62.7787 302.418 64.048C302.866 65.28 303.09 66.568 303.09 67.912C303.09 68.92 302.978 69.8907 302.754 70.824L302.138 73.456H279.85ZM291.554 61.584C290.247 61.584 289.015 61.7893 287.858 62.2C286.738 62.5733 285.711 63.1147 284.778 63.824C283.845 64.5333 283.042 65.3733 282.37 66.344C281.698 67.2773 281.175 68.304 280.802 69.424H298.61C298.722 68.8267 298.778 68.2667 298.778 67.744C298.778 65.728 298.087 64.1973 296.706 63.152C295.325 62.1067 293.607 61.584 291.554 61.584Z" fill="#035946"/>
</svg>
