<svg width="209" height="190" viewBox="0 0 209 190" fill="none" xmlns="http://www.w3.org/2000/svg">
<path d="M57.111 148.561C64.5062 136.318 84.8012 127.505 108.726 127.505C132.65 127.505 152.905 136.318 160.332 148.561H163.321V158.752C163.321 176.035 138.876 190 108.726 190C78.5757 190 54.1224 175.995 54.1224 158.752V148.561H57.111Z" fill="#5D8F76"/>
<path d="M108.726 179.857C78.5735 179.857 54.1304 165.845 54.1304 148.561C54.1304 131.277 78.5735 117.265 108.726 117.265C138.878 117.265 163.321 131.277 163.321 148.561C163.321 165.845 138.878 179.857 108.726 179.857Z" fill="#CFE8CC"/>
<path d="M108.726 172.261C85.8884 172.261 67.3749 161.65 67.3749 148.561C67.3749 135.472 85.8884 124.861 108.726 124.861C131.563 124.861 150.077 135.472 150.077 148.561C150.077 161.65 131.563 172.261 108.726 172.261Z" fill="#F5F5F5"/>
<path d="M87.365 159.618L88.9674 158.696C86.732 157.054 85.6343 155.347 85.6504 153.576V149.482L86.7 150.596C87.8527 149.065 89.3303 147.809 91.0266 146.918C92.9969 145.775 95.1486 144.978 97.3882 144.563C99.548 144.15 101.758 144.067 103.942 144.314C106.638 144.671 109.313 145.174 111.954 145.821C113.986 146.358 116.061 146.712 118.156 146.878C119.361 146.877 120.543 146.55 121.577 145.933C122.021 145.736 122.412 145.439 122.721 145.065C123.03 144.691 123.247 144.25 123.356 143.777C123.468 142.976 122.987 142.247 121.922 141.638C119.785 140.404 116.513 140.474 112.107 141.847L109.367 137.4V133.209L111.546 136.735C116.861 135.298 121.641 135.506 125.888 137.36L129.718 135.148L125.888 133.161L133.676 133.041V137.24L129.669 139.571C129.99 139.827 130.278 140.092 130.543 140.372L132.346 139.651V143.842C132.355 144.348 132.265 144.852 132.081 145.324C131.336 147.255 129.677 148.961 127.13 150.436C125.201 151.559 123.096 152.347 120.904 152.767C118.838 153.187 116.721 153.297 114.623 153.096C112.131 152.789 109.663 152.315 107.235 151.678C105 151.069 102.716 150.656 100.409 150.444C99.0992 150.417 97.8083 150.758 96.6832 151.429C96.2091 151.643 95.7886 151.96 95.4518 152.356C95.1151 152.752 94.8707 153.218 94.7362 153.721C94.5973 154.575 95.241 155.417 96.6671 156.244C99.3673 157.807 102.572 157.927 106.282 156.637L105.737 156.261H107.291C107.46 156.188 107.636 156.14 107.812 156.06L108.004 156.261H111.906V160.459C104.663 163.279 98.2696 163.429 92.7251 160.908L87.5252 163.904L83.7354 161.717V157.518L87.365 159.618Z" fill="#72AA8B"/>
<path d="M133.676 133.041L129.886 130.854L125.88 133.186C121.072 131.081 115.565 131.097 109.358 133.234L112.099 137.672C116.516 136.305 119.788 136.236 121.914 137.464C122.979 138.081 123.46 138.794 123.348 139.603C123.239 140.076 123.022 140.517 122.713 140.891C122.404 141.265 122.013 141.562 121.569 141.759C120.518 142.376 119.319 142.695 118.1 142.68C116.005 142.514 113.93 142.16 111.898 141.622C109.257 140.978 106.582 140.478 103.886 140.124C101.702 139.869 99.491 139.952 97.3322 140.373C95.1063 140.792 92.9684 141.589 91.0105 142.728C87.9552 144.491 86.1979 146.414 85.7385 148.497C85.2791 150.58 86.3474 152.586 88.9434 154.514L83.7194 157.527L87.5252 159.714L92.7251 156.709C98.2696 159.236 104.663 159.086 111.906 156.261L107.812 151.862C103.464 153.753 99.7625 153.814 96.7072 152.046C95.281 151.245 94.6401 150.38 94.7763 149.523C94.9097 149.021 95.1538 148.555 95.4908 148.16C95.8277 147.765 96.2488 147.45 96.7232 147.239C97.8483 146.568 99.1392 146.227 100.449 146.254C102.744 146.46 105.015 146.873 107.235 147.487C109.652 148.118 112.11 148.581 114.59 148.874C116.689 149.079 118.806 148.968 120.872 148.545C123.062 148.124 125.167 147.338 127.098 146.221C129.661 144.739 131.304 143.017 132.049 141.102C132.794 139.187 131.985 137.256 129.645 135.373L133.676 133.041Z" fill="#CFE8CC"/>
<path d="M128.272 75.3954C135.659 63.1287 155.97 54.3153 179.878 54.3153C203.787 54.3153 224.098 63.1287 231.485 75.3954H234.481V85.603C234.481 102.885 210.036 116.899 179.878 116.899C149.72 116.899 125.315 102.885 125.315 85.603V75.3954H128.272Z" fill="#5D8F76"/>
<path d="M179.878 106.691C149.726 106.691 125.283 92.6797 125.283 75.3955C125.283 58.1114 149.726 44.0999 179.878 44.0999C210.031 44.0999 234.474 58.1114 234.474 75.3955C234.474 92.6797 210.031 106.691 179.878 106.691Z" fill="#CFE8CC"/>
<path d="M179.878 99.0959C157.041 99.0959 138.527 88.485 138.527 75.3958C138.527 62.3066 157.041 51.6957 179.878 51.6957C202.716 51.6957 221.229 62.3066 221.229 75.3958C221.229 88.485 202.716 99.0959 179.878 99.0959Z" fill="#F5F5F5"/>
<path d="M158.526 86.4522L160.128 85.5308C157.893 83.8883 156.795 82.1817 156.811 80.411V76.3168L157.861 77.4305C159.005 75.8984 160.478 74.6419 162.171 73.7529C164.14 72.6077 166.293 71.8108 168.533 71.3973C170.695 70.9852 172.907 70.9015 175.095 71.1489C177.791 71.506 180.465 72.0088 183.107 72.6552C185.137 73.1953 187.213 73.5467 189.308 73.7048C190.525 73.7274 191.723 73.4112 192.77 72.7914C193.214 72.5948 193.606 72.2978 193.916 71.9239C194.227 71.5499 194.446 71.1091 194.556 70.6361C194.669 69.8349 194.188 69.1058 193.122 68.4969C190.986 67.263 187.714 67.3324 183.307 68.7052L180.559 64.2584V60.068L182.746 63.5934C188.056 62.1565 192.834 62.3649 197.08 64.2184L200.91 62.007L197.08 60.02L204.908 59.8757V64.0741L200.902 66.4057C201.21 66.6564 201.505 66.9239 201.783 67.2069L203.586 66.4858V70.6762C203.598 71.1823 203.511 71.6858 203.33 72.1584C202.587 74.0921 200.937 75.796 198.378 77.2702C196.422 78.3906 194.29 79.1708 192.073 79.5778C190.007 79.9971 187.89 80.1078 185.791 79.9063C183.311 79.6062 180.854 79.1405 178.436 78.5121C176.201 77.8993 173.917 77.4864 171.609 77.2782C170.3 77.2514 169.009 77.5929 167.884 78.2638C167.409 78.4766 166.988 78.7928 166.651 79.1893C166.314 79.5857 166.07 80.0524 165.937 80.5552C165.793 81.4125 166.442 82.2538 167.868 83.0791C170.568 84.6415 173.773 84.7617 177.482 83.4717L176.938 83.0951H178.436L178.965 82.8948L179.149 83.0951H183.059V87.2935C175.816 90.1138 169.422 90.2607 163.878 87.7342L158.678 90.7388L154.88 88.5514V84.3851L158.526 86.4522Z" fill="#72AA8B"/>
<path d="M204.869 59.8761L201.079 57.6887L197.073 60.0203C192.265 57.9104 186.758 57.9264 180.552 60.0683L183.3 64.5071C187.706 63.1397 190.978 63.0703 193.115 64.2988C194.18 64.9157 194.661 65.6288 194.549 66.4381C194.438 66.911 194.219 67.3518 193.909 67.7258C193.599 68.0998 193.206 68.3967 192.762 68.5933C191.715 69.2116 190.517 69.5304 189.301 69.5147C187.206 69.3486 185.131 68.9947 183.099 68.4571C180.457 67.8146 177.783 67.3118 175.087 66.9508C172.9 66.7019 170.687 66.7883 168.525 67.2072C166.289 67.6225 164.14 68.4164 162.172 69.5548C159.127 71.3175 157.372 73.2404 156.908 75.3236C156.443 77.4068 157.511 79.4125 160.112 81.3408L154.889 84.3854L158.686 86.5807L163.886 83.5842C169.431 86.1054 175.824 85.9558 183.067 83.1355L178.997 78.6967C174.644 80.5876 170.942 80.649 167.892 78.881C166.466 78.0798 165.817 77.2145 165.961 76.3572C166.096 75.8548 166.34 75.3886 166.677 74.9923C167.014 74.596 167.434 74.2795 167.908 74.0657C169.034 73.3972 170.325 73.0585 171.634 73.0882C173.941 73.2924 176.226 73.7027 178.46 74.3141C180.877 74.9501 183.334 75.416 185.816 75.7082C187.914 75.9137 190.032 75.803 192.097 75.3797C194.287 74.9559 196.391 74.1706 198.323 73.0561C200.876 71.5765 202.526 69.8699 203.274 67.9363C204.022 66.0027 203.221 64.0931 200.871 62.2076L204.869 59.8761Z" fill="#CFE8CC"/>
<path d="M13.1409 64.5509C16.0733 50.5295 32.3702 35.5146 54.9165 27.6306C77.4629 19.7466 99.5685 21.3811 110.593 30.523L113.414 29.5375L116.779 39.1522C122.475 55.473 104.015 76.7535 75.5479 86.6966C47.0806 96.6398 19.3824 91.5039 13.6857 75.151L10.3205 65.5364L13.1409 64.5509Z" fill="#5D8F76"/>
<path d="M10.3179 65.5448C4.61946 49.2271 23.0764 27.9402 51.5427 17.9994C80.0089 8.05851 107.705 13.228 113.403 29.5458C119.102 45.8635 100.645 67.1503 72.1785 77.0912C43.7122 87.0321 16.0163 81.8626 10.3179 65.5448Z" fill="#CFE8CC"/>
<path d="M22.8211 61.1787C18.5057 48.8213 32.4858 32.6999 54.0465 25.1706C75.6071 17.6413 96.5838 21.5552 100.899 33.9126C105.215 46.27 91.2345 62.3913 69.6739 69.9206C48.1132 77.45 27.1365 73.536 22.8211 61.1787Z" fill="#F5F5F5"/>
<path d="M45.3097 65.0155L46.5115 63.6214C43.8408 62.8041 42.2384 61.5569 41.7042 59.8797L40.3502 56.0018L41.7122 56.7149C42.2933 54.8881 43.2731 53.2132 44.5806 51.8114C46.0626 50.0864 47.8296 48.6284 49.8046 47.5008C51.7096 46.3962 53.7707 45.5858 55.9179 45.0972C58.5655 44.5553 61.24 44.1541 63.9301 43.8953C66.0308 43.7399 68.1123 43.3885 70.1476 42.8457C71.3055 42.4635 72.3345 41.7673 73.1201 40.8347C73.4744 40.5035 73.7465 40.0942 73.9148 39.6394C74.0831 39.1845 74.1429 38.6967 74.0896 38.2147C73.9293 37.4134 73.2403 36.9007 72.0304 36.6683C69.6107 36.2089 66.5447 37.352 62.8324 40.0975L58.7782 36.8125L57.3921 32.8545L60.597 35.4665C65.164 32.3577 69.7603 30.9903 74.386 31.3642L77.2704 28.0151L72.9999 27.4062L80.3471 24.6901L81.7252 28.6481L78.6886 32.1655C79.0572 32.2947 79.4183 32.4445 79.7702 32.6141L81.2365 31.3402L82.6146 35.2902C82.7895 35.7642 82.8711 36.2675 82.8549 36.7725C82.7908 38.8503 81.7946 41.0056 79.8664 43.2383C78.4114 44.9314 76.6837 46.3694 74.7546 47.4928C72.9438 48.5746 70.9839 49.3844 68.9377 49.8965C66.4946 50.4291 64.0187 50.7985 61.5264 51.0022C59.2155 51.1645 56.9232 51.5291 54.676 52.0918C53.4262 52.4944 52.3154 53.2415 51.4711 54.2471C51.0916 54.6032 50.7973 55.0402 50.61 55.5257C50.4227 56.0112 50.3473 56.5327 50.3895 57.0514C50.5417 57.9087 51.423 58.4936 53.0415 58.798C56.1022 59.3803 59.1735 58.4455 62.2555 55.9938L61.6146 55.8255L63.0327 55.3287C63.1769 55.2006 63.3212 55.0964 63.4654 54.9602L63.7138 55.0964L67.4154 53.7984L68.8015 57.7564C62.8885 62.8148 56.898 65.0636 50.8301 64.5027L46.9122 69.0216L42.6096 68.2204L41.2315 64.2143L45.3097 65.0155Z" fill="#72AA8B"/>
<path d="M80.347 24.6501L76.0444 23.8489L72.9998 27.3823C67.7598 26.9817 62.5652 28.8111 57.4161 32.8706L61.4782 36.1717C65.1852 33.4261 68.2512 32.2831 70.6763 32.7424C71.8861 32.9668 72.5671 33.4876 72.7354 34.2888C72.7804 34.7668 72.715 35.2488 72.5441 35.6976C72.3733 36.1463 72.1015 36.5497 71.7499 36.8767C70.9671 37.8087 69.9408 38.505 68.7854 38.8878C66.7539 39.423 64.6784 39.7743 62.5839 39.9374C59.893 40.1931 57.2182 40.597 54.5717 41.1472C52.424 41.6341 50.3627 42.4446 48.4584 43.5509C46.4807 44.6812 44.7111 46.1418 43.2264 47.8695C40.9243 50.5402 39.9014 52.9439 40.1578 55.0805C40.4142 57.2171 42.0887 58.7554 45.1814 59.6955L41.2314 64.2144L45.5259 65.0156L49.4519 60.4727C55.5198 61.0068 61.5076 58.7581 67.4153 53.7264L62.0952 50.9221C58.6125 54.127 55.1406 55.4063 51.6793 54.76C50.0769 54.4475 49.1795 53.8706 49.0273 53.0133C48.9885 52.4942 49.0662 51.9731 49.2547 51.4879C49.4433 51.0027 49.7379 50.5658 50.1169 50.209C50.9588 49.2008 52.0705 48.4532 53.3218 48.0538C55.5671 47.4815 57.8602 47.1167 60.1723 46.9641C62.6625 46.7617 65.136 46.3896 67.5755 45.8504C69.6262 45.3442 71.5895 44.534 73.4004 43.4467C75.3284 42.3284 77.0539 40.8927 78.5042 39.2003C80.4325 36.9569 81.4287 34.8016 81.4927 32.7344C81.5568 30.6593 80.1707 29.1289 77.3264 28.1274L80.347 24.6501Z" fill="#CFE8CC"/>
</svg>
