<svg width="221" height="230" viewBox="0 0 221 230" fill="none" xmlns="http://www.w3.org/2000/svg">
<path d="M79.4445 188.859C72.1025 176.705 51.9539 167.955 28.2018 167.955C4.44973 167.955 -15.6592 176.705 -23.033 188.859H-26V198.978C-26 216.135 -1.7309 230 28.2018 230C58.1345 230 82.4115 216.096 82.4115 198.978V188.859H79.4445Z" fill="#5D8F76"/>
<path d="M28.2018 219.93C58.1366 219.93 82.4036 206.019 82.4036 188.86C82.4036 171.7 58.1366 157.789 28.2018 157.789C-1.73303 157.789 -26 171.7 -26 188.86C-26 206.019 -1.73303 219.93 28.2018 219.93Z" fill="#CFE8CC"/>
<path d="M28.2015 212.389C50.8745 212.389 69.2545 201.854 69.2545 188.859C69.2545 175.864 50.8745 165.33 28.2015 165.33C5.52851 165.33 -12.8516 175.864 -12.8516 188.859C-12.8516 201.854 5.52851 212.389 28.2015 212.389Z" fill="#F5F5F5"/>
<path d="M49.4085 199.837L47.8176 198.922C50.0369 197.291 51.1267 195.597 51.1108 193.839V189.774L50.0687 190.88C48.9243 189.36 47.4573 188.113 45.7733 187.229C43.8172 186.094 41.6809 185.303 39.4575 184.89C37.3133 184.481 35.1197 184.398 32.9507 184.644C30.2742 184.998 27.6188 185.497 24.9962 186.139C22.9795 186.673 20.919 187.024 18.8395 187.189C17.6434 187.188 16.4699 186.863 15.4429 186.25C15.0027 186.055 14.6139 185.76 14.3074 185.389C14.0009 185.018 13.7851 184.58 13.677 184.111C13.5656 183.315 14.0429 182.591 15.1009 181.987C17.222 180.762 20.4701 180.831 24.8451 182.194L27.5655 177.779V173.619L25.4019 177.119C20.1254 175.692 15.3793 175.899 11.1634 177.739L7.36115 175.544L11.1634 173.571L3.43164 173.452V177.62L7.40888 179.935C7.0907 180.189 6.80434 180.452 6.54184 180.73L4.75208 180.014V184.174C4.74301 184.677 4.83218 185.177 5.01458 185.646C5.75435 187.563 7.40092 189.257 9.93045 190.721C11.8453 191.836 13.935 192.618 16.1111 193.036C18.1623 193.452 20.2639 193.562 22.3474 193.362C24.8209 193.057 27.2711 192.587 29.6814 191.954C31.9006 191.349 34.1683 190.94 36.4586 190.729C37.7589 190.702 39.0404 191.041 40.1574 191.707C40.6281 191.919 41.0456 192.234 41.3799 192.627C41.7142 193.021 41.9569 193.483 42.0904 193.982C42.2283 194.831 41.5893 195.666 40.1734 196.488C37.4927 198.039 34.3109 198.158 30.628 196.878L31.1689 196.504H29.6257C29.4587 196.432 29.2837 196.384 29.1087 196.305L28.9178 196.504H25.0439V200.672C32.2348 203.472 38.5825 203.62 44.087 201.117L49.2494 204.092L53.0119 201.921V197.753L49.4085 199.837Z" fill="#72AA8B"/>
<path d="M3.43164 173.452L7.19411 171.28L11.1713 173.595C15.944 171.506 21.4114 171.522 27.5735 173.643L24.853 178.05C20.4675 176.692 17.2194 176.623 15.1088 177.843C14.0509 178.455 13.5736 179.163 13.685 179.967C13.793 180.436 14.0089 180.874 14.3154 181.245C14.6219 181.616 15.0106 181.911 15.4509 182.106C16.4942 182.719 17.6851 183.036 18.8951 183.021C20.9747 182.856 23.0352 182.505 25.0519 181.971C27.6745 181.331 30.3299 180.835 33.0064 180.484C35.175 180.23 37.3699 180.313 39.5131 180.73C41.723 181.147 43.8455 181.938 45.7892 183.069C48.8225 184.819 50.5672 186.728 51.0233 188.796C51.4793 190.864 50.4187 192.856 47.8415 194.77L53.0278 197.761L49.2494 199.932L44.087 196.949C38.5825 199.458 32.2348 199.309 25.0439 196.504L29.1087 192.137C33.4253 194.014 37.1003 194.075 40.1336 192.32C41.5495 191.524 42.1858 190.665 42.0506 189.814C41.9181 189.316 41.6758 188.854 41.3413 188.462C41.0068 188.069 40.5887 187.757 40.1177 187.547C39.0007 186.881 37.7191 186.542 36.4188 186.569C34.1408 186.774 31.8858 187.184 29.6814 187.794C27.2818 188.419 24.8419 188.879 22.3792 189.17C20.2958 189.374 18.1936 189.264 16.1429 188.844C13.9683 188.426 11.8791 187.646 9.96226 186.537C7.41683 185.065 5.78616 183.355 5.0464 181.454C4.30663 179.553 5.11003 177.636 7.43274 175.767L3.43164 173.452Z" fill="#CFE8CC"/>
<path d="M142.086 75.508C134.752 63.3297 114.588 54.5798 90.8513 54.5798C67.1152 54.5798 46.9506 63.3297 39.6166 75.508H36.6416V85.642C36.6416 102.8 60.9107 116.712 90.8513 116.712C120.792 116.712 145.021 102.8 145.021 85.642V75.508H142.086Z" fill="#5D8F76"/>
<path d="M90.8512 106.578C120.786 106.578 145.053 92.6676 145.053 75.508C145.053 58.3485 120.786 44.4379 90.8512 44.4379C60.9164 44.4379 36.6494 58.3485 36.6494 75.508C36.6494 92.6676 60.9164 106.578 90.8512 106.578Z" fill="#CFE8CC"/>
<path d="M90.8514 99.0376C113.524 99.0376 131.904 88.5032 131.904 75.5083C131.904 62.5134 113.524 51.9789 90.8514 51.9789C68.1784 51.9789 49.7983 62.5134 49.7983 75.5083C49.7983 88.5032 68.1784 99.0376 90.8514 99.0376Z" fill="#F5F5F5"/>
<path d="M112.05 86.4856L110.46 85.5708C112.679 83.9401 113.769 82.2458 113.753 80.4879V76.4232L112.711 77.5288C111.574 76.0078 110.112 74.7603 108.431 73.8777C106.476 72.7408 104.339 71.9496 102.115 71.5391C99.9684 71.1301 97.7722 71.0469 95.6005 71.2925C92.924 71.647 90.2686 72.1462 87.6461 72.788C85.6303 73.3242 83.5693 73.673 81.4893 73.83C80.2819 73.8525 79.0921 73.5385 78.053 72.9232C77.612 72.728 77.2223 72.4332 76.9145 72.0619C76.6067 71.6906 76.3892 71.253 76.2791 70.7834C76.1678 69.988 76.645 69.2641 77.703 68.6596C79.8242 67.4346 83.0722 67.5036 87.4472 68.8664L90.1756 64.4517V60.2915L88.004 63.7915C82.7329 62.365 77.9893 62.5718 73.7735 64.4119L69.9712 62.2165L73.7735 60.2438L66.002 60.1006V64.2687L69.9792 66.5835C69.6732 66.8324 69.3811 67.098 69.1042 67.3789L67.3144 66.663V70.8232C67.3026 71.3256 67.3891 71.8255 67.569 72.2948C68.3061 74.2145 69.9447 75.9061 72.4848 77.3698C74.427 78.482 76.5437 79.2566 78.745 79.6606C80.7962 80.077 82.8979 80.1869 84.9813 79.9868C87.4436 79.6889 89.8831 79.2265 92.2835 78.6027C94.5018 77.9943 96.7698 77.5844 99.0607 77.3777C100.361 77.351 101.643 77.6901 102.76 78.3561C103.231 78.5675 103.649 78.8814 103.983 79.275C104.318 79.6686 104.56 80.1319 104.693 80.6311C104.836 81.4822 104.191 82.3174 102.775 83.1367C100.095 84.6879 96.913 84.8072 93.2301 83.5265L93.771 83.1527H92.2835L91.7585 82.9538L91.5756 83.1527H87.6938V87.3208C94.8846 90.1208 101.232 90.2666 106.737 87.7583L111.899 90.7412L115.67 88.5697V84.4333L112.05 86.4856Z" fill="#72AA8B"/>
<path d="M66.041 60.1003L69.8035 57.9288L73.7807 60.2435C78.5534 58.1488 84.0208 58.1648 90.1828 60.2913L87.4545 64.698C83.0795 63.3405 79.8314 63.2715 77.7102 64.4912C76.6523 65.1037 76.175 65.8117 76.2864 66.6151C76.3964 67.0846 76.6139 67.5222 76.9217 67.8935C77.2295 68.2648 77.6192 68.5596 78.0602 68.7548C79.1003 69.3687 80.289 69.6851 81.4966 69.6696C83.5761 69.5046 85.6367 69.1532 87.6533 68.6196C90.2767 67.9817 92.9319 67.4825 95.6078 67.1241C97.7797 66.877 99.9766 66.9628 102.123 67.3787C104.342 67.7909 106.476 68.5792 108.43 69.7093C111.453 71.4593 113.195 73.3684 113.657 75.4366C114.118 77.5047 113.057 79.496 110.475 81.4104L115.661 84.4331L111.891 86.6126L106.728 83.6376C101.224 86.1406 94.876 85.9922 87.6851 83.1922L91.726 78.7854C96.0479 80.6627 99.7229 80.7236 102.751 78.9684C104.167 78.1729 104.811 77.3138 104.668 76.4627C104.534 75.964 104.292 75.5011 103.957 75.1077C103.623 74.7142 103.206 74.4 102.735 74.1877C101.617 73.5241 100.336 73.1878 99.0362 73.2173C96.7453 73.42 94.4772 73.8273 92.259 74.4343C89.8602 75.0658 87.4202 75.5283 84.9568 75.8184C82.8734 76.0224 80.7712 75.9125 78.7204 75.4923C76.5465 75.0715 74.4578 74.2919 72.5398 73.1855C70.005 71.7165 68.3664 70.0222 67.624 68.1025C66.8815 66.1829 67.677 64.287 70.0103 62.4151L66.041 60.1003Z" fill="#CFE8CC"/>
<path d="M207.185 64.0858C204.274 50.1655 188.095 35.2588 165.711 27.4316C143.327 19.6044 121.38 21.2271 110.435 30.3031L107.635 29.3247L104.294 38.8701C98.6385 55.0734 116.966 76.2004 145.228 86.0719C173.49 95.9435 200.989 90.8446 206.644 74.6096L209.985 65.0642L207.185 64.0858Z" fill="#5D8F76"/>
<path d="M209.988 65.0725C215.645 48.8723 197.321 27.7389 169.06 17.8696C140.799 8.00039 113.302 13.1326 107.645 29.3328C101.988 45.533 120.312 66.6664 148.573 76.5357C176.834 86.4049 204.33 81.2726 209.988 65.0725Z" fill="#CFE8CC"/>
<path d="M197.574 60.7377C201.858 48.4693 187.979 32.4641 166.574 24.9891C145.169 17.514 124.343 21.3997 120.059 33.668C115.774 45.9364 129.654 61.9416 151.059 69.4166C172.464 76.8917 193.29 73.006 197.574 60.7377Z" fill="#F5F5F5"/>
<path d="M175.248 64.5471L174.055 63.163C176.706 62.3516 178.297 61.1134 178.828 59.4483L180.172 55.5983L178.82 56.3062C178.243 54.4926 177.27 52.8298 175.972 51.4381C174.501 49.7255 172.746 48.2781 170.786 47.1586C168.894 46.062 166.848 45.2574 164.716 44.7723C162.088 44.2343 159.433 43.836 156.762 43.5791C154.676 43.4248 152.61 43.076 150.589 42.5371C149.44 42.1575 148.418 41.4664 147.638 40.5405C147.286 40.2117 147.016 39.8054 146.849 39.3538C146.682 38.9022 146.623 38.4179 146.676 37.9394C146.835 37.1439 147.519 36.6348 148.72 36.4041C151.122 35.9481 154.166 37.0829 157.852 39.8087L161.877 36.5473L163.253 32.6178L160.071 35.211C155.537 32.1246 150.974 30.7671 146.381 31.1383L143.518 27.8133L147.757 27.2088L140.463 24.5122L139.095 28.4417L142.11 31.9337C141.744 32.0621 141.385 32.2108 141.036 32.3792L139.58 31.1144L138.212 35.036C138.038 35.5065 137.957 36.0062 137.973 36.5076C138.037 38.5704 139.026 40.7102 140.94 42.9268C142.385 44.6077 144.1 46.0353 146.015 47.1506C147.813 48.2246 149.759 49.0286 151.79 49.537C154.216 50.0658 156.674 50.4325 159.148 50.6347C161.443 50.7959 163.718 51.1579 165.949 51.7165C167.19 52.1162 168.293 52.8579 169.131 53.8563C169.508 54.2098 169.8 54.6436 169.986 55.1257C170.172 55.6077 170.247 56.1254 170.205 56.6403C170.054 57.4915 169.179 58.0721 167.572 58.3744C164.533 58.9524 161.484 58.0244 158.424 55.5903L159.061 55.4233L157.653 54.9301C157.51 54.8028 157.366 54.6994 157.223 54.5642L156.977 54.6994L153.302 53.4108L151.926 57.3403C157.796 62.3623 163.743 64.5948 169.767 64.038L173.657 68.5243L177.929 67.7289L179.297 63.7516L175.248 64.5471Z" fill="#72AA8B"/>
<path d="M140.463 24.4724L144.735 23.677L147.758 27.1849C152.96 26.7872 158.117 28.6035 163.229 32.6337L159.196 35.911C155.516 33.1853 152.472 32.0504 150.064 32.5065C148.863 32.7292 148.187 33.2462 148.02 34.0417C147.975 34.5163 148.04 34.9948 148.21 35.4403C148.38 35.8858 148.649 36.2863 148.998 36.611C149.776 37.5363 150.795 38.2275 151.942 38.6076C153.958 39.1389 156.019 39.4876 158.098 39.6496C160.77 39.9035 163.425 40.3045 166.053 40.8507C168.185 41.3341 170.232 42.1388 172.122 43.2371C174.086 44.3592 175.842 45.8093 177.316 47.5245C179.602 50.176 180.618 52.5624 180.363 54.6835C180.108 56.8047 178.446 58.332 175.376 59.2653L179.297 63.7516L175.033 64.5471L171.136 60.0369C165.112 60.5672 159.167 58.3347 153.302 53.3392L158.584 50.5552C162.041 53.737 165.488 55.007 168.924 54.3654C170.515 54.0551 171.406 53.4824 171.557 52.6313C171.596 52.116 171.519 51.5985 171.332 51.1168C171.144 50.6351 170.852 50.2014 170.476 49.8472C169.64 48.8462 168.536 48.104 167.294 47.7075C165.065 47.1393 162.788 46.7772 160.493 46.6257C158.02 46.4247 155.565 46.0553 153.143 45.52C151.107 45.0174 149.158 44.2131 147.36 43.1337C145.446 42.0234 143.733 40.5981 142.293 38.9178C140.378 36.6905 139.389 34.5508 139.326 32.4985C139.262 30.4383 140.638 28.919 143.462 27.9247L140.463 24.4724Z" fill="#CFE8CC"/>
</svg>
