<svg width="358" height="300" viewBox="0 0 358 300" fill="none" xmlns="http://www.w3.org/2000/svg">
<path d="M86.79 151.958L118.06 169.378V132.658L86.79 115.238V151.958Z" fill="#99CAAB"/>
<path d="M118.06 169.918C117.973 169.915 117.887 169.891 117.81 169.848L86.5403 152.428C86.4573 152.38 86.388 152.312 86.339 152.23C86.2899 152.147 86.2628 152.054 86.2603 151.958V115.238C86.2606 115.146 86.2851 115.055 86.3312 114.975C86.3774 114.895 86.4437 114.828 86.5236 114.782C86.6034 114.735 86.694 114.711 86.7864 114.71C86.8788 114.709 86.9698 114.733 87.0503 114.778L118.32 132.198C118.404 132.243 118.474 132.309 118.523 132.39C118.572 132.471 118.599 132.563 118.6 132.658V169.378C118.601 169.472 118.576 169.564 118.529 169.645C118.481 169.726 118.413 169.793 118.33 169.838C118.25 169.89 118.156 169.918 118.06 169.918ZM87.3303 151.648L117.53 168.478V132.998L87.3303 116.168V151.648Z" fill="#000E0A"/>
<path d="M86.79 115.278L118.25 132.738L146.79 116.738L115.34 99.2782L86.79 115.278Z" fill="#EEF4ED"/>
<path d="M118.25 133.268C118.158 133.27 118.068 133.246 117.99 133.198L86.5398 115.748C86.4564 115.703 86.3868 115.635 86.3383 115.553C86.2898 115.472 86.2642 115.378 86.2642 115.283C86.2642 115.188 86.2898 115.095 86.3383 115.013C86.3868 114.931 86.4564 114.864 86.5398 114.818L115.09 98.8182C115.169 98.7735 115.259 98.75 115.35 98.75C115.441 98.75 115.53 98.7735 115.61 98.8182L147.06 116.268C147.143 116.316 147.212 116.384 147.261 116.467C147.31 116.549 147.337 116.642 147.34 116.738C147.339 116.832 147.313 116.923 147.266 117.004C147.218 117.084 147.151 117.151 147.07 117.198L118.52 133.198C118.439 133.248 118.345 133.272 118.25 133.268ZM87.8898 115.268L118.25 132.118L145.7 116.728L115.34 99.8882L87.8898 115.268Z" fill="#000E0A"/>
<path d="M146.79 154.628L118.65 169.638V132.548L146.79 116.738V154.628Z" fill="#5D8F76"/>
<path d="M118.65 170.178C118.552 170.176 118.455 170.149 118.37 170.098C118.292 170.05 118.228 169.982 118.184 169.901C118.141 169.821 118.118 169.73 118.12 169.638V132.548C118.121 132.454 118.146 132.363 118.193 132.282C118.241 132.201 118.309 132.134 118.39 132.088L146.54 116.278C146.618 116.229 146.708 116.203 146.8 116.203C146.892 116.203 146.982 116.229 147.06 116.278C147.142 116.324 147.21 116.391 147.257 116.472C147.305 116.553 147.33 116.644 147.33 116.738V154.628C147.329 154.723 147.302 154.815 147.253 154.896C147.204 154.977 147.134 155.043 147.05 155.088L118.9 170.088C118.825 170.137 118.739 170.168 118.65 170.178ZM119.18 132.868V168.758L146.26 154.308V117.648L119.18 132.868Z" fill="#000E0A"/>
<path d="M-6.02002 185.418L25.25 202.838V166.118L-6.02002 148.698V185.418Z" fill="#D8C7FF"/>
<path d="M25.2502 203.368C25.1619 203.369 25.0753 203.344 25.0002 203.298L-6.26981 185.878C-6.35332 185.833 -6.42334 185.767 -6.47258 185.686C-6.52182 185.605 -6.54849 185.513 -6.5498 185.418V148.698C-6.54951 148.606 -6.52544 148.515 -6.47991 148.434C-6.43438 148.354 -6.36892 148.286 -6.28981 148.238C-6.20924 148.192 -6.11784 148.167 -6.02481 148.167C-5.93177 148.167 -5.84037 148.192 -5.7598 148.238L25.5102 165.668C25.5937 165.713 25.6637 165.779 25.713 165.86C25.7622 165.941 25.7889 166.033 25.7902 166.128V202.848C25.7899 202.942 25.7647 203.034 25.7173 203.115C25.6699 203.195 25.6018 203.262 25.5202 203.308C25.4376 203.353 25.344 203.374 25.2502 203.368ZM-5.4798 185.108L24.7202 201.938V166.428L-5.4798 149.598V185.108Z" fill="#000E0A"/>
<path d="M-6.02002 148.738L25.44 166.188L53.99 150.188L22.53 132.738L-6.02002 148.738Z" fill="white"/>
<path d="M25.4402 166.728C25.3493 166.725 25.2603 166.701 25.1802 166.658L-6.26981 149.198C-6.35332 149.153 -6.42334 149.087 -6.47258 149.006C-6.52182 148.925 -6.54849 148.833 -6.5498 148.738C-6.54847 148.645 -6.52289 148.553 -6.47556 148.472C-6.42823 148.392 -6.36078 148.325 -6.2798 148.278L22.2702 132.278C22.3496 132.233 22.4391 132.21 22.5302 132.21C22.6213 132.21 22.7108 132.233 22.7902 132.278L54.2402 149.728C54.3237 149.773 54.3937 149.839 54.443 149.92C54.4922 150.001 54.5189 150.093 54.5202 150.188C54.5196 150.283 54.4944 150.376 54.4471 150.459C54.3998 150.541 54.332 150.61 54.2502 150.658L25.7002 166.658C25.6201 166.701 25.5311 166.725 25.4402 166.728ZM-4.9198 148.728L25.4402 165.578L52.8902 150.188L22.5302 133.348L-4.9198 148.728Z" fill="#000E0A"/>
<path d="M53.9898 188.078L25.8398 203.098V166.008L53.9898 150.188V188.078Z" fill="#000E0A"/>
<path d="M25.8402 203.628C25.7429 203.625 25.6474 203.601 25.5602 203.558C25.4822 203.51 25.4182 203.442 25.3744 203.361C25.3306 203.281 25.3084 203.19 25.3102 203.098V165.998C25.3094 165.904 25.3341 165.812 25.3817 165.731C25.4292 165.65 25.4978 165.583 25.5802 165.538L53.7202 149.718C53.8013 149.674 53.8925 149.65 53.9852 149.65C54.0778 149.65 54.169 149.674 54.2502 149.718C54.3318 149.764 54.3998 149.831 54.4472 149.912C54.4947 149.993 54.5198 150.084 54.5202 150.178V188.068C54.5208 188.166 54.494 188.262 54.4427 188.345C54.3914 188.428 54.3178 188.495 54.2302 188.538L26.0902 203.538C26.0151 203.587 25.9294 203.618 25.8402 203.628ZM26.3702 166.318V202.208L53.4502 187.758V151.098L26.3702 166.318Z" fill="#000E0A"/>
<path d="M-17.6802 108.218L13.5898 125.638V88.9182L-17.6802 71.4982V108.218Z" fill="#99CAAB"/>
<path d="M13.59 126.168C13.4985 126.17 13.4083 126.146 13.3301 126.098L-17.9399 108.678C-18.0223 108.633 -18.0909 108.566 -18.1384 108.485C-18.186 108.404 -18.2107 108.312 -18.2099 108.218V71.4981C-18.2096 71.4056 -18.1856 71.3147 -18.1401 71.2342C-18.0945 71.1536 -18.0291 71.0861 -17.9499 71.0381C-17.8688 70.9935 -17.7776 70.9701 -17.6849 70.9701C-17.5923 70.9701 -17.5011 70.9935 -17.4199 71.0381L13.8501 88.4581C13.9324 88.5033 14.001 88.5699 14.0485 88.6509C14.0961 88.7319 14.1208 88.8242 14.1201 88.9181V125.638C14.1198 125.731 14.0957 125.822 14.0502 125.902C14.0046 125.983 13.9392 126.05 13.8601 126.098C13.7781 126.146 13.6847 126.17 13.59 126.168ZM-17.1499 107.908L13.0601 124.738V89.2281L-17.1499 72.3981V107.908Z" fill="#000E0A"/>
<path d="M-17.6802 71.5382L13.7698 88.9882L42.3198 72.9982L10.8698 55.5382L-17.6802 71.5382Z" fill="#EEF4ED"/>
<path d="M13.7702 89.5282C13.6827 89.5237 13.5973 89.4998 13.5202 89.4582L-17.9398 71.9982C-18.0208 71.9518 -18.0882 71.8848 -18.135 71.804C-18.1819 71.7233 -18.2065 71.6315 -18.2065 71.5382C-18.2065 71.4448 -18.1819 71.3531 -18.135 71.2723C-18.0882 71.1915 -18.0208 71.1245 -17.9398 71.0782L10.6102 55.0782C10.6896 55.0335 10.7791 55.01 10.8702 55.01C10.9613 55.01 11.0508 55.0335 11.1302 55.0782L42.5802 72.5282C42.6626 72.5733 42.7311 72.6399 42.7787 72.7209C42.8262 72.8019 42.8509 72.8943 42.8502 72.9882C42.8517 73.0836 42.8274 73.1776 42.7798 73.2603C42.7323 73.343 42.6633 73.4114 42.5802 73.4582L14.0002 89.4582C13.9283 89.495 13.8504 89.5187 13.7702 89.5282ZM-16.5898 71.5282L13.7702 88.3882L41.2302 72.9982L10.8702 56.1482L-16.5898 71.5282Z" fill="#000E0A"/>
<path d="M42.3199 110.878L14.1699 125.898V88.8082L42.3199 72.9982V110.878Z" fill="#035946"/>
<path d="M14.1701 126.428C14.0754 126.43 13.9821 126.406 13.9001 126.358C13.821 126.31 13.7556 126.243 13.71 126.162C13.6645 126.082 13.6404 125.991 13.6401 125.898V88.8082C13.6415 88.7147 13.667 88.6231 13.7144 88.5425C13.7617 88.4619 13.8292 88.3949 13.9101 88.3482L42.0601 72.5282C42.1414 72.4824 42.2333 72.4589 42.3265 72.46C42.4197 72.4611 42.511 72.4868 42.5912 72.5345C42.6713 72.5822 42.7375 72.6501 42.7829 72.7315C42.8284 72.8129 42.8516 72.9049 42.8501 72.9982V110.878C42.8529 110.975 42.8281 111.071 42.7785 111.154C42.7289 111.237 42.6566 111.304 42.5701 111.348L14.4201 126.348C14.3447 126.395 14.2588 126.422 14.1701 126.428ZM14.7001 89.1182V124.998L41.7901 110.548V73.8982L14.7001 89.1182Z" fill="#000E0A"/>
<path d="M-29.1997 154.298L2.07029 171.718V134.998L-29.1997 117.578V154.298Z" fill="#D8C7FF"/>
<path d="M2.07008 172.248C1.97851 172.25 1.8883 172.226 1.81008 172.178L-29.4599 154.758C-29.5423 154.713 -29.6109 154.646 -29.6584 154.565C-29.7059 154.484 -29.7306 154.392 -29.7299 154.298V117.578C-29.7314 117.485 -29.7082 117.393 -29.6627 117.311C-29.6172 117.23 -29.5511 117.162 -29.471 117.114C-29.3908 117.067 -29.2995 117.041 -29.2063 117.04C-29.1131 117.039 -29.0212 117.062 -28.9399 117.108L2.33009 134.528C2.41185 134.576 2.47969 134.645 2.527 134.728C2.57432 134.81 2.59949 134.903 2.60008 134.998V171.718C2.59978 171.811 2.57572 171.902 2.53019 171.982C2.48466 172.063 2.4192 172.13 2.34008 172.178C2.25814 172.226 2.16478 172.25 2.07008 172.248ZM-28.6699 153.998L1.54008 170.828V135.328L-28.6699 118.478V153.998Z" fill="#000E0A"/>
<path d="M-29.1997 117.618L2.26029 135.068L30.8003 119.068L-0.649708 101.618L-29.1997 117.618Z" fill="white"/>
<path d="M2.26019 135.598C2.17003 135.599 2.08101 135.578 2.00019 135.538L-29.4598 118.078C-29.5409 118.032 -29.6082 117.965 -29.6551 117.884C-29.7019 117.803 -29.7266 117.712 -29.7266 117.618C-29.7266 117.525 -29.7019 117.433 -29.6551 117.352C-29.6082 117.271 -29.5409 117.205 -29.4598 117.158L-0.909811 101.158C-0.830441 101.113 -0.740896 101.09 -0.649813 101.09C-0.558729 101.09 -0.469181 101.113 -0.389811 101.158L31.0602 118.608C31.1425 118.653 31.2111 118.72 31.2587 118.801C31.3062 118.882 31.3309 118.974 31.3302 119.068C31.3317 119.164 31.3073 119.258 31.2598 119.34C31.2123 119.423 31.1433 119.491 31.0602 119.538L2.51019 135.538C2.43251 135.577 2.347 135.597 2.26019 135.598ZM-28.1098 117.598L2.25019 134.438L29.7102 119.058L-0.649813 102.228L-28.1098 117.598Z" fill="#000E0A"/>
<path d="M30.7999 156.958L2.6499 171.978V134.888L30.7999 119.068V156.958Z" fill="#035946"/>
<path d="M2.65015 172.508C2.55391 172.511 2.45927 172.483 2.38015 172.428C2.30045 172.383 2.23427 172.318 2.18853 172.239C2.14279 172.16 2.11917 172.07 2.12015 171.978V134.888C2.12148 134.795 2.14706 134.703 2.19439 134.623C2.24172 134.542 2.30917 134.475 2.39015 134.428L30.5401 118.608C30.6207 118.563 30.7116 118.539 30.804 118.54C30.8964 118.541 30.987 118.566 31.0668 118.612C31.1467 118.659 31.213 118.725 31.2592 118.805C31.3054 118.885 31.3298 118.976 31.3301 119.068V156.998C31.3306 157.095 31.3048 157.189 31.2555 157.272C31.2061 157.355 31.1352 157.423 31.0501 157.468L2.90015 172.468C2.8215 172.502 2.73552 172.516 2.65015 172.508ZM3.19015 135.198V171.088L30.2701 156.638V119.998L3.19015 135.198Z" fill="#000E0A"/>
<path d="M-52.04 91.1482L-20.59 108.608L7.95996 92.6082L-23.49 75.1482L-52.04 91.1482Z" fill="#EEF4ED"/>
<path d="M-20.5898 109.138C-20.6805 109.134 -20.7692 109.11 -20.8498 109.068L-52.2998 91.6182C-52.3816 91.5698 -52.4494 91.5011 -52.4967 91.4187C-52.544 91.3364 -52.5692 91.2431 -52.5698 91.1482C-52.5705 91.0542 -52.5458 90.9619 -52.4983 90.8809C-52.4507 90.7999 -52.3822 90.7333 -52.2998 90.6882L-23.7598 74.6882C-23.6804 74.6435 -23.5909 74.62 -23.4998 74.62C-23.4087 74.62 -23.3192 74.6435 -23.2398 74.6882L8.22019 92.1382C8.30105 92.1859 8.36806 92.2539 8.41461 92.3354C8.46116 92.417 8.48565 92.5093 8.48565 92.6032C8.48565 92.6971 8.46116 92.7893 8.41461 92.8709C8.36806 92.9524 8.30105 93.0204 8.22019 93.0682L-20.3298 109.068C-20.4099 109.111 -20.4989 109.135 -20.5898 109.138ZM-50.9498 91.1382L-20.5898 107.998L6.87019 92.6082L-23.4898 75.7582L-50.9498 91.1382Z" fill="#000E0A"/>
<path d="M7.96006 130.488L-20.1899 145.508V108.418L7.96006 92.6084V130.488Z" fill="#035946"/>
<path d="M-20.1897 145.998C-20.2844 146 -20.3778 145.976 -20.4597 145.928C-20.5388 145.88 -20.6043 145.813 -20.6498 145.732C-20.6953 145.652 -20.7194 145.561 -20.7197 145.468V108.418C-20.7204 108.324 -20.6957 108.232 -20.6482 108.151C-20.6006 108.07 -20.5321 108.003 -20.4497 107.958L7.70029 92.1381C7.78154 92.0924 7.87342 92.0689 7.96666 92.07C8.0599 92.0711 8.1512 92.0968 8.23134 92.1445C8.31148 92.1921 8.37761 92.2601 8.42308 92.3415C8.46855 92.4229 8.49173 92.5149 8.49029 92.6081V130.488C8.49077 130.585 8.46496 130.679 8.41562 130.762C8.36628 130.845 8.29529 130.913 8.21029 130.958L-19.9397 145.998C-20.0219 146.018 -20.1075 146.018 -20.1897 145.998ZM-19.6597 108.688V144.578L7.43029 130.128V93.5081L-19.6597 108.688Z" fill="#000E0A"/>
<path d="M18.0698 128.178L49.3398 145.598V108.888L18.0698 91.4581V128.178Z" fill="#99CAAB"/>
<path d="M49.3401 146.138C49.2492 146.135 49.1602 146.111 49.0801 146.068L17.8101 128.648C17.727 128.601 17.658 128.533 17.6105 128.45C17.563 128.368 17.5386 128.273 17.5401 128.178V91.4581C17.5404 91.3656 17.5645 91.2747 17.61 91.1941C17.6555 91.1136 17.721 91.0461 17.8001 90.9981C17.8813 90.9535 17.9724 90.9301 18.0651 90.9301C18.1578 90.9301 18.2489 90.9535 18.3301 90.9981L49.6001 108.418C49.6832 108.465 49.7522 108.533 49.7997 108.616C49.8472 108.699 49.8716 108.793 49.8701 108.888V145.608C49.8675 145.748 49.8109 145.881 49.712 145.98C49.6132 146.079 49.4799 146.136 49.3401 146.138ZM18.6001 127.868L48.8101 144.698V109.198L18.6001 92.3681V127.868Z" fill="#000E0A"/>
<path d="M18.0698 91.4982L49.5198 108.958L78.0698 92.9582L46.6198 75.5082L18.0698 91.4982Z" fill="#EEF4ED"/>
<path d="M49.5201 109.488C49.4318 109.489 49.3452 109.464 49.2701 109.418L17.8101 91.9982C17.7277 91.953 17.6592 91.8864 17.6116 91.8054C17.5641 91.7244 17.5394 91.6321 17.5401 91.5382C17.5386 91.4428 17.563 91.3488 17.6105 91.266C17.658 91.1833 17.727 91.1149 17.8101 91.0682L46.3601 75.0682C46.4395 75.0235 46.529 75 46.6201 75C46.7112 75 46.8007 75.0235 46.8801 75.0682L78.3301 92.4982C78.4111 92.5445 78.4785 92.6115 78.5253 92.6923C78.5722 92.7731 78.5969 92.8648 78.5969 92.9582C78.5969 93.0515 78.5722 93.1433 78.5253 93.224C78.4785 93.3048 78.4111 93.3718 78.3301 93.4182L49.7901 109.418C49.7078 109.465 49.6147 109.489 49.5201 109.488ZM19.1601 91.4882L49.5201 108.338L77.0001 92.9982L46.6201 76.1182L19.1601 91.4882Z" fill="#000E0A"/>
<path d="M78.0699 130.848L49.9199 145.868V108.778L78.0699 92.9581V130.848Z" fill="#1E6550"/>
<path d="M49.9201 146.398C49.7787 146.396 49.6439 146.337 49.5447 146.236C49.4456 146.135 49.3901 146 49.3901 145.858V108.778C49.3907 108.683 49.4159 108.59 49.4632 108.508C49.5105 108.425 49.5784 108.356 49.6601 108.308L77.8101 92.4981C77.8907 92.4516 77.9821 92.4271 78.0751 92.4271C78.1682 92.4271 78.2596 92.4516 78.3401 92.4981C78.4193 92.5461 78.4847 92.6136 78.5302 92.6942C78.5758 92.7747 78.5998 92.8656 78.6001 92.9581V130.848C78.5976 130.944 78.5705 131.037 78.5214 131.12C78.4724 131.202 78.4031 131.27 78.3201 131.318L50.1701 146.318C50.0966 146.369 50.0096 146.397 49.9201 146.398ZM50.4501 109.088V144.998L77.5401 130.548V93.8681L50.4501 109.088Z" fill="#000E0A"/>
<path d="M-15.6499 147.478L17.2701 165.568V127.438L-15.6499 109.348V147.478Z" fill="#99CAAB"/>
<path d="M17.26 166.118C17.1662 166.114 17.0742 166.09 16.99 166.048L-15.93 147.998C-16.0144 147.949 -16.0846 147.88 -16.1337 147.795C-16.1828 147.711 -16.2091 147.616 -16.21 147.518V109.348C-16.2094 109.253 -16.1842 109.16 -16.1369 109.078C-16.0896 108.995 -16.0217 108.927 -15.94 108.878C-15.8539 108.832 -15.7577 108.807 -15.66 108.807C-15.5622 108.807 -15.466 108.832 -15.38 108.878L17.54 126.998C17.6258 127.045 17.6972 127.115 17.7465 127.199C17.7958 127.284 17.8213 127.38 17.82 127.478V165.608C17.8195 165.703 17.7943 165.796 17.747 165.879C17.6996 165.961 17.6318 166.03 17.55 166.078C17.4582 166.115 17.3585 166.129 17.26 166.118ZM-15.09 147.118L16.71 164.598V127.758L-15.09 110.288V147.118Z" fill="#000E0A"/>
<path d="M-15.6499 109.398L17.4601 127.518L47.5101 110.908L14.4001 92.7782L-15.6499 109.398Z" fill="#EEF4ED"/>
<path d="M17.46 128.068C17.3653 128.07 17.272 128.046 17.19 127.998L-15.93 109.878C-16.0144 109.829 -16.0846 109.759 -16.1337 109.675C-16.1828 109.591 -16.2091 109.496 -16.21 109.398C-16.2089 109.299 -16.1826 109.203 -16.1336 109.117C-16.0846 109.031 -16.0145 108.959 -15.93 108.908L14.13 92.2981C14.213 92.2535 14.3058 92.2301 14.4 92.2301C14.4943 92.2301 14.587 92.2535 14.67 92.2981L47.78 110.418C47.8678 110.466 47.941 110.537 47.992 110.623C48.043 110.71 48.0699 110.808 48.07 110.908C48.0692 111.007 48.0418 111.103 47.9908 111.188C47.9398 111.272 47.867 111.341 47.78 111.388L17.73 127.998C17.6481 128.046 17.5547 128.07 17.46 128.068ZM-14.54 109.388L17.46 126.888L46.36 110.888L14.36 93.3981L-14.54 109.388Z" fill="#000E0A"/>
<path d="M47.5099 150.238L17.8799 165.838V127.328L47.5099 110.908V150.238Z" fill="#5D8F76"/>
<path d="M17.8798 166.388C17.7779 166.387 17.6781 166.359 17.5898 166.308C17.5081 166.26 17.4402 166.191 17.3929 166.109C17.3456 166.026 17.3204 165.933 17.3198 165.838V127.328C17.3197 127.231 17.3455 127.135 17.3947 127.05C17.444 126.966 17.5147 126.896 17.5998 126.848L47.2398 110.428C47.3243 110.382 47.4194 110.358 47.5158 110.359C47.6122 110.36 47.7068 110.386 47.7903 110.434C47.8738 110.482 47.9434 110.551 47.9923 110.634C48.0413 110.717 48.068 110.812 48.0698 110.908V150.238C48.071 150.34 48.0435 150.44 47.9904 150.526C47.9373 150.613 47.8609 150.683 47.7698 150.728L18.1398 166.318C18.0616 166.366 17.9714 166.39 17.8798 166.388ZM18.4398 127.648V164.918L46.9498 149.918V111.848L18.4398 127.648Z" fill="#000E0A"/>
<path d="M33.2402 149.788L64.5102 167.218V130.498L33.2402 113.068V149.788Z" fill="#539074"/>
<path d="M64.51 167.748C64.4191 167.745 64.3301 167.721 64.25 167.678L33 150.258C32.9182 150.21 32.8504 150.141 32.8031 150.059C32.7557 149.976 32.7306 149.883 32.73 149.788V113.068C32.7303 112.976 32.7543 112.885 32.7999 112.804C32.8454 112.724 32.9109 112.656 32.99 112.608C33.0712 112.563 33.1623 112.54 33.255 112.54C33.3476 112.54 33.4388 112.563 33.52 112.608L64.77 129.998C64.8538 130.044 64.9234 130.112 64.9711 130.195C65.0187 130.278 65.0425 130.373 65.04 130.468V167.188C65.0374 167.328 64.9807 167.461 64.8819 167.56C64.7831 167.659 64.6497 167.716 64.51 167.718V167.748ZM33.78 149.478L64 166.308V130.808L33.78 113.998V149.478Z" fill="#000E0A"/>
<path d="M33.2402 113.108L64.7002 130.568L93.2402 114.568L61.7902 97.1182L33.2402 113.108Z" fill="#CFE8CC"/>
<path d="M64.6998 131.098C64.6083 131.1 64.518 131.076 64.4398 131.028L32.9998 113.578C32.919 113.53 32.852 113.462 32.8054 113.381C32.7589 113.299 32.7344 113.207 32.7344 113.113C32.7344 113.019 32.7589 112.927 32.8054 112.845C32.852 112.764 32.919 112.696 32.9998 112.648L61.5498 96.6481C61.6292 96.6034 61.7187 96.58 61.8098 96.58C61.9009 96.58 61.9905 96.6034 62.0698 96.6481L93.5198 114.108C93.6022 114.153 93.6708 114.22 93.7183 114.301C93.7658 114.382 93.7906 114.474 93.7898 114.568C93.7928 114.662 93.7691 114.756 93.7213 114.837C93.6735 114.919 93.6037 114.985 93.5198 115.028L64.9998 130.998C64.913 131.062 64.8079 131.097 64.6998 131.098ZM34.3298 113.098L64.6998 129.998L92.1498 114.608L61.7898 97.7181L34.3298 113.098Z" fill="#000E0A"/>
<path d="M93.2399 152.458L65.0898 167.468V130.378L93.2399 114.568V152.458Z" fill="#1E6550"/>
<path d="M65.1001 167.998C65.0014 167.996 64.9049 167.969 64.8201 167.918C64.7424 167.871 64.6778 167.805 64.6324 167.726C64.5869 167.648 64.562 167.559 64.5601 167.468V130.388C64.5606 130.292 64.5869 130.198 64.6361 130.115C64.6854 130.032 64.7558 129.964 64.8401 129.918L93.0001 114.108C93.0806 114.062 93.172 114.037 93.2651 114.037C93.3581 114.037 93.4495 114.062 93.5301 114.108C93.6092 114.156 93.6746 114.224 93.7202 114.304C93.7657 114.385 93.7898 114.476 93.7901 114.568V152.458C93.7905 152.555 93.7647 152.649 93.7154 152.732C93.6661 152.815 93.5951 152.883 93.5101 152.928L65.3701 167.928C65.2892 167.978 65.1951 168.003 65.1001 167.998ZM65.6301 130.688V166.578L92.7101 152.128V115.478L65.6301 130.688Z" fill="#000E0A"/>
<path d="M25.0801 53.2082L56.3501 70.6282V33.9082L25.0801 16.4882V53.2082Z" fill="#99CAAB"/>
<path d="M56.3498 71.158C56.2597 71.1585 56.1706 71.138 56.0898 71.098L24.8198 53.668C24.7375 53.6229 24.6689 53.5563 24.6213 53.4753C24.5738 53.3943 24.5491 53.3019 24.5498 53.208V16.488C24.5501 16.3955 24.5742 16.3046 24.6197 16.2241C24.6652 16.1435 24.7307 16.076 24.8098 16.028C24.8904 15.9815 24.9818 15.957 25.0748 15.957C25.1678 15.957 25.2592 15.9815 25.3398 16.028L56.6098 33.458C56.6922 33.5032 56.7607 33.5698 56.8083 33.6508C56.8558 33.7318 56.8805 33.8241 56.8798 33.918V70.628C56.8795 70.7206 56.8554 70.8115 56.8099 70.892C56.7644 70.9726 56.6989 71.0401 56.6198 71.088C56.5383 71.1365 56.4446 71.1608 56.3498 71.158ZM25.6098 52.898L55.8198 69.728V34.218L25.6098 17.388V52.898Z" fill="#000E0A"/>
<path d="M25.0801 16.5282L56.5401 33.9782L85.0801 17.9882L53.6301 0.528198L25.0801 16.5282Z" fill="#EEF4ED"/>
<path d="M56.5398 34.5182C56.4489 34.5152 56.3599 34.4912 56.2798 34.4482L24.8298 16.9982C24.7468 16.9503 24.6775 16.882 24.6285 16.7997C24.5795 16.7174 24.5524 16.6239 24.5498 16.5282C24.5491 16.4342 24.5738 16.3419 24.6213 16.2609C24.6689 16.1799 24.7375 16.1133 24.8198 16.0682L53.3698 0.0681559C53.4492 0.0234735 53.5387 0 53.6298 0C53.7209 0 53.8104 0.0234735 53.8898 0.0681559L85.3398 17.5182C85.422 17.5644 85.4909 17.631 85.54 17.7115C85.589 17.7921 85.6165 17.8839 85.6198 17.9782C85.6203 18.0746 85.5945 18.1693 85.5452 18.2521C85.4958 18.3349 85.4248 18.4027 85.3398 18.4482L56.7998 34.4482C56.7197 34.4912 56.6307 34.5152 56.5398 34.5182ZM26.1698 16.5182L56.5398 33.3682L83.9998 17.9982L53.6298 1.13816L26.1698 16.5182Z" fill="#000E0A"/>
<path d="M85.0802 55.8682L56.9302 70.8882V33.7982L85.0802 17.9882V55.8682Z" fill="#1E6550"/>
<path d="M56.9299 71.4181C56.8352 71.4198 56.7419 71.3956 56.6599 71.3481C56.5808 71.3002 56.5153 71.2327 56.4698 71.1521C56.4243 71.0716 56.4002 70.9807 56.3999 70.8881V33.7981C56.4012 33.7047 56.4268 33.6131 56.4741 33.5325C56.5215 33.4519 56.5889 33.3849 56.6699 33.3382L84.8199 17.5182C84.9005 17.4716 84.9919 17.4471 85.0849 17.4471C85.1779 17.4471 85.2693 17.4716 85.3499 17.5182C85.4309 17.5649 85.4983 17.6319 85.5457 17.7125C85.593 17.7931 85.6186 17.8847 85.6199 17.9781V55.8681C85.6206 55.9658 85.5937 56.0617 85.5425 56.1448C85.4912 56.228 85.4175 56.295 85.3299 56.3382L57.1899 71.3381C57.1108 71.385 57.0217 71.4125 56.9299 71.4181ZM57.4699 34.1082V69.9981L84.5499 55.5481V18.8881L57.4699 34.1082Z" fill="#000E0A"/>
<path d="M132.52 242.728L163.79 260.148V223.438L132.52 206.008V242.728Z" fill="#99CAAB"/>
<path d="M163.79 260.688C163.699 260.685 163.61 260.661 163.53 260.618L132.26 243.198C132.178 243.15 132.11 243.081 132.063 242.999C132.016 242.916 131.991 242.823 131.99 242.728V205.998C131.99 205.906 132.014 205.815 132.06 205.734C132.105 205.654 132.171 205.586 132.25 205.538C132.331 205.493 132.422 205.47 132.515 205.47C132.608 205.47 132.699 205.493 132.78 205.538L164.05 222.998C164.134 223.044 164.203 223.112 164.251 223.195C164.299 223.278 164.323 223.373 164.32 223.468V260.178C164.321 260.271 164.297 260.362 164.251 260.443C164.206 260.524 164.14 260.591 164.06 260.638C163.976 260.68 163.883 260.697 163.79 260.688ZM133.05 242.418L163.26 259.248V223.748L133.05 206.918V242.418Z" fill="#000E0A"/>
<path d="M132.52 206.058L163.98 223.508L192.52 207.508L161.07 190.058L132.52 206.058Z" fill="#EEF4ED"/>
<path d="M164 223.998C163.908 224 163.818 223.976 163.74 223.928L132.28 206.478C132.199 206.431 132.132 206.364 132.084 206.284C132.037 206.203 132.011 206.112 132.01 206.018C132.007 205.923 132.031 205.828 132.079 205.745C132.127 205.662 132.196 205.594 132.28 205.548L160.83 189.548C160.909 189.503 160.999 189.48 161.09 189.48C161.181 189.48 161.271 189.503 161.35 189.548L192.78 206.998C192.863 207.045 192.932 207.113 192.98 207.196C193.027 207.279 193.051 207.373 193.05 207.468C193.051 207.562 193.026 207.654 192.978 207.735C192.931 207.816 192.862 207.883 192.78 207.928L164.24 223.928C164.168 223.972 164.085 223.996 164 223.998ZM133.63 205.998L164 222.898L191.45 207.508L161.09 190.658L133.63 205.998Z" fill="#000E0A"/>
<path d="M192.52 245.398L164.38 260.408V223.318L192.52 207.508V245.398Z" fill="#5D8F76"/>
<path d="M164.38 260.938C164.282 260.941 164.185 260.917 164.1 260.868C164.021 260.82 163.956 260.753 163.91 260.672C163.864 260.592 163.84 260.501 163.84 260.408V223.318C163.841 223.225 163.867 223.133 163.914 223.052C163.962 222.972 164.029 222.905 164.11 222.858L192.26 207.048C192.34 207 192.432 206.974 192.525 206.974C192.619 206.974 192.71 207 192.79 207.048C192.871 207.095 192.937 207.162 192.983 207.243C193.029 207.324 193.052 207.415 193.05 207.508V245.398C193.051 245.495 193.025 245.589 192.975 245.672C192.926 245.755 192.855 245.823 192.77 245.868L164.63 260.868C164.553 260.91 164.468 260.934 164.38 260.938ZM164.91 223.638V259.528L192 245.078V208.418L164.91 223.638Z" fill="#000E0A"/>
<path d="M297.02 165.368L328.29 182.788V146.068L297.02 128.648V165.368Z" fill="#99CAAB"/>
<path d="M328.29 183.318C328.2 183.319 328.111 183.298 328.03 183.258L296.76 165.828C296.676 165.784 296.606 165.717 296.557 165.636C296.508 165.556 296.481 165.463 296.48 165.368V128.648C296.48 128.554 296.505 128.463 296.553 128.382C296.6 128.301 296.668 128.234 296.75 128.188C296.829 128.142 296.918 128.117 297.01 128.117C297.101 128.117 297.191 128.142 297.27 128.188L328.54 145.618C328.623 145.663 328.693 145.729 328.743 145.81C328.792 145.891 328.819 145.984 328.82 146.078V182.798C328.821 182.868 328.809 182.938 328.782 183.003C328.756 183.068 328.717 183.127 328.668 183.176C328.618 183.225 328.559 183.264 328.494 183.291C328.429 183.317 328.36 183.33 328.29 183.328V183.318ZM297.55 165.058L327.75 181.888V146.378L297.55 129.548V165.058Z" fill="#000E0A"/>
<path d="M297.02 128.688L328.47 146.138L357.02 130.148L325.56 112.688L297.02 128.688Z" fill="#EEF4ED"/>
<path d="M328.47 146.678C328.378 146.68 328.288 146.656 328.21 146.608L296.76 129.158C296.677 129.11 296.608 129.042 296.559 128.96C296.51 128.877 296.483 128.784 296.48 128.688C296.481 128.593 296.508 128.501 296.557 128.42C296.606 128.339 296.676 128.273 296.76 128.228L325.3 112.228C325.379 112.184 325.469 112.16 325.56 112.16C325.651 112.16 325.741 112.184 325.82 112.228L357.28 129.678C357.36 129.726 357.427 129.793 357.474 129.873C357.522 129.954 357.548 130.045 357.55 130.138C357.553 130.234 357.529 130.328 357.481 130.411C357.433 130.494 357.364 130.562 357.28 130.608L328.73 146.608C328.65 146.651 328.561 146.675 328.47 146.678ZM298.11 128.678L328.47 145.528L355.93 130.138L325.56 113.298L298.11 128.678Z" fill="#000E0A"/>
<path d="M357.02 168.028L328.87 183.048V145.958L357.02 130.148V168.028Z" fill="#1E6550"/>
<path d="M328.87 183.578C328.772 183.58 328.675 183.556 328.59 183.508C328.512 183.46 328.448 183.392 328.404 183.311C328.36 183.23 328.338 183.14 328.34 183.048V145.998C328.339 145.904 328.364 145.812 328.411 145.731C328.459 145.65 328.528 145.583 328.61 145.538L356.76 129.718C356.841 129.672 356.933 129.649 357.026 129.65C357.12 129.651 357.211 129.677 357.291 129.724C357.371 129.772 357.437 129.84 357.483 129.921C357.528 130.003 357.551 130.095 357.55 130.188V167.998C357.55 168.094 357.525 168.189 357.475 168.272C357.426 168.355 357.355 168.423 357.27 168.468L329.12 183.468C329.047 183.524 328.961 183.562 328.87 183.578ZM329.4 146.268V182.158L356.49 167.708V131.048L329.4 146.268Z" fill="#000E0A"/>
<path d="M141.72 158.118L172.99 175.538V138.818L141.72 121.398V158.118Z" fill="#99CAAB"/>
<path d="M173 176.068C172.908 176.07 172.818 176.046 172.74 175.998L141.47 158.578C141.388 158.533 141.319 158.466 141.271 158.385C141.224 158.304 141.199 158.212 141.2 158.118V121.398C141.2 121.306 141.224 121.215 141.27 121.134C141.315 121.054 141.381 120.986 141.46 120.938C141.541 120.892 141.632 120.867 141.725 120.867C141.818 120.867 141.909 120.892 141.99 120.938L173.26 138.358C173.342 138.403 173.411 138.47 173.458 138.551C173.506 138.632 173.531 138.724 173.53 138.818V175.538C173.53 175.631 173.506 175.722 173.46 175.802C173.415 175.883 173.349 175.95 173.27 175.998C173.188 176.046 173.095 176.07 173 176.068ZM142.26 157.808L172.47 174.638V139.128L142.25 122.298L142.26 157.808Z" fill="#000E0A"/>
<path d="M141.72 121.438L173.18 138.898L201.72 122.898L170.27 105.438L141.72 121.438Z" fill="#EEF4ED"/>
<path d="M173.17 139.428C173.082 139.425 172.997 139.401 172.92 139.358L141.46 121.908C141.377 121.861 141.308 121.793 141.26 121.71C141.213 121.628 141.189 121.534 141.19 121.438C141.189 121.344 141.214 121.252 141.262 121.171C141.309 121.09 141.378 121.023 141.46 120.978L170 104.998C170.079 104.954 170.169 104.93 170.26 104.93C170.351 104.93 170.441 104.954 170.52 104.998L202 122.428C202.081 122.476 202.148 122.544 202.194 122.625C202.241 122.707 202.265 122.799 202.265 122.893C202.265 122.987 202.241 123.079 202.194 123.161C202.148 123.242 202.081 123.31 202 123.358L173.45 139.358C173.364 139.404 173.268 139.428 173.17 139.428ZM142.81 121.428L173.17 138.278L200.63 122.888L170.27 106.038L142.81 121.428Z" fill="#000E0A"/>
<path d="M201.72 160.778L173.57 175.798V138.708L201.72 122.898V160.778Z" fill="#5D8F76"/>
<path d="M173.57 176.328C173.475 176.33 173.382 176.306 173.3 176.258C173.221 176.21 173.155 176.143 173.11 176.062C173.064 175.982 173.04 175.891 173.04 175.798V138.708C173.041 138.615 173.067 138.523 173.114 138.443C173.162 138.362 173.229 138.295 173.31 138.248L201.46 122.428C201.541 122.382 201.633 122.359 201.726 122.36C201.82 122.361 201.911 122.387 201.991 122.435C202.071 122.482 202.137 122.55 202.183 122.632C202.228 122.713 202.251 122.805 202.25 122.898V160.778C202.251 160.875 202.225 160.969 202.175 161.052C202.126 161.135 202.055 161.203 201.97 161.248L173.82 176.248C173.745 176.296 173.659 176.324 173.57 176.328ZM174.1 138.998V174.888L201.19 160.438V123.808L174.1 138.998Z" fill="#000E0A"/>
<path d="M219.41 265.688L250.68 283.108V246.388L219.41 228.968V265.688Z" fill="#99CAAB"/>
<path d="M250.68 283.638C250.588 283.64 250.498 283.616 250.42 283.568L219.15 266.148C219.068 266.103 218.999 266.036 218.951 265.955C218.904 265.874 218.879 265.782 218.88 265.688V228.998C218.879 228.905 218.902 228.813 218.947 228.732C218.993 228.65 219.059 228.582 219.139 228.534C219.219 228.487 219.31 228.461 219.404 228.46C219.497 228.459 219.589 228.482 219.67 228.528L250.94 245.948C251.022 245.997 251.09 246.065 251.137 246.148C251.184 246.23 251.209 246.323 251.21 246.418V283.138C251.21 283.231 251.186 283.322 251.14 283.402C251.095 283.483 251.029 283.55 250.95 283.598C250.864 283.631 250.772 283.644 250.68 283.638ZM219.94 265.368L250.15 282.198V246.698L219.94 229.868V265.368Z" fill="#000E0A"/>
<path d="M219.41 229.008L250.87 246.458L279.41 230.458L247.96 213.008L219.41 229.008Z" fill="white"/>
<path d="M250.87 246.998C250.78 246.999 250.691 246.978 250.61 246.938L219.15 229.478C219.068 229.433 218.999 229.366 218.952 229.285C218.904 229.204 218.879 229.112 218.88 229.018C218.881 228.923 218.906 228.83 218.953 228.748C219.001 228.665 219.068 228.596 219.15 228.548L247.7 212.548C247.78 212.503 247.869 212.48 247.96 212.48C248.051 212.48 248.141 212.503 248.22 212.548L279.67 229.998C279.752 230.043 279.821 230.11 279.869 230.191C279.916 230.272 279.941 230.364 279.94 230.458C279.94 230.553 279.914 230.646 279.867 230.729C279.82 230.811 279.752 230.88 279.67 230.928L251.12 246.928C251.043 246.97 250.958 246.994 250.87 246.998ZM220.5 228.998L250.86 245.838L278.32 230.458L248 213.618L220.5 228.998Z" fill="#000E0A"/>
<path d="M279.41 268.348L251.26 283.368V246.278L279.41 230.458V268.348Z" fill="#5D8F76"/>
<path d="M251.26 283.898C251.12 283.896 250.987 283.839 250.888 283.74C250.789 283.641 250.733 283.508 250.73 283.368V246.278C250.731 246.185 250.757 246.093 250.804 246.012C250.852 245.932 250.919 245.865 251 245.818L279.15 229.998C279.231 229.953 279.322 229.93 279.415 229.93C279.508 229.93 279.599 229.953 279.68 229.998C279.759 230.046 279.825 230.114 279.87 230.194C279.916 230.275 279.94 230.366 279.94 230.458V268.348C279.943 268.445 279.918 268.541 279.868 268.624C279.819 268.707 279.746 268.774 279.66 268.818L251.51 283.818C251.435 283.866 251.349 283.894 251.26 283.898ZM251.8 246.588V282.478L278.88 267.998V231.368L251.8 246.588Z" fill="#000E0A"/>
<path d="M207.75 188.488L239.02 205.908V169.188L207.75 151.768V188.488Z" fill="#99CAAB"/>
<path d="M239 206.438C238.908 206.44 238.818 206.416 238.74 206.368L207.49 188.998C207.408 188.953 207.339 188.886 207.292 188.805C207.244 188.724 207.219 188.632 207.22 188.538V151.768C207.219 151.675 207.242 151.583 207.287 151.502C207.333 151.42 207.399 151.352 207.479 151.304C207.559 151.257 207.65 151.231 207.744 151.23C207.837 151.229 207.929 151.252 208.01 151.298L239.28 168.718C239.361 168.768 239.427 168.837 239.474 168.919C239.522 169.001 239.548 169.094 239.55 169.188V205.908C239.551 205.978 239.539 206.048 239.512 206.113C239.486 206.178 239.447 206.236 239.398 206.286C239.348 206.335 239.289 206.374 239.224 206.401C239.16 206.427 239.09 206.44 239.02 206.438H239ZM208.26 188.178L238.48 204.998V169.498L208.28 152.668L208.26 188.178Z" fill="#000E0A"/>
<path d="M207.75 151.808L239.2 169.258L267.75 153.258L236.29 135.808L207.75 151.808Z" fill="#EEF4ED"/>
<path d="M239.2 169.788C239.11 169.789 239.021 169.768 238.94 169.728L207.49 152.268C207.408 152.223 207.339 152.156 207.292 152.075C207.244 151.994 207.219 151.902 207.22 151.808C207.219 151.713 207.243 151.619 207.29 151.536C207.338 151.453 207.407 151.385 207.49 151.338L236.03 135.338C236.11 135.296 236.199 135.274 236.29 135.274C236.381 135.274 236.47 135.296 236.55 135.338L268 152.798C268.082 152.843 268.151 152.91 268.199 152.991C268.246 153.072 268.271 153.164 268.27 153.258C268.271 153.354 268.247 153.448 268.2 153.53C268.152 153.613 268.083 153.681 268 153.728L239.45 169.728C239.372 169.767 239.287 169.787 239.2 169.788ZM208.84 151.788L239.2 168.628L266.66 153.248L236.3 136.418L208.84 151.788Z" fill="#000E0A"/>
<path d="M267.75 191.148L239.6 206.168V169.078L267.75 153.258V191.148Z" fill="#035946"/>
<path d="M239.6 206.698C239.506 206.696 239.413 206.672 239.33 206.628C239.251 206.58 239.185 206.513 239.14 206.432C239.094 206.352 239.07 206.261 239.07 206.168V169.078C239.069 168.984 239.094 168.892 239.142 168.811C239.189 168.73 239.258 168.663 239.34 168.618L267.49 152.798C267.571 152.753 267.662 152.729 267.754 152.73C267.846 152.731 267.937 152.755 268.017 152.802C268.097 152.848 268.163 152.915 268.209 152.995C268.255 153.075 268.28 153.166 268.28 153.258V191.148C268.281 191.245 268.255 191.339 268.205 191.422C268.156 191.505 268.085 191.573 268 191.618L239.85 206.618C239.775 206.665 239.689 206.692 239.6 206.698ZM240.13 169.388V205.278L267.22 190.828V154.168L240.13 169.388Z" fill="#000E0A"/>
<path d="M196.23 234.568L227.5 251.988V215.268L196.23 197.838V234.568Z" fill="#99CAAB"/>
<path d="M227.5 252.518C227.408 252.52 227.318 252.496 227.24 252.448L196 234.998C195.918 234.953 195.849 234.886 195.802 234.805C195.754 234.724 195.729 234.632 195.73 234.538V197.848C195.729 197.755 195.752 197.663 195.797 197.582C195.843 197.5 195.909 197.432 195.989 197.384C196.069 197.337 196.16 197.311 196.254 197.31C196.347 197.309 196.439 197.332 196.52 197.378L227.79 214.798C227.872 214.846 227.94 214.915 227.987 214.998C228.034 215.08 228.059 215.173 228.06 215.268V251.998C228.06 252.091 228.036 252.182 227.99 252.262C227.945 252.343 227.879 252.41 227.8 252.458C227.706 252.501 227.603 252.521 227.5 252.518ZM196.76 234.248L227 251.078V215.578L196.79 198.748L196.76 234.248Z" fill="#000E0A"/>
<path d="M196.23 197.888L227.68 215.338L256.23 199.338L224.77 181.888L196.23 197.888Z" fill="white"/>
<path d="M227.68 215.868C227.59 215.869 227.501 215.848 227.42 215.808L196 198.348C195.918 198.303 195.849 198.236 195.802 198.155C195.754 198.074 195.729 197.982 195.73 197.888C195.731 197.793 195.756 197.7 195.803 197.618C195.85 197.535 195.918 197.466 196 197.418L224.54 181.418C224.62 181.376 224.709 181.354 224.8 181.354C224.891 181.354 224.98 181.376 225.06 181.418L256.52 198.878C256.601 198.925 256.668 198.992 256.716 199.072C256.763 199.153 256.789 199.245 256.79 199.338C256.789 199.433 256.764 199.526 256.717 199.609C256.67 199.691 256.602 199.76 256.52 199.808L227.97 215.808C227.88 215.853 227.78 215.874 227.68 215.868ZM197.32 197.868L227.68 214.708L255.14 199.318L224.78 182.498L197.32 197.868Z" fill="#000E0A"/>
<path d="M256.23 237.228L228.08 252.248V215.158L256.23 199.338V237.228Z" fill="#035946"/>
<path d="M228.08 252.778C227.94 252.776 227.807 252.719 227.708 252.62C227.609 252.521 227.552 252.388 227.55 252.248V215.158C227.55 215.063 227.576 214.97 227.623 214.888C227.67 214.805 227.738 214.736 227.82 214.688L256 198.878C256.081 198.833 256.172 198.81 256.265 198.81C256.357 198.81 256.449 198.833 256.53 198.878C256.609 198.926 256.674 198.994 256.72 199.074C256.765 199.155 256.79 199.246 256.79 199.338V237.228C256.787 237.324 256.76 237.417 256.711 237.5C256.662 237.582 256.593 237.65 256.51 237.698L228.36 252.698C228.276 252.75 228.179 252.778 228.08 252.778ZM228.61 215.468V251.358L255.7 236.908V200.248L228.61 215.468Z" fill="#000E0A"/>
<path d="M173.38 208.098L204.65 225.518V188.798L173.38 171.378V208.098Z" fill="#99CAAB"/>
<path d="M204.65 226.048C204.562 226.05 204.475 226.026 204.4 225.978L173.13 208.558C173.047 208.514 172.977 208.447 172.927 208.366C172.878 208.285 172.851 208.193 172.85 208.098V171.378C172.849 171.284 172.874 171.192 172.922 171.111C172.969 171.03 173.038 170.963 173.12 170.918C173.199 170.872 173.289 170.847 173.38 170.847C173.472 170.847 173.561 170.872 173.64 170.918L204.91 188.338C204.994 188.384 205.065 188.452 205.114 188.535C205.163 188.618 205.19 188.712 205.19 188.808V225.528C205.19 225.622 205.165 225.714 205.117 225.795C205.07 225.875 205.002 225.942 204.92 225.988C204.838 226.033 204.744 226.054 204.65 226.048ZM173.92 207.778L204.12 224.608V189.108L173.92 172.278V207.778Z" fill="#000E0A"/>
<path d="M173.38 171.418L204.84 188.868L233.38 172.868L201.93 155.418L173.38 171.418Z" fill="#EEF4ED"/>
<path d="M204.84 189.398C204.75 189.399 204.661 189.378 204.58 189.338L173.13 171.888C173.047 171.84 172.978 171.772 172.929 171.69C172.88 171.607 172.853 171.514 172.85 171.418C172.853 171.324 172.879 171.231 172.926 171.149C172.973 171.067 173.04 170.998 173.12 170.948L201.67 154.948C201.75 154.906 201.84 154.884 201.93 154.884C202.021 154.884 202.11 154.906 202.19 154.948L233.64 172.408C233.724 172.453 233.794 172.519 233.843 172.6C233.892 172.681 233.919 172.773 233.92 172.868C233.92 172.963 233.894 173.056 233.847 173.139C233.8 173.221 233.732 173.29 233.65 173.338L205.1 189.338C205.019 189.378 204.93 189.399 204.84 189.398ZM174.48 171.398L204.84 188.238L232.3 172.858L201.93 155.998L174.48 171.398Z" fill="#000E0A"/>
<path d="M233.38 210.758L205.24 225.778V188.688L233.38 172.868V210.758Z" fill="#035946"/>
<path d="M205.24 226.308C205.141 226.311 205.043 226.283 204.96 226.228C204.881 226.183 204.817 226.117 204.773 226.038C204.729 225.958 204.707 225.869 204.71 225.778V188.688C204.709 188.594 204.734 188.502 204.782 188.421C204.829 188.34 204.898 188.273 204.98 188.228L233.13 172.408C233.211 172.363 233.301 172.339 233.394 172.34C233.486 172.341 233.577 172.365 233.657 172.412C233.737 172.458 233.803 172.525 233.849 172.605C233.895 172.685 233.92 172.776 233.92 172.868V210.758C233.921 210.855 233.895 210.949 233.845 211.032C233.796 211.115 233.725 211.183 233.64 211.228L205.49 226.228C205.414 226.274 205.328 226.301 205.24 226.308ZM205.77 188.998V224.888L232.85 210.438V173.778L205.77 188.998Z" fill="#000E0A"/>
<path d="M243.5 208.448L274.77 225.878V189.148L243.5 171.728V208.448Z" fill="#99CAAB"/>
<path d="M274.77 226.408C274.679 226.405 274.59 226.381 274.51 226.338L243.24 208.918C243.156 208.872 243.085 208.804 243.036 208.721C242.987 208.639 242.961 208.544 242.96 208.448V171.728C242.962 171.635 242.988 171.545 243.036 171.465C243.083 171.386 243.15 171.319 243.231 171.273C243.311 171.227 243.402 171.202 243.495 171.201C243.587 171.2 243.679 171.223 243.76 171.268L275 188.688C275.081 188.735 275.148 188.802 275.196 188.882C275.243 188.963 275.269 189.055 275.27 189.148V225.878C275.27 225.969 275.246 226.059 275.2 226.138C275.155 226.217 275.089 226.282 275.01 226.328C274.937 226.373 274.855 226.4 274.77 226.408ZM244 208.138L274.24 224.998V189.498L244 172.638V208.138Z" fill="#000E0A"/>
<path d="M243.5 171.778L274.95 189.228L303.5 173.228L272.04 155.778L243.5 171.778Z" fill="#EEF4ED"/>
<path d="M275 189.758C274.909 189.76 274.818 189.736 274.74 189.688L243.29 172.238C243.207 172.191 243.137 172.123 243.088 172.041C243.039 171.958 243.012 171.864 243.01 171.768C243.013 171.674 243.04 171.582 243.089 171.501C243.138 171.42 243.207 171.354 243.29 171.308L271.83 155.308C271.91 155.264 271.999 155.24 272.09 155.24C272.181 155.24 272.271 155.264 272.35 155.308L303.81 172.758C303.891 172.808 303.958 172.877 304.005 172.959C304.052 173.041 304.078 173.134 304.08 173.228C304.081 173.322 304.056 173.415 304.009 173.496C303.961 173.577 303.893 173.643 303.81 173.688L275.26 189.688C275.182 189.736 275.092 189.76 275 189.758ZM244.64 171.758L275 188.618L302.46 173.228L272.1 156.378L244.64 171.758Z" fill="#000E0A"/>
<path d="M303.5 211.108L275.35 226.128V189.038L303.5 173.228V211.108Z" fill="#5D8F76"/>
<path d="M275.35 226.668C275.254 226.668 275.161 226.64 275.08 226.588C275.001 226.54 274.936 226.473 274.89 226.392C274.844 226.312 274.82 226.221 274.82 226.128V189.048C274.819 188.953 274.843 188.859 274.891 188.776C274.938 188.693 275.007 188.625 275.09 188.578L303.24 172.768C303.32 172.72 303.412 172.694 303.505 172.694C303.599 172.694 303.69 172.72 303.77 172.768C303.85 172.815 303.916 172.883 303.962 172.963C304.007 173.044 304.031 173.135 304.03 173.228V211.108C304.031 211.205 304.005 211.299 303.955 211.382C303.906 211.465 303.835 211.533 303.75 211.578L275.6 226.578C275.527 226.632 275.44 226.663 275.35 226.668ZM275.88 189.358V225.248L303 210.798V174.138L275.88 189.358Z" fill="#000E0A"/>
<path d="M209.75 228.438L241.02 245.868V209.138L209.75 191.718V228.438Z" fill="#99CAAB"/>
<path d="M241 246.398C240.909 246.395 240.82 246.371 240.74 246.328L209.47 228.908C209.386 228.862 209.315 228.794 209.266 228.711C209.217 228.629 209.191 228.534 209.19 228.438V191.718C209.189 191.625 209.214 191.534 209.261 191.455C209.309 191.375 209.378 191.311 209.46 191.268C209.539 191.222 209.628 191.197 209.72 191.197C209.811 191.197 209.901 191.222 209.98 191.268L241.25 208.688C241.333 208.733 241.404 208.799 241.453 208.88C241.502 208.961 241.529 209.053 241.53 209.148V245.878C241.53 245.971 241.505 246.061 241.457 246.141C241.41 246.22 241.342 246.285 241.26 246.328C241.181 246.375 241.091 246.399 241 246.398ZM210.26 228.128L240.48 244.998V209.498L210.28 192.668L210.26 228.128Z" fill="#000E0A"/>
<path d="M209.75 191.768L241.2 209.218L269.75 193.218L238.29 175.768L209.75 191.768Z" fill="#EEF4ED"/>
<path d="M241.2 209.748C241.108 209.75 241.018 209.726 240.94 209.678L209.49 192.228C209.406 192.183 209.336 192.117 209.287 192.036C209.238 191.955 209.211 191.863 209.21 191.768C209.211 191.673 209.236 191.58 209.283 191.498C209.33 191.415 209.398 191.346 209.48 191.298L238.03 175.298C238.109 175.253 238.199 175.23 238.29 175.23C238.381 175.23 238.471 175.253 238.55 175.298L270 192.748C270.083 192.796 270.152 192.864 270.201 192.947C270.25 193.029 270.277 193.122 270.28 193.218C270.279 193.312 270.253 193.403 270.206 193.484C270.158 193.564 270.091 193.631 270.01 193.678L241.46 209.678C241.382 209.726 241.292 209.75 241.2 209.748ZM210.84 191.748L241.2 208.598L268.66 193.208L238.29 176.358L210.84 191.748Z" fill="#000E0A"/>
<path d="M269.75 231.098L241.6 246.128V209.038L269.75 193.218V231.098Z" fill="#5D8F76"/>
<path d="M241.6 246.658C241.501 246.656 241.405 246.629 241.32 246.578C241.242 246.53 241.178 246.462 241.134 246.381C241.091 246.3 241.068 246.21 241.07 246.118V208.998C241.069 208.903 241.093 208.809 241.141 208.726C241.188 208.643 241.257 208.575 241.34 208.528L269.49 192.718C269.568 192.669 269.658 192.643 269.75 192.643C269.842 192.643 269.932 192.669 270.01 192.718C270.092 192.764 270.16 192.831 270.207 192.912C270.255 192.992 270.28 193.084 270.28 193.178V231.068C270.278 231.164 270.25 231.257 270.201 231.34C270.152 231.422 270.083 231.49 270 231.538L241.85 246.538C241.781 246.602 241.694 246.644 241.6 246.658ZM242.13 209.348V245.238L269.21 230.788V194.128L242.13 209.348Z" fill="#000E0A"/>
<path d="M274.73 242.548L306 259.978V223.248L274.73 205.828V242.548Z" fill="#99CAAB"/>
<path d="M306 260.508C305.909 260.505 305.82 260.481 305.74 260.438L274.47 242.998C274.387 242.951 274.318 242.883 274.27 242.8C274.223 242.718 274.199 242.624 274.2 242.528V205.828C274.199 205.737 274.223 205.647 274.268 205.568C274.314 205.488 274.38 205.423 274.46 205.378C274.541 205.332 274.632 205.307 274.725 205.307C274.818 205.307 274.909 205.332 274.99 205.378L306.26 222.798C306.342 222.843 306.411 222.91 306.458 222.991C306.506 223.072 306.531 223.164 306.53 223.258V259.998C306.527 260.138 306.471 260.271 306.372 260.37C306.273 260.469 306.14 260.526 306 260.528V260.508ZM275.26 242.238L305.47 259.068V223.568L275.26 206.738V242.238Z" fill="#000E0A"/>
<path d="M274.73 205.868L306.18 223.328L334.73 207.328L303.28 189.878L274.73 205.868Z" fill="#EEF4ED"/>
<path d="M306.18 223.858C306.089 223.859 305.999 223.834 305.92 223.788L274.47 206.338C274.388 206.292 274.32 206.225 274.273 206.145C274.226 206.064 274.2 205.972 274.2 205.878C274.198 205.783 274.221 205.688 274.269 205.605C274.317 205.522 274.386 205.454 274.47 205.408L303.02 189.408C303.098 189.364 303.186 189.341 303.275 189.341C303.364 189.341 303.452 189.364 303.53 189.408L335 206.858C335.082 206.906 335.15 206.975 335.197 207.058C335.244 207.14 335.27 207.233 335.27 207.328C335.271 207.422 335.246 207.514 335.199 207.595C335.151 207.676 335.082 207.743 335 207.788L306.45 223.788C306.369 223.838 306.275 223.862 306.18 223.858ZM275.82 205.858L306.18 222.708L333.64 207.318L303.28 190.468L275.82 205.858Z" fill="#000E0A"/>
<path d="M334.73 245.218L306.58 260.228V223.138L334.73 207.328V245.218Z" fill="#1E6550"/>
<path d="M306.58 260.758C306.485 260.76 306.392 260.736 306.31 260.688C306.231 260.64 306.166 260.573 306.12 260.492C306.074 260.412 306.05 260.321 306.05 260.228V223.138C306.049 223.044 306.074 222.952 306.122 222.871C306.169 222.79 306.238 222.723 306.32 222.678L334.47 206.868C334.55 206.82 334.642 206.794 334.735 206.794C334.829 206.794 334.92 206.82 335 206.868C335.079 206.916 335.145 206.984 335.19 207.064C335.236 207.145 335.26 207.236 335.26 207.328V245.218C335.258 245.314 335.23 245.407 335.181 245.49C335.132 245.572 335.063 245.64 334.98 245.688L306.83 260.688C306.754 260.732 306.668 260.756 306.58 260.758ZM307.11 223.458V259.348L334.2 244.898V208.238L307.11 223.458Z" fill="#000E0A"/>
<path d="M88.1602 200.778L119.43 218.198V181.478L88.1602 164.058V200.778Z" fill="#99CAAB"/>
<path d="M119.43 218.728C119.339 218.73 119.248 218.706 119.17 218.658L87.9001 201.238C87.8166 201.194 87.7466 201.127 87.6973 201.046C87.6481 200.966 87.6214 200.873 87.6201 200.778V164.058C87.6207 163.965 87.6456 163.873 87.6923 163.792C87.739 163.711 87.8059 163.643 87.8866 163.596C87.9672 163.549 88.0588 163.523 88.1523 163.522C88.2459 163.52 88.3381 163.543 88.4201 163.588L119.69 180.998C119.771 181.045 119.839 181.112 119.886 181.193C119.933 181.273 119.959 181.365 119.96 181.458V218.198C119.961 218.268 119.949 218.338 119.923 218.403C119.896 218.468 119.857 218.527 119.808 218.576C119.758 218.625 119.699 218.664 119.635 218.691C119.57 218.717 119.5 218.73 119.43 218.728ZM88.6901 200.468L118.89 217.298V181.788L88.6901 164.998V200.468Z" fill="#000E0A"/>
<path d="M88.1602 164.098L119.61 181.548L148.16 165.558L116.7 148.098L88.1602 164.098Z" fill="#EEF4ED"/>
<path d="M119.61 182.088C119.519 182.085 119.43 182.061 119.35 182.018L87.9001 164.558C87.8179 164.512 87.749 164.445 87.7 164.365C87.6509 164.284 87.6234 164.192 87.6201 164.098C87.6214 164.003 87.6481 163.911 87.6973 163.83C87.7466 163.749 87.8166 163.683 87.9001 163.638L116.44 147.638C116.519 147.593 116.609 147.57 116.7 147.57C116.791 147.57 116.881 147.593 116.96 147.638L148.42 165.088C148.501 165.136 148.568 165.204 148.615 165.285C148.661 165.367 148.686 165.459 148.686 165.553C148.686 165.647 148.661 165.739 148.615 165.821C148.568 165.902 148.501 165.97 148.42 166.018L119.87 182.018C119.79 182.061 119.701 182.085 119.61 182.088ZM89.2501 164.088L119.61 180.998L147.07 165.608L116.7 148.708L89.2501 164.088Z" fill="#000E0A"/>
<path d="M148.16 203.438L120.01 218.458V181.368L148.16 165.558V203.438Z" fill="#1E6550"/>
<path d="M120 218.998C119.905 219.001 119.812 218.977 119.73 218.928C119.651 218.88 119.586 218.813 119.54 218.732C119.495 218.652 119.471 218.561 119.47 218.468V181.368C119.47 181.274 119.494 181.182 119.542 181.101C119.589 181.02 119.658 180.953 119.74 180.908L147.89 165.088C147.971 165.043 148.062 165.019 148.154 165.02C148.246 165.021 148.337 165.046 148.417 165.092C148.497 165.138 148.563 165.205 148.609 165.285C148.655 165.365 148.68 165.456 148.68 165.548V203.438C148.681 203.535 148.655 203.629 148.606 203.712C148.556 203.795 148.485 203.863 148.4 203.908L120.25 218.908C120.175 218.957 120.089 218.988 120 218.998ZM120.53 181.688V217.578L147.62 203.128V166.458L120.53 181.688Z" fill="#000E0A"/>
<path d="M-29.21 263.648L2.06004 281.078V244.358L-29.21 226.928V263.648Z" fill="#99CAAB"/>
<path d="M2.05995 281.608C1.96838 281.61 1.87816 281.586 1.79995 281.538L-29.47 264.118C-29.5539 264.072 -29.6235 264.004 -29.6711 263.921C-29.7188 263.838 -29.7426 263.744 -29.74 263.648V226.928C-29.7397 226.836 -29.7153 226.745 -29.6691 226.665C-29.6229 226.585 -29.5566 226.519 -29.4767 226.472C-29.3969 226.426 -29.3063 226.401 -29.2139 226.4C-29.1215 226.399 -29.0306 226.423 -28.95 226.468L2.31995 243.888C2.40309 243.935 2.47206 244.003 2.51958 244.086C2.5671 244.169 2.59141 244.263 2.58995 244.358V281.078C2.58965 281.171 2.56559 281.262 2.52006 281.342C2.47453 281.423 2.40907 281.49 2.32995 281.538C2.24619 281.581 2.15401 281.605 2.05995 281.608ZM-28.68 263.338L1.52995 280.168V244.668L-28.68 227.838V263.338Z" fill="#000E0A"/>
<path d="M-29.21 226.978L2.25004 244.428L30.79 228.428L-0.659962 210.978L-29.21 226.978Z" fill="white"/>
<path d="M2.25027 244.998C2.16012 244.999 2.0711 244.978 1.99027 244.938L-29.4697 227.438C-29.5521 227.393 -29.6207 227.326 -29.6682 227.245C-29.7157 227.164 -29.7405 227.072 -29.7397 226.978C-29.7391 226.883 -29.714 226.79 -29.6666 226.708C-29.6193 226.625 -29.5515 226.556 -29.4697 226.508L-0.919729 210.508C-0.840359 210.463 -0.750814 210.44 -0.659731 210.44C-0.568647 210.44 -0.479103 210.463 -0.399733 210.508L31.0503 227.998C31.1313 228.044 31.1987 228.111 31.2455 228.192C31.2924 228.273 31.317 228.365 31.317 228.458C31.317 228.551 31.2924 228.643 31.2455 228.724C31.1987 228.805 31.1313 228.872 31.0503 228.918L2.51027 244.918C2.43021 244.963 2.34161 244.99 2.25027 244.998ZM-28.1197 226.998L2.24027 243.848L29.7003 228.428L-0.659731 211.588L-28.1197 226.998Z" fill="#000E0A"/>
<path d="M30.7899 266.318L2.6499 281.338V244.248L30.7899 228.428V266.318Z" fill="#5D8F76"/>
<path d="M2.63986 281.868C2.54452 281.865 2.45158 281.837 2.36986 281.788C2.29086 281.743 2.22525 281.677 2.17961 281.598C2.13397 281.519 2.10992 281.429 2.10986 281.338V244.248C2.11045 244.152 2.13671 244.058 2.18594 243.975C2.23516 243.892 2.30556 243.824 2.38986 243.778L30.5299 227.998C30.6111 227.953 30.7022 227.93 30.7949 227.93C30.8875 227.93 30.9787 227.953 31.0599 227.998C31.139 228.046 31.2044 228.114 31.25 228.194C31.2955 228.275 31.3196 228.366 31.3199 228.458V266.348C31.3203 266.445 31.2945 266.539 31.2452 266.622C31.1959 266.705 31.1249 266.773 31.0399 266.818L2.89986 281.818C2.81821 281.855 2.72922 281.872 2.63986 281.868ZM3.17986 244.558V280.448L30.2599 265.998V229.338L3.17986 244.558Z" fill="#000E0A"/>
<path d="M144.47 281.208L175.75 298.638V261.918L144.47 244.488V281.208Z" fill="#99CAAB"/>
<path d="M175.75 299.168C175.658 299.17 175.568 299.146 175.49 299.098L144.22 281.678C144.135 281.633 144.064 281.565 144.015 281.482C143.965 281.399 143.939 281.305 143.94 281.208V244.488C143.943 244.397 143.969 244.308 144.016 244.23C144.063 244.151 144.129 244.086 144.208 244.04C144.287 243.994 144.376 243.969 144.467 243.967C144.559 243.965 144.649 243.986 144.73 244.028L176 261.448C176.084 261.495 176.155 261.562 176.204 261.645C176.253 261.728 176.279 261.822 176.28 261.918V298.638C176.28 298.731 176.256 298.822 176.21 298.902C176.165 298.983 176.099 299.05 176.02 299.098C175.936 299.14 175.844 299.164 175.75 299.168ZM145 280.898L175.2 297.728V262.228L145 245.398V280.898Z" fill="#000E0A"/>
<path d="M144.47 244.538L175.93 261.988L204.48 245.988L173.02 228.538L144.47 244.538Z" fill="#EEF4ED"/>
<path d="M175.93 262.518C175.84 262.519 175.751 262.498 175.67 262.458L144.22 244.998C144.136 244.953 144.066 244.887 144.017 244.806C143.968 244.725 143.941 244.633 143.94 244.538C143.941 244.442 143.967 244.348 144.016 244.265C144.065 244.182 144.136 244.114 144.22 244.068L172.76 228.068C172.839 228.023 172.929 228 173.02 228C173.111 228 173.201 228.023 173.28 228.068L204.73 245.528C204.813 245.573 204.883 245.639 204.933 245.72C204.982 245.801 205.009 245.893 205.01 245.988C205.007 246.083 204.982 246.175 204.934 246.257C204.887 246.339 204.82 246.408 204.74 246.458L176.19 262.458C176.111 262.502 176.021 262.523 175.93 262.518ZM145.57 244.518L175.93 261.368L203.38 245.998L173 229.148L145.57 244.518Z" fill="#000E0A"/>
<path d="M204.48 283.878L176.33 298.898V261.808L204.48 245.988V283.878Z" fill="#5D8F76"/>
<path d="M176.33 299.428C176.231 299.426 176.135 299.399 176.05 299.348C175.973 299.301 175.909 299.235 175.866 299.156C175.822 299.077 175.799 298.988 175.8 298.898V261.808C175.799 261.713 175.823 261.619 175.87 261.536C175.918 261.453 175.987 261.385 176.07 261.338L204.22 245.528C204.301 245.483 204.392 245.459 204.484 245.46C204.576 245.461 204.667 245.485 204.747 245.532C204.827 245.578 204.893 245.645 204.939 245.725C204.985 245.805 205.01 245.896 205.01 245.988V283.878C205.008 283.974 204.98 284.067 204.931 284.15C204.882 284.232 204.813 284.3 204.73 284.348L176.58 299.348C176.506 299.398 176.419 299.426 176.33 299.428ZM176.86 262.118V297.998L204 283.558V246.898L176.86 262.118Z" fill="#000E0A"/>
<path d="M-55.4697 146.238L-24.0197 163.688L4.53027 147.688L-26.9197 130.238L-55.4697 146.238Z" fill="#EEF4ED"/>
<path d="M-24 164.218C-24.0868 164.217 -24.1723 164.197 -24.25 164.158L-55.73 146.698C-55.8123 146.653 -55.8809 146.586 -55.9285 146.505C-55.976 146.424 -56.0007 146.332 -56 146.238C-55.9994 146.143 -55.9742 146.05 -55.9269 145.968C-55.8796 145.885 -55.8117 145.816 -55.73 145.768L-27.18 129.768C-27.1006 129.723 -27.0111 129.7 -26.92 129.7C-26.8289 129.7 -26.7394 129.723 -26.66 129.768L4.79002 147.228C4.87236 147.273 4.94095 147.34 4.98849 147.421C5.03603 147.502 5.06075 147.594 5.06002 147.688C5.05943 147.783 5.03425 147.876 4.98693 147.959C4.93962 148.041 4.87178 148.11 4.79002 148.158L-23.76 164.158C-23.8344 164.196 -23.9165 164.217 -24 164.218ZM-54.36 146.218L-24 163.078L3.44001 147.698L-26.92 130.848L-54.36 146.218Z" fill="#000E0A"/>
<path d="M4.52988 185.578L-23.6201 200.598V163.508L4.52988 147.688V185.578Z" fill="#5D8F76"/>
<path d="M-23.6199 201.128C-23.7597 201.126 -23.893 201.069 -23.9918 200.97C-24.0907 200.871 -24.1473 200.738 -24.1499 200.598V163.508C-24.1474 163.414 -24.1215 163.321 -24.0743 163.239C-24.0272 163.157 -23.9604 163.088 -23.8799 163.038L4.2701 147.228C4.35129 147.184 4.44244 147.16 4.5351 147.16C4.62775 147.16 4.7189 147.184 4.8001 147.228C4.87921 147.276 4.94468 147.344 4.99021 147.424C5.03573 147.505 5.0598 147.596 5.0601 147.688V185.578C5.06289 185.675 5.03804 185.771 4.98845 185.854C4.93886 185.937 4.86659 186.005 4.7801 186.048L-23.3699 201.048C-23.4448 201.096 -23.531 201.124 -23.6199 201.128ZM-23.0799 163.818V199.708L4.0001 185.258V148.598L-23.0799 163.818Z" fill="#000E0A"/>
<path d="M63.3799 260.618L94.6499 278.038V241.318L63.3799 223.898V260.618Z" fill="#99CAAB"/>
<path d="M94.6501 278.568C94.5585 278.57 94.4683 278.546 94.3901 278.498L63.1201 261.078C63.0378 261.033 62.9692 260.966 62.9216 260.885C62.8741 260.804 62.8494 260.712 62.8501 260.618V223.898C62.8504 223.806 62.8745 223.715 62.92 223.634C62.9655 223.554 63.031 223.486 63.1101 223.438C63.1907 223.392 63.2821 223.367 63.3751 223.367C63.4681 223.367 63.5595 223.392 63.6401 223.438L94.9101 240.868C94.9936 240.913 95.0636 240.979 95.1129 241.06C95.1621 241.141 95.1888 241.234 95.1901 241.328V277.998C95.1878 278.091 95.1618 278.183 95.1146 278.263C95.0674 278.344 95.0004 278.411 94.9201 278.458C94.843 278.521 94.749 278.559 94.6501 278.568ZM63.9101 260.298L94.1201 277.138V241.628L63.9101 224.798V260.298Z" fill="#000E0A"/>
<path d="M63.3799 223.938L94.8399 241.388L123.38 225.398L91.9299 207.938L63.3799 223.938Z" fill="white"/>
<path d="M94.8401 241.928C94.7492 241.925 94.6602 241.901 94.5801 241.858L63.1301 224.398C63.0466 224.354 62.9766 224.287 62.9273 224.206C62.8781 224.125 62.8514 224.033 62.8501 223.938C62.8494 223.844 62.8741 223.752 62.9216 223.671C62.9692 223.59 63.0378 223.523 63.1201 223.478L91.6701 207.478C91.7495 207.433 91.839 207.41 91.9301 207.41C92.0212 207.41 92.1107 207.433 92.1901 207.478L123.64 224.928C123.724 224.974 123.793 225.041 123.842 225.123C123.89 225.205 123.916 225.298 123.916 225.393C123.916 225.488 123.89 225.582 123.842 225.663C123.793 225.745 123.724 225.813 123.64 225.858L95.1001 241.858C95.02 241.901 94.931 241.925 94.8401 241.928ZM64.4701 223.928L94.8401 240.778L122.29 225.388L91.9301 208.538L64.4701 223.928Z" fill="#000E0A"/>
<path d="M123.38 263.278L95.23 278.298V241.208L123.38 225.398V263.278Z" fill="#5D8F76"/>
<path d="M95.2302 278.828C95.1342 278.83 95.0399 278.802 94.9602 278.748C94.8805 278.703 94.8144 278.638 94.7686 278.559C94.7229 278.48 94.6992 278.39 94.7002 278.298V241.208C94.7016 241.115 94.7271 241.023 94.7745 240.943C94.8218 240.862 94.8893 240.795 94.9702 240.748L123.12 224.928C123.201 224.882 123.292 224.857 123.385 224.857C123.478 224.857 123.57 224.882 123.65 224.928C123.732 224.972 123.8 225.037 123.848 225.116C123.895 225.195 123.92 225.286 123.92 225.378V263.268C123.921 263.366 123.894 263.462 123.843 263.545C123.791 263.628 123.718 263.695 123.63 263.738L95.4902 278.738C95.412 278.789 95.3229 278.819 95.2302 278.828ZM95.7702 241.518V277.408L122.85 262.998V226.298L95.7702 241.518Z" fill="#000E0A"/>
<path d="M12.4102 198.228L43.6802 215.648V178.928L12.4102 161.508V198.228Z" fill="#99CAAB"/>
<path d="M43.6799 216.178C43.5897 216.179 43.5007 216.158 43.4199 216.118L12.1499 198.698C12.0681 198.65 12.0003 198.581 11.953 198.499C11.9056 198.416 11.8805 198.323 11.8799 198.228V161.508C11.8802 161.416 11.9042 161.325 11.9498 161.244C11.9953 161.164 12.0608 161.096 12.1399 161.048C12.2211 161.004 12.3122 160.98 12.4049 160.98C12.4975 160.98 12.5887 161.004 12.6699 161.048L43.9399 178.468C44.0222 178.513 44.0908 178.58 44.1384 178.661C44.1859 178.742 44.2106 178.834 44.2099 178.928V215.648C44.2106 215.741 44.1869 215.832 44.1413 215.913C44.0957 215.994 44.0297 216.061 43.9499 216.108C43.8679 216.156 43.7746 216.18 43.6799 216.178ZM12.9399 197.918L43.1499 214.748V179.248L12.9399 162.418V197.918Z" fill="#000E0A"/>
<path d="M12.4102 161.548L43.8602 179.008L72.4102 163.008L40.9602 145.548L12.4102 161.548Z" fill="#EEF4ED"/>
<path d="M43.8599 179.538C43.7717 179.539 43.6851 179.514 43.6099 179.468L12.1499 161.998C12.0668 161.951 11.9978 161.883 11.9503 161.8C11.9028 161.718 11.8785 161.624 11.8799 161.528C11.8792 161.434 11.9039 161.342 11.9515 161.261C11.999 161.18 12.0676 161.113 12.1499 161.068L40.6999 145.068C40.7793 145.023 40.8689 145 40.9599 145C41.051 145 41.1406 145.023 41.2199 145.068L72.6699 162.518C72.7531 162.565 72.8221 162.633 72.8696 162.716C72.9171 162.799 72.9414 162.893 72.9399 162.988C72.9407 163.082 72.916 163.174 72.8684 163.255C72.8209 163.336 72.7523 163.403 72.6699 163.448L44.1299 179.448C44.0496 179.502 43.9564 179.533 43.8599 179.538ZM13.4999 161.538L43.8599 178.398L71.3199 162.998L40.9999 146.158L13.4999 161.538Z" fill="#000E0A"/>
<path d="M72.4103 200.888L44.2603 215.908V178.818L72.4103 163.008V200.888Z" fill="#035946"/>
<path d="M44.26 216.438C44.1653 216.44 44.0719 216.415 43.99 216.368C43.9109 216.32 43.8454 216.252 43.7999 216.172C43.7543 216.091 43.7303 216 43.73 215.908V178.818C43.7313 178.724 43.7569 178.633 43.8042 178.552C43.8515 178.472 43.919 178.405 44 178.358L72.15 162.538C72.2312 162.492 72.3231 162.469 72.4163 162.47C72.5096 162.471 72.6009 162.497 72.681 162.544C72.7612 162.592 72.8273 162.66 72.8728 162.741C72.9182 162.823 72.9414 162.915 72.94 163.008V200.888C72.9405 200.984 72.9146 201.079 72.8653 201.162C72.816 201.245 72.745 201.312 72.66 201.358L44.51 216.358C44.4345 216.405 44.3486 216.432 44.26 216.438ZM44.79 179.128V214.998L71.88 200.548V163.918L44.79 179.128Z" fill="#000E0A"/>
<path d="M0.890137 244.308L32.1601 261.728V225.008L0.890137 207.588V244.308Z" fill="#99CAAB"/>
<path d="M32.1599 262.258C32.0697 262.259 31.9807 262.238 31.8999 262.198L0.629879 244.768C0.547531 244.723 0.478947 244.656 0.431408 244.575C0.38387 244.494 0.359151 244.402 0.359879 244.308V207.588C0.360177 207.496 0.384243 207.405 0.429772 207.324C0.4753 207.244 0.540761 207.176 0.619877 207.128C0.701068 207.083 0.792221 207.06 0.884877 207.06C0.977532 207.06 1.06869 207.083 1.14988 207.128L32.4199 224.558C32.5022 224.603 32.5708 224.67 32.6183 224.751C32.6659 224.832 32.6906 224.924 32.6899 225.018V261.738C32.6896 261.831 32.6655 261.922 32.62 262.002C32.5745 262.083 32.509 262.15 32.4299 262.198C32.3469 262.242 32.2536 262.263 32.1599 262.258ZM1.41988 243.998L31.6299 260.828V225.318L1.41988 208.488V243.998Z" fill="#000E0A"/>
<path d="M0.890137 207.628L32.3401 225.088L60.8901 209.088L29.4401 191.628L0.890137 207.628Z" fill="white"/>
<path d="M32.3499 225.618C32.259 225.615 32.17 225.591 32.0899 225.548L0.629879 208.098C0.54812 208.05 0.480277 207.981 0.432961 207.899C0.385644 207.816 0.360466 207.723 0.359879 207.628C0.359151 207.534 0.38387 207.442 0.431408 207.361C0.478947 207.28 0.547531 207.213 0.629879 207.168L29.1799 191.168C29.2592 191.123 29.3488 191.1 29.4399 191.1C29.531 191.1 29.6205 191.123 29.6999 191.168L61.1499 208.618C61.233 208.665 61.302 208.733 61.3495 208.816C61.397 208.899 61.4213 208.993 61.4199 209.088C61.4206 209.182 61.3959 209.274 61.3484 209.355C61.3008 209.436 61.2322 209.503 61.1499 209.548L32.5999 225.548C32.5228 225.59 32.4374 225.614 32.3499 225.618ZM1.99988 207.628L32.3599 224.478L59.8199 209.088L29.4399 192.238L1.99988 207.628Z" fill="#000E0A"/>
<path d="M60.8902 246.968L32.7402 261.988V224.898L60.8902 209.088V246.968Z" fill="#035946"/>
<path d="M32.74 262.518C32.6453 262.52 32.5519 262.496 32.47 262.448C32.3908 262.4 32.3254 262.333 32.2799 262.252C32.2343 262.172 32.2103 262.081 32.21 261.988V224.898C32.2113 224.805 32.2369 224.713 32.2842 224.632C32.3315 224.552 32.399 224.485 32.48 224.438L60.63 208.618C60.7112 208.572 60.8031 208.549 60.8963 208.55C60.9896 208.551 61.0809 208.577 61.161 208.624C61.2411 208.672 61.3073 208.74 61.3528 208.821C61.3982 208.903 61.4214 208.995 61.42 209.088V246.998C61.4228 247.095 61.3979 247.191 61.3483 247.274C61.2987 247.357 61.2265 247.424 61.14 247.468L33 262.458C32.9202 262.501 32.8304 262.522 32.74 262.518ZM33.28 225.208V261.098L60.36 246.648V209.998L33.28 225.208Z" fill="#000E0A"/>
<path d="M-21.9497 217.838L9.32029 235.258V198.538L-21.9497 181.118V217.838Z" fill="#99CAAB"/>
<path d="M9.32002 235.788C9.22987 235.789 9.14084 235.768 9.06002 235.728L-22.21 218.308C-22.2917 218.26 -22.3596 218.191 -22.4069 218.109C-22.4542 218.026 -22.4794 217.933 -22.48 217.838V181.118C-22.4797 181.026 -22.4556 180.935 -22.4101 180.854C-22.3646 180.774 -22.2991 180.706 -22.22 180.658C-22.1388 180.613 -22.0476 180.59 -21.955 180.59C-21.8623 180.59 -21.7712 180.613 -21.69 180.658L9.58002 198.078C9.66237 198.123 9.73095 198.19 9.77849 198.271C9.82603 198.352 9.85075 198.444 9.85002 198.538V235.258C9.8507 235.351 9.82705 235.442 9.78143 235.523C9.73581 235.604 9.6698 235.671 9.59002 235.718C9.5077 235.765 9.4146 235.789 9.32002 235.788ZM-21.42 217.528L8.79002 234.358V198.858L-21.42 181.998V217.528Z" fill="#000E0A"/>
<path d="M-21.9497 181.158L9.50029 198.618L38.0503 182.618L6.60029 165.158L-21.9497 181.158Z" fill="#EEF4ED"/>
<path d="M9.50008 199.148C9.40851 199.15 9.31829 199.126 9.24008 199.078L-22.2099 181.628C-22.2931 181.581 -22.362 181.513 -22.4095 181.43C-22.4571 181.348 -22.4814 181.254 -22.4799 181.158C-22.4806 181.064 -22.4559 180.972 -22.4084 180.891C-22.3609 180.81 -22.2923 180.743 -22.2099 180.698L6.34008 164.698C6.41793 164.654 6.50575 164.631 6.59508 164.631C6.68441 164.631 6.77223 164.654 6.85008 164.698L38.3101 182.148C38.3932 182.195 38.4622 182.263 38.5097 182.346C38.5572 182.429 38.5815 182.523 38.5801 182.618C38.5808 182.712 38.5561 182.804 38.5085 182.885C38.461 182.966 38.3924 183.033 38.3101 183.078L9.76008 199.078C9.68187 199.126 9.59165 199.15 9.50008 199.148ZM-20.8599 181.148L9.50008 197.998L37.0001 182.618L6.60008 165.768L-20.8599 181.148Z" fill="#000E0A"/>
<path d="M38.0499 220.498L9.8999 235.518V198.428L38.0499 182.618V220.498Z" fill="#5D8F76"/>
<path d="M9.90013 236.048C9.80544 236.05 9.71207 236.026 9.63013 235.978C9.55101 235.93 9.48555 235.863 9.44003 235.782C9.3945 235.702 9.37043 235.611 9.37013 235.518V198.428C9.3694 198.334 9.39412 198.242 9.44166 198.161C9.4892 198.08 9.55778 198.013 9.64013 197.968L37.7901 182.148C37.8714 182.102 37.9633 182.079 38.0565 182.08C38.1497 182.081 38.241 182.107 38.3212 182.154C38.4013 182.202 38.4675 182.27 38.5129 182.352C38.5584 182.433 38.5816 182.525 38.5801 182.618V220.498C38.5806 220.595 38.5548 220.689 38.5055 220.772C38.4561 220.855 38.3851 220.923 38.3001 220.968L10.1501 235.998C10.072 236.035 9.98626 236.052 9.90013 236.048ZM10.4301 198.738V234.638L37.5201 220.188V183.528L10.4301 198.738Z" fill="#000E0A"/>
<path d="M48.1602 218.198L79.4301 235.618V198.898L48.1602 181.478V218.198Z" fill="#99CAAB"/>
<path d="M79.4299 236.148C79.3384 236.15 79.2482 236.126 79.1699 236.078L47.9 218.658C47.8176 218.613 47.749 218.546 47.7015 218.465C47.6539 218.384 47.6292 218.292 47.6299 218.198V181.478C47.6285 181.385 47.6517 181.293 47.6972 181.212C47.7426 181.13 47.8088 181.062 47.8889 181.014C47.969 180.967 48.0603 180.941 48.1536 180.94C48.2468 180.939 48.3387 180.962 48.4199 181.008L79.69 198.428C79.7717 198.476 79.8396 198.545 79.8869 198.628C79.9342 198.71 79.9594 198.803 79.96 198.898V235.618C79.9597 235.711 79.9356 235.802 79.8901 235.882C79.8445 235.963 79.7791 236.03 79.6999 236.078C79.618 236.126 79.5246 236.15 79.4299 236.148ZM48.69 217.878L78.8999 234.708V199.208L48.69 182.378V217.878Z" fill="#000E0A"/>
<path d="M48.1602 181.518L79.6102 198.968L108.16 182.968L76.7102 165.518L48.1602 181.518Z" fill="#EEF4ED"/>
<path d="M79.6099 199.498C79.52 199.496 79.4315 199.476 79.3499 199.438L47.8999 181.998C47.8176 181.953 47.749 181.886 47.7014 181.805C47.6539 181.724 47.6292 181.632 47.6299 181.538C47.6305 181.443 47.6557 181.35 47.703 181.268C47.7503 181.185 47.8181 181.117 47.8999 181.068L76.4499 165.068C76.5293 165.023 76.6188 165 76.7099 165C76.801 165 76.8905 165.023 76.9699 165.068L108.42 182.528C108.502 182.573 108.571 182.64 108.618 182.721C108.666 182.802 108.691 182.894 108.69 182.988C108.689 183.083 108.664 183.176 108.617 183.259C108.569 183.341 108.502 183.41 108.42 183.458L79.8699 199.458C79.7874 199.491 79.6985 199.505 79.6099 199.498ZM49.2499 181.498L79.6099 198.338L107.07 182.998L76.7099 166.148L49.2499 181.498Z" fill="#000E0A"/>
<path d="M108.16 220.858L80.0103 235.878V198.788L108.16 182.968V220.858Z" fill="#5D8F76"/>
<path d="M80.0002 236.408C79.8605 236.406 79.7271 236.349 79.6283 236.25C79.5294 236.151 79.4728 236.018 79.4702 235.878V198.788C79.4727 198.694 79.4986 198.601 79.5458 198.519C79.5929 198.437 79.6597 198.368 79.7402 198.318L107.89 182.508C107.971 182.463 108.063 182.44 108.155 182.44C108.248 182.44 108.339 182.463 108.42 182.508C108.499 182.556 108.565 182.624 108.61 182.704C108.656 182.785 108.68 182.876 108.68 182.968V220.858C108.68 220.954 108.653 221.049 108.604 221.131C108.555 221.214 108.485 221.282 108.4 221.328L80.2502 236.328C80.1747 236.375 80.0889 236.402 80.0002 236.408ZM80.5402 199.098V234.998L107.62 220.548V183.878L80.5402 199.098Z" fill="#000E0A"/>
<path d="M14.4102 276.108L45.6802 293.528V256.808L14.4102 239.388V276.108Z" fill="#99CAAB"/>
<path d="M45.6799 294.058C45.5884 294.06 45.4982 294.036 45.4199 293.988L14.15 276.568C14.0676 276.523 13.999 276.456 13.9515 276.375C13.9039 276.294 13.8792 276.202 13.8799 276.108V239.388C13.8785 239.295 13.9017 239.203 13.9472 239.122C13.9926 239.04 14.0588 238.972 14.1389 238.924C14.219 238.877 14.3103 238.851 14.4036 238.85C14.4968 238.849 14.5887 238.872 14.6699 238.918L45.94 256.338C46.0217 256.387 46.0896 256.455 46.1369 256.538C46.1842 256.62 46.2094 256.713 46.2099 256.808V293.528C46.2113 293.598 46.1985 293.668 46.1724 293.733C46.1462 293.797 46.1072 293.856 46.0577 293.906C46.0083 293.955 45.9493 293.994 45.8844 294.021C45.8195 294.047 45.7499 294.06 45.6799 294.058ZM14.94 275.798L45.15 292.628V257.118L14.94 240.288V275.798Z" fill="#000E0A"/>
<path d="M14.4102 239.428L45.8602 256.878L74.4102 240.878L42.9602 223.428L14.4102 239.428Z" fill="#EEF4ED"/>
<path d="M45.8599 257.408C45.7697 257.409 45.6807 257.388 45.5999 257.348L14.1499 239.888C14.0676 239.843 13.999 239.776 13.9514 239.695C13.9039 239.614 13.8792 239.522 13.8799 239.428C13.8805 239.333 13.9057 239.24 13.953 239.158C14.0003 239.075 14.0681 239.007 14.1499 238.958L42.6999 222.998C42.7777 222.954 42.8656 222.931 42.9549 222.931C43.0442 222.931 43.132 222.954 43.2099 222.998L74.6699 240.448C74.7522 240.493 74.8208 240.56 74.8684 240.641C74.9159 240.722 74.9406 240.814 74.9399 240.908C74.9414 241.004 74.917 241.098 74.8695 241.18C74.822 241.263 74.753 241.331 74.6699 241.378L46.1199 257.378C46.0367 257.408 45.9477 257.418 45.8599 257.408ZM15.4999 239.408L45.8599 256.248L73.3199 240.868L42.9999 223.998L15.4999 239.408Z" fill="#000E0A"/>
<path d="M74.4103 278.768L46.2603 293.788V256.698L74.4103 240.878V278.768Z" fill="#1E6550"/>
<path d="M46.26 294.318C46.1644 294.316 46.0711 294.289 45.99 294.238C45.9103 294.193 45.8441 294.128 45.7984 294.049C45.7526 293.97 45.729 293.88 45.73 293.788V256.698C45.7293 256.604 45.754 256.512 45.8015 256.431C45.8491 256.35 45.9177 256.283 46 256.238L74.15 240.418C74.2312 240.374 74.3223 240.35 74.415 240.35C74.5077 240.35 74.5988 240.374 74.68 240.418C74.7591 240.466 74.8246 240.534 74.8701 240.614C74.9156 240.695 74.9397 240.786 74.94 240.878V278.768C74.9405 278.865 74.9147 278.959 74.8653 279.042C74.816 279.125 74.745 279.193 74.66 279.238L46.51 294.238C46.4345 294.285 46.3487 294.312 46.26 294.318ZM46.79 257.008V292.898L73.88 278.448V241.788L46.79 257.008Z" fill="#000E0A"/>
</svg>
