<svg width="295" height="311" viewBox="0 0 295 311" fill="none" xmlns="http://www.w3.org/2000/svg">
<g opacity="0.1">
<path d="M414.915 202.842V136.113C414.927 134.723 414.867 133.333 414.734 131.95C413.326 116.886 402.144 102.266 379.418 89.0525C357.106 76.1851 331.748 69.5451 305.992 69.8262C303.861 69.8262 301.749 69.8262 299.617 69.967H298.953C296.741 69.967 294.569 70.1882 292.397 70.3491C290.225 70.51 288.536 70.6708 286.585 70.892L284.292 71.1535C282.824 71.2942 281.356 71.4551 279.888 71.6764C267.845 73.4073 255.922 75.8926 244.191 79.1176L244.854 15.3649C197.573 -3.16463e-05 146.832 2.55411 96.5943 23.6106L55.688 0L0.0402832 32.178L40.8862 55.7885C20.956 71.254 10.3573 87.162 10.7193 102.628V103.11C11.1618 118.797 22.7861 134.001 46.9195 147.958C100.637 178.97 153.851 168.733 202.58 153.107C247.911 138.305 281.014 120.929 307.159 135.992C323.368 145.384 318.441 156.787 300.241 167.325C271.18 184.078 239.625 178.97 222.39 171.83L170.101 223.597C179.477 227.192 189.128 230.023 198.96 232.063C246.725 242.119 292.096 232.063 328.255 216.497L369.101 240.128L424.166 208.191L414.915 202.842Z" fill="#539074"/>
<path d="M244.814 15.365V93.1753L195.582 144.781V64.8587L244.814 15.365Z" fill="#539074"/>
<path d="M195.582 64.8586V144.781H95.9917V55.8689C95.9917 55.8689 188.101 41.7105 195.582 64.8586Z" fill="#539074"/>
<path d="M424.166 208.191V279.144L368.961 311L328.115 287.389C284.735 306.173 228.102 316.671 169.96 294.509L170.322 232.928C130.703 242.059 88.8715 243.165 46.7787 218.85C22.0218 204.591 10.5785 188.945 10.5785 172.856V109.204L0 103.171V32.1176L40.8459 55.7281C20.9157 71.1936 10.3171 87.1016 10.6791 102.567V103.05C11.1215 118.737 22.7458 133.941 46.8793 147.898C100.596 178.909 153.811 168.673 202.54 153.046C247.871 138.244 280.974 120.868 307.119 135.932C323.328 145.324 318.401 156.727 300.2 167.265C271.14 184.018 239.585 178.909 222.35 171.77L170.061 223.536C179.437 227.131 189.088 229.963 198.92 232.003C246.684 242.059 292.055 232.003 328.215 216.437L369.061 240.068L424.166 208.191Z" fill="#539074"/>
<path d="M414.915 202.842L383.28 184.581C383.28 184.581 414.915 171.569 414.915 136.113C414.927 134.723 414.867 133.333 414.734 131.95C413.326 116.887 402.144 102.266 379.418 89.0526C357.106 76.1852 331.748 69.5452 305.992 69.8263C303.861 69.8263 301.749 69.8263 299.617 69.9671H298.953C296.741 69.9671 294.569 70.1883 292.397 70.3492C290.225 70.5101 288.536 70.6709 286.585 70.8921L284.292 71.1536C282.824 71.2943 281.356 71.4553 279.888 71.6765C267.845 73.4075 255.922 75.8928 244.191 79.1177C230.233 82.8986 216.88 87.3633 204.491 91.5866C179.091 100.355 161.111 106.549 146.752 108.561C139.707 109.746 132.492 109.437 125.575 107.655C122.154 106.731 118.863 105.38 115.78 103.633C103.492 96.4938 101.501 85.6739 124.67 72.3402C149.306 58.1215 174.445 56.6534 195.622 64.9393L244.854 15.4455C197.573 0.0805351 146.832 2.63467 96.5943 23.6911L55.688 0.0805054L0.0402832 32.2585L40.8862 55.8691C20.956 71.3346 10.3573 87.2426 10.7193 102.708V103.191C11.1618 118.877 22.7861 134.082 46.9195 148.039C100.637 179.05 153.851 168.814 202.58 153.187C247.911 138.385 281.014 121.009 307.159 136.073C323.368 145.465 318.441 156.868 300.241 167.406C271.18 184.159 239.625 179.05 222.39 171.911L170.101 223.677C179.477 227.272 189.128 230.104 198.96 232.144C246.725 242.2 292.096 232.144 328.255 216.578L369.101 240.209L424.166 208.191L414.915 202.842Z" fill="#CFE8CC"/>
</g>
</svg>
