<svg width="753" height="637" viewBox="0 0 753 637" fill="none" xmlns="http://www.w3.org/2000/svg">
<g opacity="0.1">
<path d="M102.181 567.839L394.799 397.787L-121.204 99.893L-413.787 269.945L102.181 567.839Z" fill="#CFE8CC"/>
<path d="M-120.67 139.464L326.492 397.644L-120.67 139.464Z" fill="#578133"/>
<path d="M-120.667 139.464L-345.479 270.122L101.684 528.267L326.495 397.644L-120.667 139.464Z" fill="#22BB01"/>
<path d="M102.181 567.838L-413.786 269.944L-414 339.105L102.003 636.999L102.181 567.838Z" fill="#035946"/>
<path d="M102.184 567.839L102.005 637L394.588 466.984L394.802 397.786L102.184 567.839Z" fill="#99CAAB"/>
<path d="M65.818 292.262C105.033 314.864 105.034 351.548 66.246 374.258C27.4585 396.967 -35.9636 396.86 -75.1434 374.258C-114.323 351.655 -114.537 314.935 -75.6425 292.262C-36.748 269.588 26.6383 269.624 65.818 292.262Z" fill="#A3F15F"/>
<path d="M188.74 435.005C193.481 437.75 193.517 442.135 188.74 444.951C186.082 446.295 183.145 446.996 180.166 446.996C177.187 446.996 174.25 446.295 171.592 444.951L120.077 415.112C115.336 412.367 115.3 407.982 120.077 405.166C122.738 403.83 125.674 403.134 128.651 403.134C131.628 403.134 134.564 403.83 137.225 405.166L188.74 435.005Z" fill="#A3F15F"/>
<path d="M-120.67 39.5709L326.492 297.751L-120.67 39.5709Z" fill="#578133"/>
<path d="M102.181 467.946L394.799 297.894L-121.204 0L-413.787 170.052L102.181 467.946Z" fill="#CFE8CC"/>
<path d="M-120.667 39.5708L-345.479 170.194L101.684 428.373L326.495 297.751L-120.667 39.5708Z" fill="#72AA8B"/>
<path d="M102.181 467.947L-413.786 170.053L-414 239.214L102.003 537.108L102.181 467.947Z" fill="#035946"/>
<path d="M102.184 467.948L102.005 537.109L394.588 367.057L394.802 297.895L102.184 467.948Z" fill="#99CAAB"/>
<path d="M65.818 192.369C105.033 214.971 105.034 251.655 66.246 274.365C27.4585 297.074 -35.9636 296.967 -75.1434 274.365C-114.323 251.762 -114.537 215.043 -75.6425 192.369C-36.748 169.695 26.6383 169.731 65.818 192.369Z" fill="#CFE8CC"/>
<path d="M188.74 335.078C193.481 337.823 193.517 342.208 188.74 345.024C186.084 346.377 183.146 347.081 180.166 347.081C177.186 347.081 174.248 346.377 171.592 345.024L120.077 315.292C115.336 312.582 115.3 308.162 120.077 305.381C122.733 304.029 125.671 303.324 128.651 303.324C131.631 303.324 134.569 304.029 137.225 305.381L188.74 335.078Z" fill="#CFE8CC"/>
<path d="M416.617 552.687L752.978 515.147L401.038 34.4023L64.6772 71.9777L416.617 552.687Z" fill="#CFE8CC"/>
<path d="M385.53 70.8368L690.554 487.447L385.53 70.8368Z" fill="#578133"/>
<path d="M385.531 70.8368L127.137 99.678L432.162 516.288L690.555 487.447L385.531 70.8368Z" fill="#72AA8B"/>
<path d="M416.653 552.686L64.6771 71.9771L36.6201 135.185L388.56 615.93L416.653 552.686Z" fill="#1E6550"/>
<path d="M416.652 552.687L388.559 615.931L724.885 578.355L752.977 515.147L416.652 552.687Z" fill="#99CAAB"/>
<path d="M332.41 169.624C335.654 174.045 333.872 178.109 328.453 178.715C325.483 178.873 322.517 178.334 319.792 177.139C317.068 175.944 314.662 174.127 312.767 171.835L277.58 123.742C274.371 119.357 276.154 115.257 281.537 114.651C284.507 114.493 287.474 115.033 290.198 116.228C292.922 117.423 295.328 119.239 297.223 121.532L332.41 169.624Z" fill="#CFE8CC"/>
<path d="M494.549 285.88C521.251 322.386 506.634 356.005 461.893 360.996C417.152 365.987 359.22 340.461 332.482 303.955C305.744 267.449 320.361 233.795 365.102 228.804C409.843 223.813 467.811 249.339 494.549 285.88Z" fill="#CFE8CC"/>
<path d="M549.449 466.057C552.658 470.477 550.875 474.577 545.492 475.183C542.517 475.351 539.544 474.813 536.818 473.611C534.091 472.408 531.688 470.577 529.806 468.267L494.619 420.21C491.375 415.79 493.157 411.69 498.54 411.084C501.52 410.918 504.497 411.458 507.229 412.66C509.961 413.862 512.371 415.691 514.262 418L549.449 466.057Z" fill="#CFE8CC"/>
</g>
</svg>
