<svg width="31" height="24" viewBox="0 0 31 24" fill="none" xmlns="http://www.w3.org/2000/svg">
<g clip-path="url(#clip0_339_2016)">
<path d="M6.99368 24V11.6395L3.30644 8.13252L0 6.1864V21.8187C0 23.0256 0.940592 24 2.09815 24H6.99368Z" fill="white"/>
<path d="M23.7783 23.9998H28.6738C29.8349 23.9998 30.772 23.0219 30.772 21.8185V6.1864L27.0269 8.41544L23.7783 11.6393V23.9998Z" fill="white"/>
<path d="M6.99343 11.6393L6.4917 6.80967L6.99343 2.18726L15.3858 8.73104L23.7782 2.18726L24.3395 6.56011L23.7782 11.6393L15.3858 18.1831L6.99343 11.6393Z" fill="white"/>
<path d="M23.7783 2.18739V11.6394L30.772 6.18634V3.27798C30.772 0.580559 27.8102 -0.957163 25.7367 0.660538L23.7783 2.18739Z" fill="white"/>
<path d="M0 6.1864L3.21652 8.69449L6.99368 11.6395V2.18744L5.03532 0.660595C2.95821 -0.95723 0 0.580616 0 3.27791V6.18627V6.1864Z" fill="white"/>
</g>
<defs>
<clipPath id="clip0_339_2016">
<rect width="30.62" height="23.9995" fill="white"/>
</clipPath>
</defs>
</svg>
