<svg width="1335" height="490" viewBox="0 0 1335 490" fill="none" xmlns="http://www.w3.org/2000/svg">
<path d="M53.58 456.82L52.81 455.39L796.37 55.56L797.14 57L53.58 456.82ZM854.9 90.5L854.12 89.07L110.56 488.89L111.33 490.33L854.9 90.5ZM558.46 55.92L557.69 54.48L70.37 316.48L71.14 317.92L558.46 55.92ZM744.34 20.53L743.56 19.09L0 418.91L0.77 420.35L744.34 20.53ZM912.65 124L911.87 122.57L168.31 522.39L169.08 523.83L912.65 124ZM970.4 157.51L969.63 156.07L226.06 555.89L226.84 557.33L970.4 157.51ZM1028.15 191.01L1027.38 189.57L283.81 589.39L284.59 590.83L1028.15 191.01ZM1085.9 224.51L1085.13 223.07L341.57 622.9L342.34 624.33L1085.9 224.51ZM1143.65 258.01L1142.88 256.57L399.32 656.4L400.09 657.84L1143.65 258.01ZM1201.41 291.51L1200.63 290.08L457.07 689.9L457.84 691.34L1201.41 291.51ZM1259.16 325L1258.38 323.56L514.82 723.4L515.59 724.84L1259.16 325ZM1316.91 358.5L1316.14 357.06L572.57 756.9L573.35 758.34L1316.91 358.5ZM1334.75 413.5L1333.98 412.07L670.24 768.94L671.01 770.38L1334.75 413.5ZM1331.18 436.32L587.61 36.47L586.84 37.91L1330.4 437.73L1331.18 436.32ZM1272.75 468.65L529.19 68.81L528.41 70.25L1272 470.07L1272.75 468.65ZM1322.46 366.76L640.42 0L639.65 1.44L1321.65 368.18L1322.46 366.76ZM1215.67 503.3L472.11 103.48L471.34 104.91L1214.9 504.74L1215.67 503.3ZM1157.92 536.8L414.36 137L413.58 138.43L1157.15 538.26L1157.92 536.8ZM1100.17 570.31L338.91 155.87L338.13 157.3L1099.39 571.74L1100.17 570.31ZM1042.42 603.81L281.16 189.37L280.38 190.8L1041.64 605.24L1042.42 603.81ZM984.67 637.31L223.41 222.87L222.63 224.3L983.89 638.74L984.67 637.31ZM926.92 670.81L165.66 256.37L164.88 257.8L926.14 672.24L926.92 670.81ZM869.17 704.31L107.91 289.87L107.13 291.3L868.39 705.75L869.17 704.31ZM811.41 737.81L67.85 338L67.07 339.44L810.64 739.25L811.41 737.81ZM713.74 749.81L50 393L49.23 394.44L713 751.29L713.74 749.81ZM590.48 748.09L57.77 461.68L57 463.12L589.7 749.56L590.48 748.09Z" fill="url(#paint0_radial_339_1459)"/>
<defs>
<radialGradient id="paint0_radial_339_1459" cx="0" cy="0" r="1" gradientUnits="userSpaceOnUse" gradientTransform="translate(673.82 741.135) rotate(-91.1609) scale(706.78 706.78)">
<stop stop-color="#99CAAB"/>
<stop offset="1" stop-color="#CFE8CC" stop-opacity="0"/>
</radialGradient>
</defs>
</svg>
