<svg width="138" height="48" viewBox="0 0 138 48" fill="none" xmlns="http://www.w3.org/2000/svg">
<path d="M22.0096 38.6794V45.3565H16.282V38.6794C16.2796 36.5614 15.4374 34.5307 13.9399 33.0329C12.4425 31.535 10.4121 30.6922 8.29409 30.6893H0V24.9616H8.29409C10.4126 24.9616 12.4444 24.12 13.9424 22.622C15.4404 21.124 16.282 19.0922 16.282 16.9737C16.282 14.8552 15.4404 12.8235 13.9424 11.3254C12.4444 9.82742 10.4126 8.98584 8.29409 8.98584H0V3.25818H8.29409C11.1562 3.25762 13.9468 4.15289 16.2744 5.81844C18.602 7.484 20.3499 9.83631 21.2731 12.5455C22.1962 15.2547 22.2483 18.1849 21.4219 20.9251C20.5956 23.6654 18.9323 26.0783 16.6653 27.8254C18.3276 29.1048 19.6739 30.7487 20.6005 32.6305C21.5271 34.5123 22.0092 36.5818 22.0096 38.6794Z" fill="#035946"/>
<path d="M6.74742 0H5.09521V48H6.74742V0Z" fill="#539074"/>
<path d="M11.4928 0H9.84058V48H11.4928V0Z" fill="#539074"/>
<path d="M32.8486 27.6866C38.1026 27.6866 41.927 31.577 41.927 36.765V37.8907H27.013C27.0079 38.5989 27.1628 39.2992 27.466 39.9392C27.7692 40.5793 28.2131 41.1426 28.7644 41.5872C29.8989 42.5279 31.2933 43.0147 32.9786 43.0147C35.4018 43.0147 37.3845 41.9133 38.9133 39.739L41.3123 41.6357C39.398 44.4555 36.609 45.8499 32.9786 45.8499C27.3368 45.8499 23.6733 42.2503 23.6733 36.8355C23.6733 31.4206 27.4999 27.6866 32.8486 27.6866ZM38.5763 35.3375C38.3824 32.6146 35.8534 30.5064 32.8706 30.5064C29.661 30.5064 27.2619 32.6146 27.0659 35.3375H38.5763Z" fill="#035946"/>
<path d="M51.5249 35.2736C55.0253 34.7229 56.1929 34.1061 56.1929 32.9385C56.1929 31.4801 54.6376 30.5395 52.2695 30.5395C49.5466 30.5395 47.6433 31.967 47.1476 34.2999L43.9688 33.6192C44.1147 32.7537 44.4317 31.9259 44.901 31.1842C45.3704 30.4424 45.9829 29.8017 46.7026 29.2992C48.227 28.2286 50.0753 27.6779 52.2474 27.6779C56.8185 27.6779 59.7374 29.9799 59.7374 33.6434V45.3477H56.5828V43.2725H56.5189C55.3822 44.863 53.0163 45.8345 50.3243 45.8345C46.4008 45.8345 43.9688 43.8519 43.9688 40.7127C43.9688 37.6396 46.077 36.0843 51.5249 35.2736ZM56.4529 36.0843H56.3956C55.9726 36.8619 54.8381 37.3157 52.1152 37.8026C48.6126 38.4194 47.2511 39.1971 47.2511 40.6224C47.2511 42.2129 48.3857 42.9245 50.9477 42.9245C53.8666 42.9245 56.4551 41.2062 56.4551 39.2301L56.4529 36.0843Z" fill="#035946"/>
<path d="M63.4895 21.688H66.8292V45.3564H63.4895V21.688Z" fill="#035946"/>
<path d="M79.537 27.6867C84.921 27.5898 89.1022 31.6741 89.0097 36.7651C89.1066 41.8561 84.9254 45.9404 79.537 45.8434C74.1222 45.8434 70.1018 41.92 70.1018 36.7651C70.1018 31.6102 74.1222 27.6867 79.537 27.6867ZM79.537 30.6365C75.9705 30.6365 73.4415 33.1016 73.4415 36.7651C73.4415 40.4286 75.9705 42.8937 79.537 42.8937C83.1036 42.8937 85.6656 40.4286 85.6656 36.7651C85.6656 33.1016 83.1366 30.6365 79.537 30.6365Z" fill="#035946"/>
<path d="M113.52 28.1714L112.324 32.3394L113.527 28.1714H113.52Z" fill="black"/>
<path d="M119.583 28.1735H122.825V30.0857H122.892C124.213 28.5612 126.522 27.6866 128.89 27.6866C133.785 27.6866 137.092 30.7333 137.092 35.1767V45.3565H133.752V35.7274C133.752 32.5816 131.743 30.6364 128.597 30.6364C126.912 30.6364 125.551 31.1232 124.48 32.0947C123.443 33.0361 122.925 34.2683 122.925 35.7913V45.3565H119.583V28.1735Z" fill="#035946"/>
<path d="M119.651 26.215L117.611 25.7723L115.749 32.0286L111.802 45.3564H108.656L102.884 31.6739H102.82L97.0485 45.3564H93.9357L88.8447 28.1713H92.2174L95.8809 40.9484H95.9448L101.296 28.1713H104.442L109.79 40.9484H109.856L110.793 37.6814L112.324 32.3392L113.527 28.1713L114.417 25.0783L112.088 24.5739L117.291 18.8462L119.651 26.215Z" fill="#539074"/>
</svg>
