<svg width="270" height="333" viewBox="0 0 270 333" fill="none" xmlns="http://www.w3.org/2000/svg">
<path d="M95.5332 195.563C99.2119 193.143 103.19 191.211 107.367 189.816C115.216 187.208 123.441 185.907 131.712 185.965C146.23 185.965 159.211 189.696 167.922 195.573C174.437 199.963 178.558 205.551 179.136 211.687C179.186 211.178 179.216 210.69 179.216 210.161C179.216 203.436 174.966 197.289 167.922 192.54C159.211 186.663 146.23 182.932 131.712 182.932C117.195 182.932 104.224 186.663 95.5133 192.54C88.469 197.289 84.2085 203.436 84.2085 210.161C84.2085 210.67 84.2085 211.158 84.2883 211.687C84.897 205.541 89.0178 199.973 95.5332 195.563Z" fill="#539074"/>
<path d="M131.703 237.39C106.37 237.39 85.6662 226.026 84.2793 211.698C84.2793 212.197 84.1995 212.695 84.1995 213.194C84.2294 228.231 105.502 240.463 131.703 240.463C157.905 240.463 179.207 228.271 179.207 213.234C179.207 212.735 179.207 212.236 179.127 211.738C177.77 226.026 157.077 237.39 131.703 237.39Z" fill="#FEA400"/>
<path d="M131.702 246.121C97.0597 246.121 68.9824 230.017 68.9824 210.202V221.926C68.9824 241.781 97.0597 257.845 131.702 257.845C166.345 257.845 194.432 241.751 194.432 221.926V210.172C194.452 230.027 166.375 246.121 131.702 246.121Z" fill="#539074"/>
<path d="M167.943 195.564C159.232 189.687 146.251 185.955 131.734 185.955C123.462 185.898 115.238 187.199 107.388 189.806C103.204 191.203 99.2189 193.138 95.5345 195.564C89.0191 199.954 84.8983 205.541 84.3096 211.678C85.6965 226.006 106.4 237.37 131.734 237.37C157.067 237.37 177.771 226.006 179.158 211.678C178.599 205.541 174.458 199.974 167.943 195.564ZM114.961 191.453H114.871H114.961ZM127.932 214.91H128.132H127.932ZM137.072 226.165L137.77 226.235L138.479 226.305C137.97 226.295 137.501 226.245 137.032 226.185L137.072 226.165ZM157.825 218.013C157.918 217.809 157.998 217.599 158.065 217.385C157.986 217.607 157.893 217.824 157.785 218.033L157.825 218.013ZM158.165 216.966C158.186 216.89 158.203 216.814 158.215 216.736C158.19 216.821 158.16 216.905 158.125 216.986L158.165 216.966ZM158.244 216.547C158.265 216.334 158.265 216.121 158.244 215.908C158.253 216.128 158.239 216.349 158.205 216.567L158.244 216.547Z" fill="#F5F5F5"/>
<path d="M155.17 222.284C157.684 220.438 158.931 218.523 158.971 216.537C158.982 216.149 158.949 215.761 158.872 215.38C158.346 212.985 156.327 210.777 152.815 208.755C150.553 207.443 148.083 206.528 145.511 206.051C143.026 205.574 140.483 205.476 137.968 205.761C134.886 206.19 131.828 206.782 128.809 207.537H128.709L128.549 207.807L128.1 207.677C125.988 208.222 123.831 208.576 121.655 208.735C120.252 208.757 118.871 208.391 117.664 207.677L117.394 207.497C116.946 207.27 116.553 206.946 116.245 206.55C115.936 206.153 115.718 205.693 115.608 205.203C115.488 204.275 116.037 203.446 117.264 202.748C119.712 201.331 123.471 201.411 128.539 202.987L131.692 197.879C124.581 195.424 118.262 195.424 112.735 197.879L108.095 195.205L103.765 197.639L108.404 200.313C107.249 201.161 106.318 202.278 105.69 203.566C105.467 204.084 105.345 204.639 105.331 205.203C105.332 205.766 105.437 206.324 105.64 206.849C106.485 209.077 108.381 211.039 111.328 212.736C113.548 214.017 115.966 214.92 118.482 215.41C120.854 215.893 123.286 216.02 125.696 215.789C128.545 215.442 131.369 214.905 134.147 214.182C136.714 213.478 139.338 213.004 141.989 212.766C143.494 212.738 144.977 213.132 146.27 213.903C146.815 214.146 147.298 214.507 147.685 214.961C148.072 215.416 148.352 215.951 148.505 216.527C148.644 217.405 148.086 218.253 146.828 219.091C146.659 219.211 146.479 219.321 146.29 219.431C142.778 221.426 138.524 221.356 133.528 219.221L128.829 224.27C137.15 227.516 144.494 227.686 150.859 224.779L156.846 228.231L157.026 228.131L160.119 226.345L161.206 225.717L158.213 223.981L155.17 222.284Z" fill="#539074"/>
<path d="M103.754 194.386V197.639L111.986 199.106L105.331 201.75L105.321 205.202L152.067 213.374L145.242 219.021L128.808 221.067V224.309L152.067 223.93L161.176 225.756V222.513L154.092 221.256L158.971 216.367V213.034L137.968 205.382L128.808 204.254L128.09 204.414L120.457 206.748L111.906 202.827L122.572 200.163L131.732 197.848V194.606L111.557 196.122L103.754 194.386Z" fill="#539074"/>
<path d="M131.702 174.221C97.0597 174.221 68.9824 190.315 68.9824 210.141C68.9824 229.987 97.0597 246.061 131.702 246.061C166.345 246.061 194.422 229.967 194.432 210.141C194.462 190.315 166.375 174.221 131.702 174.221ZM131.702 237.39C105.471 237.39 84.1984 225.207 84.1984 210.171C84.1984 203.446 88.4589 197.3 95.5032 192.55C104.214 186.673 117.195 182.942 131.702 182.942C146.21 182.942 159.201 186.673 167.911 192.55C174.956 197.3 179.206 203.446 179.206 210.171C179.236 225.207 157.974 237.39 131.702 237.39Z" fill="#72AA8B"/>
<path d="M155.17 219.041C157.684 217.195 158.931 215.27 158.971 213.294C158.983 212.906 158.949 212.517 158.872 212.137C158.346 209.742 156.327 207.534 152.815 205.511C150.555 204.195 148.084 203.28 145.511 202.807C143.026 202.331 140.483 202.233 137.968 202.518C134.886 202.929 131.829 203.505 128.809 204.244H128.739L128.579 204.504L128.13 204.384C126.017 204.924 123.86 205.278 121.685 205.442C120.282 205.464 118.901 205.098 117.694 204.384L117.424 204.204C116.977 203.976 116.585 203.652 116.276 203.255C115.967 202.859 115.75 202.399 115.638 201.909C115.518 200.972 116.067 200.153 117.294 199.445C119.742 198.028 123.501 198.108 128.569 199.684L131.702 194.566C124.591 192.111 118.272 192.111 112.745 194.566L108.105 191.882L103.765 194.386L108.404 197.07C107.247 197.916 106.315 199.033 105.69 200.323C105.466 200.84 105.344 201.396 105.331 201.959C105.332 202.526 105.437 203.087 105.64 203.616C106.485 205.844 108.381 207.803 111.328 209.493C113.548 210.777 115.965 211.684 118.482 212.177C120.855 212.656 123.286 212.781 125.696 212.546C128.546 212.208 131.37 211.674 134.147 210.949C136.714 210.245 139.338 209.771 141.989 209.532C143.493 209.501 144.976 209.892 146.27 210.66C146.816 210.904 147.3 211.267 147.687 211.723C148.074 212.179 148.353 212.716 148.505 213.294C148.644 214.162 148.086 215.02 146.828 215.858L146.29 216.198C142.778 218.193 138.524 218.12 133.528 215.978L128.829 221.037C137.15 224.27 144.494 224.439 150.859 221.546L156.846 224.998L157.026 224.888L160.119 223.112L161.206 222.483L158.213 220.737L155.17 219.041Z" fill="#72AA8B"/>
<path d="M191.57 206.151C195.693 204.603 199.999 203.597 204.381 203.157C212.612 202.318 220.925 202.841 228.986 204.704C243.155 207.867 255.008 214.342 262.232 221.975C267.63 227.683 270.434 234.038 269.665 240.145C269.815 239.666 269.965 239.147 270.074 238.668C271.541 232.113 268.727 225.188 262.89 219.022C255.667 211.379 243.813 204.903 229.655 201.741C215.496 198.578 202.006 199.386 192.218 203.227C184.316 206.32 178.818 211.399 177.351 217.954C177.242 218.453 177.162 218.952 177.102 219.461C179.038 213.574 184.276 209.024 191.57 206.151Z" fill="#539074"/>
<path d="M217.811 254.852C193.076 249.325 175.356 233.719 177.132 219.431C176.97 219.909 176.833 220.396 176.723 220.888C173.44 235.555 191.54 252.088 217.142 257.806C242.745 263.523 266.163 256.269 269.446 241.592C269.555 241.103 269.625 240.594 269.695 240.105C265.215 253.795 242.536 260.42 217.811 254.852Z" fill="#FEA400"/>
<path d="M215.906 263.412C182.101 255.859 158.205 234.027 162.535 214.651L159.971 226.105C155.64 245.482 179.537 267.313 213.342 274.866C247.146 282.419 278.067 272.871 282.397 253.464L284.962 242.01C280.621 261.336 249.71 270.925 215.906 263.412Z" fill="#539074"/>
<path d="M262.261 221.945C255.037 214.312 243.183 207.837 229.015 204.674C220.954 202.811 212.641 202.288 204.41 203.127C200.028 203.566 195.722 204.572 191.599 206.12C184.285 208.994 179.047 213.544 177.141 219.401C175.365 233.689 193.105 249.334 217.82 254.822C242.535 260.309 265.224 253.764 269.704 240.085C270.463 234.008 267.659 227.652 262.261 221.945ZM225.413 245.063L226.092 245.283L226.76 245.502C226.311 245.383 225.862 245.233 225.413 245.073V245.063ZM247.444 241.641C247.576 241.463 247.696 241.277 247.803 241.082C247.696 241.277 247.576 241.463 247.444 241.641ZM248.003 240.643C248.003 240.573 248.073 240.504 248.103 240.424C248.083 240.554 248.043 240.623 248.013 240.693L248.003 240.643ZM248.172 240.254C248.243 240.051 248.303 239.845 248.352 239.636C248.308 239.861 248.251 240.085 248.182 240.304L248.172 240.254Z" fill="#F5F5F5"/>
<path d="M243.962 245.223C246.825 243.966 248.472 242.369 248.951 240.444C249.044 240.065 249.098 239.677 249.11 239.286C249.11 236.832 247.62 234.238 244.64 231.504C242.722 229.728 240.511 228.296 238.105 227.273C235.786 226.264 233.326 225.615 230.811 225.347C227.713 225.076 224.602 224.973 221.492 225.038H221.422L221.203 225.258L220.794 225.038C218.611 225.112 216.427 224.985 214.268 224.659C212.9 224.375 211.636 223.719 210.616 222.763L210.397 222.534C210.008 222.214 209.694 221.812 209.48 221.356C209.266 220.901 209.157 220.403 209.16 219.9C209.239 218.962 209.948 218.283 211.305 217.904C213.999 217.053 217.657 217.951 222.28 220.598L226.471 216.308C220.065 212.356 213.896 210.96 207.962 212.117L204.021 208.485L199.222 209.992L203.163 213.614C201.852 214.189 200.701 215.076 199.81 216.198C199.474 216.651 199.23 217.167 199.092 217.714C198.962 218.264 198.941 218.833 199.032 219.391C199.381 221.745 200.798 224.07 203.303 226.375C205.186 228.116 207.348 229.529 209.698 230.556C211.917 231.547 214.271 232.199 216.683 232.491C219.54 232.78 222.414 232.873 225.284 232.771C227.949 232.649 230.62 232.759 233.266 233.1C234.736 233.388 236.097 234.079 237.197 235.096C237.677 235.453 238.071 235.914 238.349 236.444C238.627 236.974 238.783 237.56 238.803 238.159C238.803 239.037 238.015 239.745 236.608 240.294L236.01 240.504C232.145 241.708 228.011 240.71 223.607 237.51L217.8 241.461C225.217 246.43 232.348 248.196 239.193 246.76L244.271 251.429L244.471 251.369L247.873 250.302L249.07 249.932L246.506 247.568L243.962 245.223Z" fill="#539074"/>
<path d="M199.881 206.789L199.172 209.952L206.885 213.185L199.811 214.312L199.042 217.675L242.885 235.854L234.992 239.875L218.509 238.279L217.801 241.451L240.58 246.141L249.071 249.923L249.779 246.75L243.144 243.986L248.971 240.274L249.699 237.021L230.871 224.968L222.181 221.865L221.442 221.875L213.48 222.494L205.997 216.797L216.982 216.517L226.421 216.268L227.13 213.095L207.114 210.181L199.881 206.789Z" fill="#539074"/>
<path d="M231.58 193.199C197.775 185.646 166.854 195.195 162.534 214.601C158.204 233.978 182.1 255.809 215.905 263.363C249.709 270.916 280.62 261.367 284.961 241.96C289.291 222.584 265.404 200.752 231.58 193.199ZM217.81 254.852C192.198 249.134 174.108 232.601 177.381 217.934C178.848 211.379 184.365 206.3 192.248 203.207C202.036 199.365 215.516 198.557 229.684 201.72C243.852 204.883 255.696 211.359 262.92 219.002C268.757 225.168 271.57 232.092 270.104 238.648C266.821 253.315 243.453 260.579 217.81 254.852Z" fill="#72AA8B"/>
<path d="M244.671 242.06C247.535 240.793 249.181 239.197 249.66 237.271C249.756 236.896 249.806 236.511 249.81 236.124C249.81 233.669 248.323 231.072 245.349 228.331C243.428 226.559 241.218 225.128 238.814 224.1C236.493 223.099 234.034 222.453 231.52 222.185C228.422 221.909 225.311 221.803 222.201 221.865H222.121L221.912 222.095L221.503 221.875C219.321 221.944 217.137 221.817 214.977 221.496C213.61 221.209 212.347 220.553 211.325 219.6L211.106 219.361C210.717 219.043 210.405 218.643 210.191 218.189C209.977 217.735 209.867 217.239 209.869 216.737C209.949 215.799 210.657 215.12 212.014 214.691C214.675 213.84 218.333 214.738 222.989 217.385L227.18 213.095C220.774 209.157 214.605 207.76 208.671 208.904L204.68 205.282L199.881 206.789L203.822 210.411C202.508 210.986 201.354 211.873 200.46 212.995C200.13 213.452 199.89 213.966 199.751 214.512C199.621 215.065 199.601 215.638 199.691 216.198C200.041 218.553 201.458 220.878 203.962 223.182C205.844 224.923 208.006 226.333 210.358 227.353C212.574 228.36 214.928 229.032 217.342 229.349C220.2 229.632 223.073 229.725 225.943 229.628C228.608 229.496 231.28 229.606 233.925 229.957C235.395 230.245 236.756 230.936 237.856 231.953C238.335 232.309 238.728 232.769 239.006 233.297C239.284 233.825 239.44 234.409 239.463 235.006C239.413 235.884 238.674 236.603 237.268 237.141C237.072 237.223 236.872 237.293 236.669 237.351C232.798 238.568 228.663 237.57 224.267 234.358L218.509 238.279C225.926 243.261 233.057 245.03 239.902 243.587L244.98 248.256L245.18 248.197L248.582 247.129L249.78 246.75L247.215 244.395L244.671 242.06Z" fill="#72AA8B"/>
<path d="M23.1641 54.1096C23.1641 54.1096 62.2867 50.7871 83.5093 94.2201C104.732 137.653 122.632 148.259 162.742 137.324C202.853 126.388 181.979 67.2503 133.567 54.0498C85.1556 40.8493 43.7281 46.1474 23.1641 54.1096Z" fill="#99CAAB"/>
<path d="M152.795 271.923C162.833 271.923 162.773 261.945 162.773 216.886C162.773 192.32 153.204 128.024 158.133 85.9281C162.224 50.7766 180.982 34.922 180.982 34.922C180.982 34.922 152.266 57.6712 150.48 91.5655C148.634 126.537 150.48 188.469 149.482 204.314C147.497 235.474 136.222 271.923 152.795 271.923Z" fill="#035946"/>
<path d="M159.431 174.121C146.879 156.162 152.447 122.407 202.196 105.824C251.945 89.241 307.301 100.835 329.511 135.997C306.632 136.326 267.51 145.974 241.987 161.19C216.464 176.406 177.002 199.315 159.431 174.121Z" fill="#CFE8CC"/>
<path d="M151.478 68.0286C132.989 54.878 148.824 23.9471 169.707 12.6623C190.59 1.37751 225.403 -11.5337 260.215 18.6489C241.646 18.6489 215.126 37.2873 206.176 46.0378C197.226 54.7882 177.001 86.2679 151.478 68.0286Z" fill="#CFE8CC"/>
<path d="M98.5448 263.692C102.223 261.271 106.201 259.339 110.378 257.945C118.228 255.338 126.453 254.037 134.724 254.093C149.242 254.093 162.223 257.825 170.933 263.702C177.449 268.092 181.569 273.679 182.148 279.816C182.148 279.307 182.228 278.818 182.228 278.289C182.228 271.564 177.977 265.418 170.933 260.668C162.223 254.792 149.242 251.06 134.724 251.06C120.206 251.06 107.235 254.792 98.5248 260.668C91.5005 265.408 87.25 271.554 87.25 278.279C87.25 278.788 87.25 279.277 87.3198 279.806C87.9085 273.679 92.0293 268.082 98.5448 263.692Z" fill="#539074"/>
<path d="M134.744 305.498C109.411 305.498 88.7067 294.134 87.3198 279.806C87.3198 280.304 87.25 280.803 87.25 281.312C87.25 296.349 108.513 308.531 134.744 308.531C160.975 308.531 182.248 296.349 182.248 281.312C182.246 280.809 182.22 280.306 182.168 279.806C180.781 294.134 160.087 305.498 134.744 305.498Z" fill="#FEA400"/>
<path d="M134.746 314.229C100.103 314.229 72.0261 298.135 72.0261 278.309V290.043C72.0261 309.889 100.103 325.963 134.746 325.963C169.389 325.963 197.476 309.859 197.476 290.043V278.279C197.466 298.135 169.389 314.229 134.746 314.229Z" fill="#539074"/>
<path d="M170.953 263.692C162.243 257.815 149.262 254.083 134.744 254.083C126.473 254.027 118.248 255.328 110.399 257.935C106.222 259.329 102.244 261.261 98.565 263.682C92.0496 268.072 87.9288 273.66 87.3401 279.796C88.727 294.124 109.431 305.489 134.764 305.489C160.098 305.489 180.801 294.124 182.188 279.796C181.59 273.68 177.469 268.082 170.953 263.692ZM117.972 259.581H117.882H117.972ZM130.943 283.039H131.142H130.943ZM140.042 294.344L140.741 294.413L141.449 294.483C140.98 294.403 140.511 294.344 140.042 294.344ZM160.796 286.192C160.889 285.987 160.969 285.778 161.035 285.563C160.967 285.761 160.887 285.954 160.796 286.142V286.192ZM161.135 285.194C161.158 285.119 161.174 285.042 161.185 284.965C161.17 285.009 161.154 285.052 161.135 285.094V285.194ZM161.215 284.775C161.235 284.563 161.235 284.349 161.215 284.136C161.229 284.316 161.229 284.496 161.215 284.675V284.775Z" fill="#F5F5F5"/>
<path d="M158.183 290.402C160.698 288.546 161.955 286.63 161.985 284.645C161.996 284.256 161.963 283.868 161.885 283.487C161.353 281.093 159.334 278.884 155.829 276.862C153.564 275.554 151.095 274.64 148.525 274.158C146.039 273.684 143.496 273.59 140.982 273.879C137.9 274.29 134.842 274.866 131.822 275.605H131.752L131.593 275.864L131.144 275.735C129.031 276.28 126.874 276.634 124.698 276.792C123.295 276.82 121.912 276.453 120.707 275.735L120.448 275.555C119.997 275.329 119.602 275.006 119.292 274.61C118.981 274.213 118.762 273.752 118.652 273.26C118.532 272.332 119.081 271.514 120.308 270.806C122.756 269.389 126.514 269.469 131.583 271.045L134.736 265.947C127.618 263.492 121.299 263.472 115.778 265.887L111.139 263.213L106.758 265.747L111.398 268.421C110.243 269.269 109.311 270.385 108.684 271.674C108.462 272.191 108.34 272.747 108.325 273.31C108.318 273.876 108.42 274.438 108.624 274.966C109.482 277.181 111.378 279.147 114.311 280.843C116.53 282.128 118.948 283.032 121.465 283.517C123.838 284 126.269 284.128 128.679 283.896C131.53 283.555 134.353 283.018 137.13 282.29C139.697 281.587 142.322 281.116 144.973 280.883C146.477 280.851 147.96 281.241 149.253 282.011C149.799 282.254 150.284 282.617 150.671 283.073C151.058 283.529 151.337 284.066 151.488 284.645C151.628 285.513 151.069 286.371 149.812 287.209L149.273 287.538C145.774 289.534 141.521 289.464 136.512 287.329L131.812 292.377C140.134 295.624 147.477 295.796 153.843 292.896L159.83 296.339L160.009 296.239L163.102 294.453L164.19 293.824L161.197 292.088L158.183 290.402Z" fill="#539074"/>
<path d="M106.769 262.504V265.747L115 267.214L108.345 269.858L108.335 273.31L155.081 281.492L148.256 287.129L131.823 289.175V292.417L155.081 292.038L164.19 293.864V290.621L157.106 289.364L161.985 284.485V281.153L140.992 273.49L131.823 272.362L131.104 272.522L123.471 274.857L114.92 270.935L125.587 268.271L134.746 265.967V262.714L114.571 264.23L106.769 262.504Z" fill="#539074"/>
<path d="M134.746 242.33C100.103 242.33 72.0261 258.424 72.0261 278.249C72.0261 298.105 100.103 314.169 134.746 314.169C169.389 314.169 197.466 298.075 197.476 278.249C197.476 258.424 169.389 242.33 134.746 242.33ZM134.746 305.499C108.515 305.499 87.2521 293.316 87.2521 278.279C87.2521 271.554 91.5026 265.408 98.5469 260.659C107.257 254.782 120.238 251.05 134.746 251.05C149.254 251.05 162.245 254.782 170.955 260.659C177.999 265.408 182.25 271.554 182.25 278.279C182.25 293.346 160.987 305.499 134.746 305.499Z" fill="#72AA8B"/>
<path d="M158.183 287.149C160.698 285.303 161.955 283.388 161.985 281.402C161.996 281.014 161.963 280.625 161.885 280.245C161.353 277.85 159.334 275.642 155.829 273.62C153.569 272.303 151.097 271.388 148.525 270.916C146.04 270.439 143.496 270.341 140.982 270.626C137.899 271.037 134.841 271.616 131.822 272.362H131.752L131.593 272.632L131.144 272.502C129.031 273.047 126.874 273.401 124.698 273.56C123.296 273.583 121.914 273.216 120.707 272.502L120.448 272.322C119.998 272.096 119.604 271.772 119.293 271.376C118.983 270.979 118.764 270.519 118.652 270.028C118.532 269.1 119.081 268.271 120.308 267.563C122.756 266.153 126.514 266.233 131.583 267.803L134.736 262.704C127.618 260.249 121.299 260.233 115.778 262.654L111.139 259.98L106.758 262.504L111.398 265.178C110.243 266.026 109.311 267.143 108.684 268.431C108.461 268.949 108.339 269.504 108.325 270.067C108.317 270.634 108.418 271.196 108.624 271.724C109.482 273.949 111.378 275.904 114.311 277.611C116.532 278.892 118.949 279.795 121.465 280.285C123.839 280.763 126.269 280.89 128.679 280.664C131.529 280.317 134.352 279.78 137.13 279.057C139.697 278.353 142.322 277.879 144.973 277.641C146.479 277.608 147.962 278.003 149.253 278.778C149.798 279.021 150.282 279.382 150.669 279.836C151.056 280.29 151.336 280.826 151.488 281.402C151.628 282.27 151.069 283.128 149.812 283.966C149.643 284.086 149.463 284.196 149.273 284.306C145.774 286.301 141.521 286.228 136.512 284.086L131.812 289.145C140.134 292.391 147.477 292.561 153.843 289.654L159.83 293.106L160.009 293.006L163.102 291.22L164.19 290.592L161.197 288.846L158.183 287.149Z" fill="#72AA8B"/>
<path d="M20.5895 252.756C23.0785 249.12 26.0301 245.823 29.3699 242.948C35.6431 237.557 42.7587 233.233 50.4329 230.147C63.8629 224.639 77.2929 223.162 87.5799 225.298C95.2727 226.894 101.209 230.496 104.073 235.954C103.929 235.463 103.759 234.98 103.564 234.507C101.02 228.291 94.7439 224.22 86.4325 222.534C76.1355 220.398 62.7154 221.875 49.2854 227.373C35.8554 232.871 25.2691 241.262 19.4321 250.002C14.7226 257.067 13.1162 264.37 15.6605 270.586C15.8601 271.065 16.0796 271.524 16.319 271.973C14.543 266.027 16.2392 259.292 20.5895 252.756Z" fill="#539074"/>
<path d="M69.9484 277.711C46.5107 287.319 23.0531 284.695 16.3281 271.924C16.4646 272.406 16.6312 272.879 16.827 273.341C22.5243 287.259 46.83 290.462 71.1058 280.515C95.3816 270.567 110.428 251.21 104.721 237.301C104.531 236.832 104.312 236.383 104.082 235.944C108.233 249.723 93.396 268.092 69.9484 277.711Z" fill="#FEA400"/>
<path d="M73.2639 285.783C41.2155 298.924 9.12717 294.683 1.59399 276.314L6.04406 287.17C13.5772 305.539 45.6656 309.779 77.714 296.639C109.762 283.498 129.648 257.945 122.115 239.576L117.665 228.72C125.188 247.089 105.312 272.632 73.2639 285.783Z" fill="#539074"/>
<path d="M87.5905 225.288C77.3035 223.153 63.8735 224.629 50.4435 230.137C42.7693 233.223 35.6537 237.548 29.3805 242.938C26.0407 245.813 23.0891 249.11 20.6001 252.747C16.2498 259.282 14.5536 266.017 16.3396 271.914C23.0546 284.645 46.5222 287.309 69.9599 277.701C93.3975 268.092 108.244 249.763 104.094 235.934C101.22 230.486 95.2833 226.884 87.5905 225.288ZM37.0134 241.582L36.9436 241.641L37.0134 241.582ZM57.8669 258.424L58.0365 258.314L57.8669 258.424ZM70.5885 265.408L71.2669 265.209L71.9454 265.009C71.5164 265.069 71.0574 265.209 70.5984 265.328L70.5885 265.408ZM86.7025 249.993C86.7174 249.77 86.7174 249.547 86.7025 249.324C86.7174 249.52 86.7207 249.717 86.7125 249.913L86.7025 249.993ZM86.6127 248.895C86.6183 248.819 86.6183 248.742 86.6127 248.666C86.6184 248.715 86.6217 248.765 86.6227 248.815L86.6127 248.895ZM86.5329 248.476C86.4814 248.269 86.4147 248.065 86.3333 247.867C86.4167 248.055 86.4868 248.249 86.5428 248.446L86.5329 248.476Z" fill="#F5F5F5"/>
<path d="M29.3708 242.948L29.3812 242.938L29.3708 242.948Z" fill="#FEA400"/>
<path d="M85.9043 254.841C87.5307 252.177 87.9597 249.922 87.2413 248.077C87.1012 247.726 86.9239 247.391 86.7125 247.079C85.309 245.083 82.6017 243.803 78.5906 243.237C76.0127 242.87 73.391 242.944 70.8379 243.457C68.3572 243.952 65.9678 244.827 63.7538 246.051C61.0335 247.606 58.402 249.312 55.8714 251.16H55.8115V251.459L55.3525 251.509C53.6019 252.815 51.7387 253.964 49.785 254.941C48.5001 255.493 47.0871 255.676 45.7041 255.47L45.3948 255.4C44.9024 255.363 44.4241 255.219 43.9932 254.977C43.5624 254.736 43.1894 254.404 42.9003 254.003C42.4314 253.185 42.6309 252.217 43.489 251.1C45.2251 248.858 48.734 247.504 54.0155 247.039L55.0133 241.122C47.4967 241.554 41.6365 243.939 37.4326 248.276L32.1344 247.558L29.0513 251.549L34.3594 252.267C33.6109 253.49 33.1724 254.877 33.0823 256.308C33.0743 256.87 33.1725 257.429 33.3716 257.954C33.5543 258.495 33.8426 258.993 34.2197 259.421C35.8561 261.157 38.3538 262.252 41.713 262.704C44.2524 263.052 46.8321 262.975 49.3459 262.474C51.7236 262.018 54.0202 261.211 56.1607 260.08C58.6718 258.682 61.0853 257.115 63.3846 255.39C65.4919 253.768 67.7391 252.335 70.0996 251.11C71.4761 250.509 72.9944 250.308 74.4798 250.531C75.0782 250.548 75.6652 250.7 76.1971 250.974C76.7291 251.249 77.1925 251.64 77.5529 252.118C78.0119 252.866 77.8223 253.874 76.9742 255.111L76.6051 255.62C74.0907 258.819 70.1295 260.362 64.7216 260.249L62.2771 266.715C71.2038 266.555 78.0651 263.924 82.8611 258.823L89.7058 259.75L89.8255 259.591L92.0107 256.767L92.7789 255.769L89.3266 255.31L85.9043 254.841Z" fill="#539074"/>
<path d="M27.7551 248.536L28.9824 251.539L37.1541 249.773L32.0056 254.752L33.3027 257.945L79.6492 247.778L75.4785 255.59L61.0508 263.712L62.278 266.715L83.6503 257.536L92.7799 255.77L91.5427 252.766L84.5183 254.303L87.1824 247.927L85.9152 244.844L63.5851 245.722L54.675 248.157L54.0664 248.576L47.9001 253.635L38.5011 253.245L47.3613 246.74L54.9444 241.123L53.7171 238.119L35.6275 247.179L27.7551 248.536Z" fill="#539074"/>
<path d="M45.9841 219.25C13.9656 232.401 -5.93991 257.944 1.59327 276.313C9.12644 294.682 41.2148 298.922 73.2632 285.782C105.312 272.641 125.147 247.088 117.664 228.719C110.131 210.35 78.0425 206.11 45.9841 219.25ZM69.9306 277.71C45.6648 287.687 21.3591 284.455 15.6519 270.536C13.1075 264.32 14.714 257.016 19.4234 249.952C25.2604 241.211 35.8468 232.83 49.2768 227.322C62.7068 221.814 76.1268 220.338 86.4238 222.483C94.7353 224.209 101.011 228.28 103.556 234.456C109.283 248.445 94.2264 267.752 69.9506 277.71H69.9306Z" fill="#72AA8B"/>
<path d="M84.6676 251.838C86.294 249.174 86.733 246.919 86.0146 245.073C85.8749 244.721 85.694 244.386 85.4758 244.076C84.0789 242.08 81.3749 240.8 77.3639 240.234C74.7727 239.883 72.1406 239.978 69.5813 240.514C67.102 241.014 64.7133 241.889 62.4971 243.108C59.7966 244.653 57.1849 246.348 54.6746 248.186H54.6147L54.5648 248.486L54.1058 248.546C52.3515 249.844 50.4888 250.989 48.5383 251.968C47.2534 252.52 45.8404 252.703 44.4574 252.497L44.1481 252.427C43.6472 252.389 43.1609 252.241 42.7244 251.992C42.2878 251.744 41.9119 251.402 41.6237 250.99C41.1448 250.172 41.3444 249.204 42.2124 248.087C43.9352 245.845 47.4441 244.491 52.7389 244.026L53.7367 238.109C46.2201 238.541 40.3599 240.926 36.1559 245.263L30.8478 244.545L27.7747 248.536L33.0828 249.254C32.3298 250.475 31.891 251.863 31.8057 253.295C31.7943 253.856 31.8891 254.415 32.085 254.941C32.2926 255.465 32.6011 255.943 32.993 256.348C34.6194 258.084 37.1238 259.182 40.4863 259.631C43.0257 259.979 45.6053 259.902 48.1192 259.401C50.4964 258.943 52.7928 258.136 54.934 257.007C57.4431 255.61 59.8534 254.044 62.1479 252.317C64.2504 250.709 66.4908 249.29 68.8429 248.077C70.2233 247.477 71.7444 247.276 73.2331 247.498C73.8299 247.516 74.4148 247.669 74.945 247.943C75.4751 248.218 75.9369 248.608 76.2963 249.084C76.7652 249.833 76.5657 250.84 75.7176 252.078C75.6078 252.237 75.4881 252.417 75.3484 252.587C72.8739 255.793 68.9128 257.339 63.4649 257.226L61.0304 263.692C69.9638 263.532 76.8251 260.901 81.6144 255.799L88.4492 256.727L88.5789 256.568L90.7939 253.764L91.5622 252.766L88.1099 252.307L84.6676 251.838Z" fill="#72AA8B"/>
<path d="M203.663 247.268C208.065 247.089 212.473 247.484 216.773 248.446C224.85 250.233 232.579 253.334 239.652 257.625C252.134 265.028 261.414 274.886 265.834 284.365C269.166 291.479 269.825 298.394 267.201 303.952C267.5 303.542 267.789 303.123 268.049 302.684C271.491 296.907 271.042 289.454 267.38 281.731C262.92 272.222 253.691 262.364 241.229 254.921C228.766 247.478 215.716 244.025 205.219 244.604C196.738 245.073 189.933 248.166 186.491 253.933C186.226 254.372 185.986 254.825 185.772 255.29C189.414 250.441 195.82 247.697 203.663 247.268Z" fill="#539074"/>
<path d="M213.31 301.727C191.558 288.756 179.615 268.361 185.771 255.351C185.472 255.76 185.192 256.169 184.933 256.598C177.22 269.509 189.233 290.881 211.753 304.331C234.273 317.781 258.788 318.22 266.491 305.329C266.75 304.89 266.98 304.451 267.199 303.992C258.658 315.576 235.061 314.718 213.31 301.727Z" fill="#FEA400"/>
<path d="M208.829 309.22C179.096 291.46 163.231 263.243 173.418 246.191L167.432 256.268C157.254 273.31 173.109 301.527 202.843 319.287C232.576 337.048 264.954 337.636 275.131 320.584L281.118 310.517C270.93 327.559 238.573 326.98 208.829 309.22Z" fill="#539074"/>
<path d="M265.833 284.366C261.363 274.857 252.133 264.999 239.671 257.556C232.598 253.265 224.869 250.164 216.792 248.376C212.49 247.428 208.082 247.046 203.681 247.239C195.839 247.668 189.433 250.362 185.791 255.32C179.635 268.292 191.578 288.706 213.33 301.697C235.081 314.688 258.679 315.546 267.209 303.952C269.844 298.424 269.165 291.51 265.833 284.366ZM222.499 253.704H222.41H222.499ZM221.502 280.474L221.691 280.544L221.502 280.474ZM223.577 294.822L224.146 295.241L224.714 295.66L223.577 294.822ZM245.578 298.464C245.761 298.338 245.935 298.198 246.097 298.045C245.941 298.197 245.774 298.337 245.598 298.464H245.578ZM246.406 297.736L246.566 297.566L246.406 297.736ZM246.695 297.416C246.826 297.252 246.946 297.078 247.054 296.898C246.953 297.078 246.839 297.251 246.715 297.416H246.695Z" fill="#F5F5F5"/>
<path d="M241.169 300.779C244.272 300.48 246.337 299.472 247.385 297.786C247.59 297.472 247.76 297.137 247.894 296.788C248.666 294.453 248.064 291.52 246.088 287.987C244.819 285.7 243.165 283.647 241.199 281.921C239.312 280.241 237.183 278.855 234.883 277.81C232.021 276.586 229.097 275.514 226.123 274.597H226.053L225.783 274.737L225.494 274.388C223.401 273.769 221.367 272.964 219.418 271.983C218.189 271.28 217.183 270.247 216.514 269C216.454 268.9 216.424 268.8 216.374 268.71C216.106 268.284 215.936 267.803 215.875 267.303C215.815 266.803 215.866 266.295 216.025 265.817C216.394 264.959 217.282 264.53 218.699 264.55C221.533 264.603 224.719 266.599 228.258 270.536L233.576 267.783C228.727 262.029 223.306 258.769 217.312 258.004L214.698 253.325L209.709 253.255L212.323 257.925C210.899 258.064 209.529 258.547 208.332 259.331C207.876 259.66 207.486 260.073 207.185 260.549C206.888 261.031 206.688 261.566 206.596 262.125C206.187 264.47 206.816 267.114 208.462 270.107C209.707 272.355 211.319 274.378 213.231 276.094C215.019 277.712 217.036 279.057 219.218 280.085C221.838 281.265 224.535 282.265 227.29 283.078C229.857 283.787 232.355 284.725 234.753 285.882C236.059 286.627 237.13 287.723 237.846 289.045C238.19 289.534 238.419 290.093 238.517 290.682C238.616 291.27 238.581 291.874 238.415 292.447C238.096 293.276 237.168 293.715 235.661 293.794H235.023C230.982 293.735 227.36 291.49 224.187 287.069L217.512 288.995C223 296.039 229.219 299.954 236.17 300.739L239.533 306.726H239.742L243.304 306.775H244.561L242.865 303.782L241.169 300.779Z" fill="#539074"/>
<path d="M211.335 250.461L209.679 253.255L215.985 258.733L208.911 257.585L207.135 260.549L243.074 291.539L234.324 292.886L219.168 286.211L217.501 288.995L237.666 300.589L244.551 306.835L246.207 304.052L240.769 299.342L247.474 297.646L249.181 294.782L235.082 277.441L227.788 271.774L227.09 271.544L219.337 269.638L214.009 261.886L224.536 265.069L233.575 267.782L235.242 264.989L217.142 255.949L211.335 250.461Z" fill="#539074"/>
<path d="M245.698 247.448C215.965 229.687 183.597 229.109 173.42 246.151C163.232 263.202 179.097 291.419 208.831 309.18C238.564 326.94 270.932 327.519 281.119 310.477C291.346 293.475 275.442 265.248 245.698 247.448ZM213.311 301.726C190.781 288.276 178.778 266.904 186.49 253.993C189.933 248.226 196.738 245.133 205.219 244.664C215.715 244.085 228.766 247.537 241.228 254.981C253.69 262.424 262.92 272.282 267.38 281.791C270.992 289.484 271.491 296.937 268.048 302.744C260.336 315.615 235.83 315.176 213.311 301.726Z" fill="#72AA8B"/>
<path d="M242.835 297.985C245.938 297.686 248.003 296.688 249.051 294.992C249.259 294.664 249.427 294.312 249.55 293.944C250.328 291.616 249.73 288.686 247.754 285.154C246.484 282.866 244.83 280.814 242.865 279.087C240.975 277.407 238.842 276.021 236.539 274.976C233.683 273.747 230.762 272.674 227.789 271.764H227.719L227.449 271.903L227.13 271.564C225.037 270.949 223.003 270.148 221.054 269.169C219.836 268.459 218.841 267.422 218.18 266.176C218.12 266.076 218.09 265.987 218.04 265.887C217.773 265.462 217.603 264.983 217.541 264.485C217.479 263.987 217.527 263.481 217.681 263.003C218.05 262.135 218.948 261.716 220.365 261.736C223.189 261.736 226.352 263.732 229.914 267.723L235.242 264.959C230.393 259.212 224.972 255.952 218.978 255.181L216.364 250.511L211.375 250.431L213.989 255.111C212.564 255.248 211.194 255.731 209.998 256.518C209.54 256.844 209.15 257.258 208.851 257.735C208.554 258.221 208.354 258.759 208.262 259.321C207.856 261.669 208.478 264.33 210.128 267.304C211.373 269.551 212.985 271.575 214.897 273.29C216.687 274.907 218.704 276.251 220.884 277.281C223.508 278.459 226.208 279.459 228.966 280.275C231.533 280.983 234.031 281.921 236.429 283.078C237.736 283.819 238.806 284.916 239.512 286.241C239.857 286.729 240.088 287.288 240.189 287.877C240.289 288.466 240.255 289.069 240.091 289.644C239.765 290.462 238.847 290.911 237.337 290.991H236.699C232.648 290.931 229.033 288.689 225.853 284.266L219.228 286.191C224.715 293.236 230.935 297.147 237.886 297.925L241.249 303.912H241.448H245.02H246.267L244.571 300.869L242.835 297.985Z" fill="#72AA8B"/>
</svg>
